<?xml version="1.0" encoding="UTF-8"?><svg id="Calque_2" xmlns="http://www.w3.org/2000/svg" viewBox="0 0 650.61 177.15"><defs><style>.cls-1{stroke-width:.78px;}.cls-1,.cls-2,.cls-3{fill:none;stroke:#000;stroke-miterlimit:10;}.cls-2{stroke-width:1.06px;}.cls-3{stroke-width:.75px;}</style></defs><g id="Calque_5"><g><g><path class="cls-3" d="M54.89,69.14c-3.04-2.87-7.51-7.78-11-15-2.18-4.51-4.68-14.25-5-19-.04-.59-.07-1.45-.5-2.5-.98-2.37-2.73-2.57-4-5-.91-1.75-.7-2.99-1-3-.71-.03-2.54,6.77-2,13,1.03,11.85,10.64,21.76,12,21,1.49-.83-4.36-15.92-15-25-1.51-1.29-4.59-3.88-6-3-1.78,1.11-.28,7.36,2,12,4.03,8.19,11.53,13.46,12,13,.47-.47-4.7-8.4-13-12-4.5-1.95-10.83-3.03-12-1-.88,1.53,.9,5.32,12,15"/><path class="cls-3" d="M46.39,63.64c-1.32-1.67-4.99-5.83-11-7-1.53-.3-7.83-1.52-11,2-.73,.82-1.95,2.17-2,4-.04,1.56,.78,2.89,0,4-.44,.62-1.06,.73-1,1,.11,.53,2.37-.23,4,1,1.03,.78,.95,1.7,2,2,.78,.23,1.02-.23,2,0,.96,.23,1.02,.73,2,1,.93,.25,1.28-.09,2,0,1.51,.2,2.19,2,3,3,.97,1.2,3.04,2.39,8,2"/><path class="cls-3" d="M25.39,68.64c2.33-.33,4.67-.67,7-1h0c.49-.55,.94-1.04,1-1,.14,.11-2.59,3.29-2,4,.15,.18,.49,.15,4-1,1.31-.43,2.67-.89,3-1,1.27-.43,2.31-.77,3-1"/><path class="cls-3" d="M42.39,66.64c.18-.2,.9-.94,2-1,1.23-.07,2.43,.72,3,2"/><path class="cls-3" d="M23.39,64.64c1.01-.67,2.34-1.42,4-2,2.84-1,5.37-1.08,7-1"/><path class="cls-3" d="M22.39,57.64c-3.87,1.43-6.38,1.37-8,1-.47-.11-1.73-.44-2,0-.23,.37,.38,1.08,1,2,1.16,1.73,1.29,2.61,2,4,1.37,2.68,3.68,4.8,5,6,4.81,4.41,10.54,6.3,13,7"/><path class="cls-3" d="M16.39,66.64c.7,1.07,.65,2.34,0,3-.99,1-2.85,.08-3,0-.4-.2-.64-.43-2-2-1.49-1.72-1.71-2.05-2-2-.72,.12-1.05,2.46-1,4,.04,1.21,.39,5.19,7,11,2.9,2.56,8.08,6.41,16,9"/><path class="cls-3" d="M41.39,88.64c-1.59,.03-7.02-.06-12-4-6.1-4.82-6.88-11.75-7-13"/><path class="cls-3" d="M39.39,84.64c-1.28,.02-3.06,.22-5,1-.76,.31-1.43,.65-2,1"/><path class="cls-3" d="M32.39,78.64c1.49,.47,3.18,1.11,5,2,1.98,.98,3.65,2.03,5,3"/><path class="cls-3" d="M16.39,66.64c-.23,.31-.56,.67-1,1-1.17,.87-2.43,.99-3,1"/><path class="cls-3" d="M8.39,69.64c-.46,.3-1.13,.68-2,1-2.27,.84-3.59,.38-4,1-.35,.54,.03,1.82,3,5"/><path class="cls-3" d="M11.39,76.64c-2.2-.5-3.92-.27-5,0-.76,.19-1.96,.49-2,1-.05,.67,1.92,1.4,4,2"/><path class="cls-3" d="M16.39,82.64c-1.59-1.1-4.34-2.66-8-3-2.03-.19-5.7-.14-6,1-.19,.74,1,2.14,7,5"/><path class="cls-3" d="M12.39,83.64c-.09,0-1.61,.06-2,1-.09,.22-.14,.52,0,1,.48,1.72,2.4,2.71,3,3,1.58,.76,2.74,.79,4,1,1.18,.2,6.15,1.02,8,4,1.48,2.38,.58,5.48,0,7"/><path class="cls-3" d="M5.39,83.64c-2.28,1.85-2.07,2.79-2,3,.37,1.15,3.16,1.51,7,1"/><path class="cls-3" d="M3.39,86.64c.29,.71,.88,1.88,2,3,.54,.54,1.53,1.4,3,2"/><path class="cls-3" d="M25.39,93.64c-4.52,.54-9.95,.73-16,0-2.13-.26-4.13-.6-6-1"/><path class="cls-3" d="M8.39,91.64c-2.08,.22-3.76,.63-5,1-1.75,.52-1.98,.79-2,1-.06,.67,1.98,1.42,4,2-.64,.63-1.63,1.43-3,2-1.1,.45-1.89,.53-2,1-.17,.73,1.47,1.69,2,2,1.58,.92,3.61,1.68,7,2,1.48,.14,3.53,.23,6,0"/><path class="cls-3" d="M49.39,91.64c-2,.58-4.8,1.51-8,3-3.78,1.77-7.14,3.33-7,5,.03,.35,.3,1.78,5,3"/><path class="cls-3" d="M56.39,97.64c-3,.9-5.43,1.57-7,2-2.28,.62-9.9,2.66-18,6-1.65,.68-3.05,1.3-3,2,.08,1.17,4.21,1.9,7,2,2.92,.1,5.34-.47,7-1-.73,1.77-.32,3.78,1,5,1.63,1.51,3.81,1.04,4,1-.28-3.01,.52-5.03,1-6,.76-1.53,1.88-2.77,3-4,.78-.87,1.49-1.54,2-2"/><path class="cls-3" d="M55.39,101.64c-.33,.42-.77,1.09-1,2-.3,1.21,.05,1.73,0,3-.09,2.38-1.42,2.84-1,4,.47,1.28,2.44,1.68,4,2,1.44,.29,2.28,.46,3,0,1.51-.97,1.15-3.85,1-5-.13-1.05-.54-2.94-2-5"/><path class="cls-3" d="M22.39,100.64c-1.11-.03-4.06,.05-7,2-3.65,2.42-4.74,6.05-5,7-2.35-.79-3.44-.47-4,0-.33,.28-.43,.57-1,1-1.06,.8-1.94,.7-2,1-.11,.56,2.8,1.58,4,2,6.17,2.14,9.32,3.21,12,3,.68-.05,1.95-.2,2,0,.06,.26-2.04,.57-4,2-1.74,1.28-3.69,3.68-3,5,.53,1.02,2.46,1.01,3,1"/><path class="cls-3" d="M28.39,117.64c-2.52,.65-5.38,1.83-8,4-2.3,1.91-4.38,4.54-4,5,.22,.26,1.12-.36,3-1,2.37-.8,4.01-.84,5-1,1.92-.31,4.64-1.59,8-6"/><path class="cls-3" d="M33.39,109.64c-4.45,2-9.37,4.54-9,6,.05,.2,.24,.54,2,1,1.78,.46,6.74,1.75,12-1,1.03-.54,2.5-1.46,4-3"/><path class="cls-3" d="M10.39,112.64c5.98-1.31,7.87-1.39,8-1,.15,.46-2.17,1.43-2,2,.16,.54,2.43,.37,5,0"/><path class="cls-3" d="M13.39,108.64c1.83-.01,4.26-.22,7-1,2-.57,3.68-1.31,5-2"/><path class="cls-3" d="M29.39,121.64c-.69,.92-2.11,3.11-2,6,.14,3.7,2.75,7.3,4,7,.36-.09,.76-.53,1-2"/><path class="cls-3" d="M25.39,124.64c-1.99,8.08-2.32,12.41-1,13,.9,.4,2.57-.93,5-4"/><path class="cls-3" d="M25.39,126.64c-.38,.08-2.01,.47-3,2-1,1.54-.96,3.61,0,5,.33,.48,.72,.8,1,1"/><path class="cls-3" d="M29.39,133.64c-2.15,5.42-2.32,6.83-2,7,.38,.2,1.34-1.43,4-3,.79-.47,1.41-.74,2-1,3.12-1.36,5.45-1.59,7-2,1.84-.49,4.34-1.7,7-5"/><path class="cls-3" d="M46.39,121.64c-2.8,2.54-3.25,3.57-3,4,.26,.44,1.32,.37,2,0,1.13-.61,1.67-2.29,1-4Z"/><path class="cls-3" d="M32.39,130.64c2.92,0,7.43-.45,12-3,1.13-.63,2.13-1.32,3-2"/><path class="cls-3" d="M32.39,130.64c1.19,.45,2.9,.94,5,1,3.78,.11,6.64-1.24,8-2"/><path class="cls-3" d="M57.39,114.64c-.28,2.3-1,5.27-3,8-2.69,3.67-6.12,4.79-6,5,.17,.3,7.32-1.81,11-8,.46-.77,.78-1.46,1-2"/><path class="cls-3" d="M50.39,114.64c-.41,.32-1.53,1.29-2,3-.37,1.35-.14,2.48,0,3"/><path class="cls-3" d="M41.39,134.64c-.93,1.35-2.12,3.36-3,6-1.04,3.11-1.55,6.82-1,7,.44,.14,1.52-1.93,2-3,.58-1.29,.64-1.91,1-3,.95-2.85,2.73-5.13,3-5,.22,.11-1.43,2.26-2,6-.31,2.05-.09,3.19-1,5-.59,1.18-1.2,1.73-1,2,.35,.48,3.03-.22,5-2,3.01-2.73,2.52-6.33,5-7,.7-.19,.65,.13,2,0,2.68-.25,4.54-1.64,5-2,1.84-1.44,2.67-3.17,3-4"/><path class="cls-3" d="M59.39,134.64c.23,.46,.57,1.16,1,2,1.73,3.41,1.79,3.3,2,4,.69,2.25,.06,3.3,1,4,.58,.43,1.14,.27,2,1,.63,.54,.83,1.06,1,1,.29-.1-.46-1.53,0-3,.49-1.56,1.91-1.77,2-3,.06-.8-.49-1.5-1-2"/><path class="cls-3" d="M63.39,131.64c.44,1.67,.83,3.69,1,6,.14,1.86,.11,3.54,0,5"/><path class="cls-3" d="M68.39,121.64c-2.88,3.99-4.77,5.95-6,7-.91,.77-1.27,1.18-2,2-.81,.91-2.31,2.59-2,3,.32,.41,2.36-.66,3-1,1.66-.87,2.76-1.8,3-2,2.85-2.42,5.21-5.82,6-7"/><path class="cls-3" d="M63.39,108.64c-.47,1.68-.47,2.68,0,3,.56,.39,1.43-.42,2,0,.62,.46,.4,1.99,0,3-.46,1.17-1.19,1.71-1,2,.25,.38,1.6-.43,2,0,.56,.61-1.65,2.67-1,4,.54,1.1,2.7,1.01,3,1,2.17-.09,3.6-1.56,4-2"/><path class="cls-3" d="M71.39,123.64c1.34-.4,1.82-.23,2,0,.38,.47-.39,1.29,0,2,.41,.74,1.52,.34,2,1,.59,.8-.48,2.14-1,4-.32,1.13-.53,2.78,0,5-.83,.38-.97,.88-1,1-.15,.64,.38,1.27,1,2,.52,.62,.66,.59,1,1,.71,.85,.7,1.67,1,3,.16,.72,.45,1.76,1,3"/><path class="cls-3" d="M77.39,120.64c-.8,1.03-1.86,2.75-2,5-.02,.35-.02,.68,0,1"/><path class="cls-3" d="M77.39,120.64c.63,1.62,.89,3.01,1,4,.11,.97,.16,1.47,0,2-.61,1.97-3.13,2.68-3,3,.13,.32,2.41-.72,3,0,.52,.62-.82,1.88-1,4-.15,1.67,.59,2.01,1,4,.52,2.51-.39,3.23-1,9-.26,2.44-.4,3.87,0,4,.58,.19,2.14-2.36,3-5,.87-2.66,.55-3.97,1-7,.25-1.67,.77-4.1,2-7"/><path class="cls-3" d="M68.39,140.64c.73,.07,1.88,.28,3,1,1.3,.83,1.61,1.73,3,3,.6,.55,1.57,1.31,3,2"/><path class="cls-3" d="M67.39,107.64c1.96,2.26,2.23,3.88,2,5-.28,1.4-1.35,2.1-1,3,.35,.9,1.89,1.48,3,1,1.47-.63,1.66-2.88,1-4-.3-.51-.54-.39-1-1-.88-1.17-.42-2.16-1-3-.35-.51-1.13-1.02-3-1Z"/><path class="cls-3" d="M55.39,95.64c.09-.24,.24-.21,1-1,.72-.76,.74-.95,1-1,.66-.13,1.69,.87,2,2,.24,.87-.13,1.12,0,3,.05,.74,.12,.9,0,1-.66,.51-4.53-2.68-4-4Z"/><path class="cls-3" d="M60.39,94.64c.75,.37,1.66,.99,2,2,.38,1.12-.3,1.64,0,3,.12,.55,.75,1.38,2,3,1.4,1.82,1.69,2.06,2,2,.72-.13,.96-1.74,1-2,.29-1.95-.7-3.53-1-4-.32-.5-.93-1.3-2-2"/><path class="cls-3" d="M66.39,98.64c1.59-2.28,2.98-2.89,4-3,.85-.09,1.32,.18,3,0,1.07-.11,1.5-.29,2,0,.69,.41,.87,1.35,1,2,.17,.86,.08,1.58,0,2-.09,.49-.85,4.07-4,5-2.54,.75-4.72-.79-5-1"/><path class="cls-3" d="M66.39,104.64c.07,.1,.77,1,2,1,.12,0,1.27-.02,2-1"/><path class="cls-3" d="M71.39,104.64c-.04,.1-.24,.61,0,1,.38,.61,1.62,.61,2,0,.24-.39,.04-.9,0-1"/><path class="cls-3" d="M76.39,99.64c.07,1.22,.29,3,1,5,.92,2.6,2.54,5.18,3,5,.37-.14-.55-1.86-1-6-.12-1.09-.18-2.15-1-3-.63-.65-1.44-.9-2-1Z"/><path class="cls-3" d="M75.39,95.64c.46-1.35,.86-3.13,0-4-.69-.7-1.81-.42-2-1-.22-.65,.87-1.97,2-2,1.36-.04,1.6,1.83,3,2,1.57,.19,2.08-2.07,5-3,1.07-.34,2.67-.58,3,0,.28,.49-.45,1.46-1,2-1.7,1.67-3.54,1.07-5,2-1.08,.68-2.21,2.37-2,7"/><path class="cls-3" d="M81.39,110.64c-1.08,1.93-2,4.36-1,6,.31,.51,1.21,1,3,2,3.2,1.78,4.15,1.7,5,3,.25,.38,.49,.87,1,1,.67,.17,1.54-.34,2-1,.76-1.09,.18-2.26,0-5-.09-1.31-.04-2.37,0-3"/><path class="cls-3" d="M91.39,109.64c.46,1.31,1.31,3.01,3,4,1.05,.61,1.61,.47,4,1,1.77,.39,3.83,.86,6,2,.54,.28,3.25,1.75,4,4,.14,.41,.18,.77,0,1-.56,.72-2.79-.38-3,0-.18,.32,1.24,1.4,2,2,3.85,3.04,5.37,5.1,8,7,1.51,1.08,2.26,1.63,2.66,1.79,.06,.02,.36,.14,.34,.21-.05,.21-2.8-.48-3,0-.16,.4,1.66,1.04,3,3,.87,1.27,1.32,2.78,1,3-.47,.32-2.49-2.33-3-2-.56,.36,1.22,3.89,1,4-.32,.16-4.19-7.34-5-7-.24,.1-.16,1.07,0,3,.16,1.91,.35,2.82,0,3-.36,.18-.83-.66-2-1-.78-.23-1.51-.12-2,0-.09,.2-.47,1-1,1-.42,0-.71-.52-1-1-.44-.73-1.08-1.75-2-3-.01,.69-.02,1.73,0,3,.09,5.15,.58,6.76,0,7-.76,.32-2.93-1.87-3-4-.01-.41,.06-.55,0-1-.18-1.29-1.08-2.22-2-3-2.16-1.82-4.43-3.74-6-3-1.29,.61-.58,2.29-2,4-2.42,2.9-7.97,2.22-8,2-.01-.07,.61-.17,3-1,1.58-.55,2-.76,2-1,0-.36-.9-.52-2-1-1.37-.6-2.35-1.39-3-2"/><path class="cls-3" d="M88.39,91.64c-.9-.36-1.76-.08-2,0-.83,.28-1.87,1.02-2,2-.12,.94,.7,1.31,3,4,1.37,1.61,1.59,2.07,2,2,.94-.15,1.52-2.82,1-5-.18-.74-.58-2.44-2-3Z"/><path class="cls-3" d="M102.39,115.64c-3.06-5.3-3.35-6.73-3-7,.45-.34,1.84,1.24,5,3,1.72,.95,5.72,3.18,7,2,.67-.61,0-1.61,0-5,0-1.96-.01-4.64,1-5,.94-.34,1.68,1.72,4,2,.13,.02,2.27,.24,3-1,.48-.82,.08-1.81,0-2-.7-1.72-2.88-1.99-3-2"/><path class="cls-3" d="M112.39,101.64c2.64-1.17,4.65-2.23,6-3,1.79-1.01,2.48-1.52,4-2,1.8-.57,2.9-.51,3-1,.13-.62-1.4-1.67-3-2-2.04-.41-3.64,.46-5,1-1.92,.77-4.83,1.47-9,1"/><path class="cls-3" d="M96.39,99.64c2.01,2.02,2.21,3.25,2,4-.19,.69-1,1.99-1,2h0c-.91-.16-1.9-.27-2,0-.13,.36,1.5,.89,2,2,.45,1,.08,2.75-3,6"/><path class="cls-3" d="M92.39,86.64c1.67,.85,2.01,1.53,2,2,0,.76-.91,1.06-1,2-.04,.48,.14,.99,1,2,1.53,1.79,2.83,3.32,4,3,1.1-.3,1.43-2.04,2-5,.39-2.06,.58-3.11,0-4-.93-1.43-3.01-1.37-3-2,.01-.71,2.62-.69,3-2,.21-.73-.3-1.76-1-2-1.18-.41-1.98,1.69-4,2-1.88,.29-2.74-1.3-5-2-1.48-.46-3.72-.59-7,1"/><path class="cls-3" d="M100.39,91.64c.91,.23,1.92,.55,3,1,2.14,.9,3.8,2.03,5,3"/><path class="cls-3" d="M117.39,98.64c.83-.04,2.24-.08,4,0,3.61,.17,5.02,.7,7,0,1.53-.54,1.26-1.06,3-2,4.26-2.3,8.47-.57,9-2,.3-.8-.83-1.85-1-2-1.64-1.47-4.7-1.04-6.56,.13-.78,.49-1.21,1.02-1.44,.87-.35-.23-.02-1.87,1-3,1.26-1.39,2.86-1.19,3-2,.12-.7-.92-1.64-2-2-1.68-.55-3.32,.37-6,2-6.81,4.15-8.42,5.65-10,5-1.27-.52-1.08-1.82-3-3-1.47-.9-3.02-1.02-4-1"/><path class="cls-3" d="M113.39,89.64c4.14,1.44,5.7,1.52,6,1,.39-.69-1.48-2.35-1-3,.39-.53,1.95,.15,2,0,.09-.24-3.81-2.61-9-3-1.23-.09-2.26-.06-3,0"/><path class="cls-3" d="M92.39,81.64c2-.67,4-1.33,6-2,.67-1.33,1.33-2.67,2-4h0c-.43-.87-1.14-2.01-2-2-1.08,.01-1.42,1.81-3,3-1.03,.78-2.59,1.29-5,1"/><path class="cls-3" d="M86.39,78.64c1.74-.68,3.08-1.42,4-2,1.6-1,1.96-1.49,2-2,.06-.78-.66-1.05-1-2-.17-.47-.33-1.36,1-4,1.64-3.25,2.47-4.89,4-5,1.27-.09,2.8,.88,3,2,.22,1.27-1.42,1.9-3,5,0,0,0,0-1,2h0"/><path class="cls-3" d="M96.39,72.64c1.11-.67,2.44-1.38,4-2,1.07-.43,2.08-.75,3-1"/><path class="cls-3" d="M105.39,71.64c.3-3.08-.53-5.09-1-6-.67-1.31-1.85-2.81-2-3-1.31-1.66-2.07-2.12-2-3,.07-.93,1.03-1.85,2-2,1.76-.28,3.29,1.96,4,3,1.62,2.37,2.01,4.99,2,7"/><path class="cls-3" d="M108.39,62.64c.21-.77,.52-1.81,1-3,.33-.82,.94-2.35,2-4,.76-1.19,2.79-4.37,4-4,.5,.15,.82,.91,1,3,.19,2.3,.17,5.71-1,10"/><path class="cls-3" d="M115.39,51.64c-.67,1.67-1.33,3.33-2,5-1.33,3.33-2.67,6.67-4,10"/><path class="cls-3" d="M108.39,72.64c1.16-3.22,2.87-5.03,4-6,.87-.74,1.65-1.21,3-2,2.97-1.74,4.44-2.64,6-3,3.81-.88,5.09,1.21,9,0,1.81-.56,2.64-1.35,3-1,.66,.64-1.02,4.41-4,7-4.06,3.53-6.67,1.52-10,5-1.99,2.08-2.49,4.29-5,5-1.18,.33-2.26,.18-3,0"/><path class="cls-3" d="M126.39,61.64c.83-.35,1.96-.95,3-2,2.25-2.28,2.43-5.04,3-5,.36,.03,.77,1.17,1,6"/><path class="cls-3" d="M133.39,55.64c1.31-.29,2.31-.68,3-1,.68-.31,2.67-1.34,2-1h0c.79-.21,1.76-.38,2,0,.27,.44-.56,1.44-2,3-1.15,1.25-2.83,2.98-5,5"/><path class="cls-3" d="M128.39,68.64c.99-.32,3.41-.94,6,0,1.78,.64,2.74,1.69,3,2,.55,.64,1.14,1.31,1,2-.2,.99-1.78,1.4-4,2-3.12,.85-6.02,1.69-7,2-1.79,.57-4.27,1.67-7,4"/><path class="cls-3" d="M107.39,79.64c1.36-.05,3.05-.08,5,0,2.93,.12,3.15,.34,9,1,3.7,.42,4.9,.48,5,1,.12,.63-1.4,1.7-3,2-2.29,.44-3.37-.96-6-1-1.62-.02-3,.48-4,1"/><path class="cls-3" d="M118.39,82.64c1.09,.6,2.54,1.54,4,3,.88,.88,2.01,2.2,3,4"/><path class="cls-3" d="M119.39,89.64c1,.67,2,1.33,3,2"/><path class="cls-3" d="M86.39,60.64c.51-1.03,1.43-2.57,3-4,1.72-1.56,2.82-1.71,4-3,1.61-1.76,1.78-3.94,2-6,.33-3.09,.9-7.3,2-13"/><path class="cls-3" d="M85.39,56.64c2.05-3.56,3.73-6.63,5-9,5.07-9.49,3.58-7.84,7-14,1.37-2.46,2.42-4.2,3-7,.55-2.67,.31-4.59,0-7-.35-2.73-.8-2.97-1-3-.41-.05-.82,.67-1,1-1.5,2.72,.03,4.82-1,7-.79,1.66-1.86,.82-4,3-1.73,1.76-2.49,3.84-4,8-.45,1.25-.79,2.29-1,3"/><path class="cls-3" d="M86.39,47.64c1.67-3.63,3.34-7.3,5-11,1.35-3.01,2.69-6.01,4-9"/><path class="cls-3" d="M100.39,20.64c.58-1.68,.85-2.03,1-2,.35,.07,.23,2.37,0,4-.24,1.69-.66,3.06-1,4"/><path class="cls-3" d="M101.39,23.64c.51,.39,1.27,1.05,2,2,2.81,3.68,3,8.98,3,9h0l1,1c1.52-1.69,3.29-3.41,4-3,.57,.33,.23,1.93,0,3-.21,1-.8,3.55-3,6-1.35,1.5-2.83,2.43-4,3"/><path class="cls-3" d="M97.39,41.64c.58,.58,2.95,3.12,3,7,.01,.94,0,3.65-2,6-2.6,3.05-6.44,3.01-7,3"/><path class="cls-3" d="M88.39,59.64c.47-.6,1.12-1.32,2-2,1.51-1.17,3-1.72,4-2"/><path class="cls-3" d="M97.39,41.64c.65-.1,2.85-.35,5,1,.51,.32,2.54,1.6,3,4,.16,.82,.09,1.53,0,2"/><path class="cls-3" d="M101.39,56.64c.71-.8,1.85-2.16,3-4,2.86-4.57,2.28-6.46,5-11,2.2-3.67,3.12-3.33,4-6,.66-2,1.4-3.98,2-6,.27-.92,.58-2,1-2,.3,0,.58,.55,1,2,.36,1.24,.92,3.16,1,5,.13,2.75-.68,7.85-3,14"/><path class="cls-3" d="M114.39,32.64c.09-2.28-.38-3.91-1-4-.68-.1-1.81,1.44-2,3-.05,.4-.03,.74,0,1"/><path class="cls-3" d="M109.39,50.64c.96,.05,2.34,.08,4,0,2.72-.13,4.1-.22,5-1,1.1-.96,.65-1.83,2-3,.95-.83,2.44-1.48,3-1,.47,.4,.15,1.48,0,2-.46,1.55-1.64,2.67-2,3-.57,.52-1.07,.84-1,1,.12,.25,1.39-.46,2,0,.38,.29,.56,1.06,0,3"/><path class="cls-3" d="M116.39,52.64c.86,.82,2.22,1.84,4,2,1.55,.14,2.72-.43,3,0,.18,.28,0,.99-2,3"/><path class="cls-3" d="M117.39,58.64c2.18-.99,3.96-1.06,5-1,.41,.02,2.84,.17,3,1,.12,.63-1.1,1.42-2,2-.76,.49-1.47,.8-2,1"/><path class="cls-3" d="M116.39,46.64c1.5-1.97,2.97-2.7,4-3,2.27-.67,2.8,.57,6,0,.32-.06,1.88-.37,5-1,.93-.19,1.77-.36,2,0,.23,.36-.27,1.11-1,2-2.11,2.6-4,4-4,4-1.48,1.1-3.52,2.71-6,5"/><path class="cls-3" d="M127.39,49.64c3.33-.47,3.93-.23,4,0,.15,.51-2.2,1.62-3,2-2.38,1.13-4.5,1.69-6,2"/><path class="cls-3" d="M118.39,38.64c1.76-.34,3.14-.18,4,0,.76,.16,1.86,.39,2,1,.13,.56-.66,.92-1,2-.24,.77-.13,1.5,0,2"/><path class="cls-3" d="M36.39,29.64c-.23-.67-.43-1.55,0-2,1.21-1.28,6.91,1.51,11,5,3.34,2.85,5.27,5.94,9,12,1.75,2.85,3.09,5.28,4,7"/><path class="cls-3" d="M39.39,34.64c3.68,2.58,5.34,4.24,5,5-.28,.63-1.95,.63-5,0"/><path class="cls-3" d="M46.39,40.64c1.82,1.01,3.88,2.31,6,4,3.03,2.41,5.32,4.89,7,7"/><path class="cls-3" d="M56.39,53.64c-2.35-.67-5.07-1.62-8-3-2.74-1.3-5.08-2.69-7-4"/><path class="cls-3" d="M49.39,62.64c1.1,0,2.62-.15,3-1,.37-.84-.57-1.89-2-4-.83-1.22-1.89-2.9-3-5"/><path class="cls-3" d="M52.39,61.64c1.07,1.57,2.16,2.46,3,3,.45,.29,.94,.55,1,1,.09,.72-.99,1.46-2,2"/><path class="cls-3" d="M44.39,21.64c.67,1.01,1.42,2.34,2,4,1,2.84,1.08,5.37,1,7"/><path class="cls-3" d="M44.39,21.64c1.3,.49,3.18,1.38,5,3,2.37,2.11,3.43,4.39,5,8,1.99,4.57,3.65,8.61,5,12"/><path class="cls-3" d="M49.39,24.64c-.96-2.44-1.9-5.38-1-6,.28-.19,.65-.11,1,0,2.51,.76,4.84,2.85,6,4"/><path class="cls-3" d="M63.39,43.64c-.79-1.61-1.7-4-2-7-.15-1.51-.11-2.86,0-4"/><path class="cls-3" d="M65.39,38.64c-1.87-6.19-4.17-8.79-6-10-.53-.35-2-1.23-3-3-.89-1.58-.97-3.1-1-4-.05-1.32-.13-3.33,1-4,.45-.26,.96-.24,2,0,1.67,.39,3.05,.72,5,2,1.79,1.18,3.85,2.53,5,5,1.04,2.24,.36,3.29,1,8,.3,2.16,.71,3.9,1,5"/><path class="cls-3" d="M68.39,24.64c.36-1.44,.97-3.55,2-6,1.56-3.71,4.6-9.42,6-9,.62,.19,.47,1.45,1,6,.57,4.89,.91,4.88,1,7,.21,4.91-1.46,8.79-2,10-2.14,4.83-4.41,5.28-6,10-.81,2.4-.98,4.55-1,6"/><path class="cls-3" d="M63.39,41.64l3-4c.69,.78,2.14,2.63,2,5-.05,.79-.26,1.53-1,3-.77,1.52-2.01,3.65-4,6"/><path class="cls-3" d="M61.39,51.64c-.17-.92-.3-2.33,0-4,.23-1.26,.64-2.28,1-3"/><path class="cls-3" d="M56.39,53.64v3"/><path class="cls-3" d="M59.39,58.64c-.33-1-.67-2-1-3"/><path class="cls-3" d="M58.39,55.64l2,1"/><path class="cls-3" d="M77.39,15.64c1.05,2.47,1.64,3.07,2,3,.57-.12,.52-1.96,1-2,.37-.03,.82,1.03,1,2,.33,1.75-.3,2.83,0,3,.41,.23,1.71-1.73,4-4,1.44-1.43,3.63-3.31,4-3,.5,.42-2.46,4.66-2,5,.27,.2,1.24-1.24,2-1,.92,.29,.73,2.8,1,6,.22,2.56,.65,4.62,1,6"/><path class="cls-3" d="M97.39,20.64c-.91,.71-1.98,1.68-3,3-1.75,2.26-2.59,4.5-3,6"/><path class="cls-3" d="M76.39,35.64c1.83-.76,3.86-1.74,6-3,2.81-1.66,5.14-3.4,7-5"/><path class="cls-3" d="M83.39,28.64c1.09-4.17,1.67-5.04,2-5,.53,.06,1.28,2.51,0,4-.71,.82-1.7,.97-2,1Z"/><path class="cls-3" d="M76.39,41.64c1.21-.09,3.57-.44,6-2,3.18-2.04,4.54-4.89,5-6"/><path class="cls-3" d="M87.39,39.64c.16,.45,.16,.79,0,1-.44,.59-2.11,.25-5-1"/><path class="cls-3" d="M71.39,51.64c1.11-.68,1.68-1.43,2-2,.46-.82,.44-1.38,1-2,.59-.65,1.4-.9,2-1"/><path class="cls-3" d="M80.39,44.64c.89-.22,1.91-.53,3-1,.75-.32,1.41-.66,2-1"/><path class="cls-3" d="M90.39,47.64c.64-.36,1.66-.83,3-1,.78-.1,1.46-.07,2,0"/><path class="cls-3" d="M89.39,49.64c.46-.33,1.13-.73,2-1,1.77-.54,3.31-.2,4,0"/><path class="cls-3" d="M85.39,76.64c.47-.6,1.12-1.32,2-2,1.51-1.17,3-1.72,4-2"/><path class="cls-3" d="M79.39,49.64c-.4,.43-.9,1.11-1,2-.13,1.18,.52,2.03,1,3,.73,1.46,.82,2.66,1,5,0,0,.26,3.39-1,8-.24,.87-.56,2.03-.94,2.86-.03,.06-.07,.14-.06,.14,.05,.03,1.88-2.09,3-5,1.2-3.11,1.07-5.77,1-7-.25-4.28-1.98-7.44-3-9Z"/><path class="cls-3" d="M86.39,47.64c-.24,.62-.56,1.3-1,2-1.26,2.04-2.88,3.29-4,4"/><path class="cls-3" d="M82.39,54.64c1.12-1.47,2.21-2.41,3-3,1.03-.77,1.88-1.18,2-2,.11-.78-.49-1.51-1-2"/><path class="cls-3" d="M83.39,49.64c-.29-.19-.71-.19-1,0-.62,.4-.62,1.6,0,2,.29,.19,.71,.19,1,0,.62-.4,.62-1.6,0-2Z"/><path class="cls-3" d="M76.39,83.64c-1.12-1.83-2.21-3.14-3-4,0,0-.42-.45-3-3h0l-1,1c1.67,2.67,3.33,5.33,5,8"/><path class="cls-3" d="M72.39,78.64c1.17-1.59,1.72-3.06,2-4,.41-1.4,1.13-3.87,0-5-.41-.41-.98-.55-1-1-.02-.44,.49-.95,1-1,1.05-.1,1.92,1.81,2,2,.44,1,.6,2.22,0,5-.33,1.53-.91,3.61-2,6"/><path class="cls-3" d="M77.39,71.64c.62,.62,1.44,1.61,2,3,1.3,3.19,.32,6.14,0,7"/><path class="cls-3" d="M82.39,80.64c.03-1-.05-2.89-1-5-.93-2.06-2.24-3.35-3-4"/><circle class="cls-3" cx="83.39" cy="64.64" r="1"/><path class="cls-3" d="M58.39,51.64c-.3-.04-1.93-.26-2,0-.05,.21,1,.5,1,1s-1.06,.79-1,1c.05,.18,.86,.08,2,0,1.66-.12,2.51-.17,3,0,1.09,.38,1.38,1.16,2,1,.62-.16,.7-1.03,1-1,.43,.05,.23,1.92,1,4,.61,1.67,1.71,3.12,2,3,.09-.04,.11-.23,0-1-.22-1.56-.37-2.62-1-4-.66-1.44-1.06-2.32-2-3-.84-.61-1.13-.36-6-1Z"/><path class="cls-3" d="M66.39,47.64c1.06,.74,2.62,2.01,4,4,.65,.94,1.54,2.22,2,4,1.14,4.42-1.3,8.22,0,9,.41,.25,.94,.03,1,0,.7-.31,1-1.31,1-6,0-4.39-.26-5.34-1-6-.59-.53-.74-.2-2-1-.44-.28-1.85-1.22-3-3-.49-.75-.8-1.46-1-2"/><path class="cls-3" d="M67.39,71.64c-.07-.03-.18-.09-.31-.16-.34-.19-1.35-.77-1.69-1.84-.08-.25-.24-.76,0-1,.24-.24,.75-.12,1,0,1.13,.52,1.01,2.78,1,3Z"/><path class="cls-3" d="M61.39,56.64c.62,.99,.95,1.99,1,3,.02,.43-.03,.56,0,1,.08,1.44,.71,2.49,1,3,.54,.97,1.24,2.49,2,5"/><path class="cls-3" d="M66.39,68.64c-.24-2.07-.64-3.75-1-5-.23-.79-.51-1.75-1-3-.62-1.58-.95-2-1-3-.06-1.13,.3-1.78,0-2-.22-.15-.73-.05-2,1"/><path class="cls-3" d="M69.39,69.64c.54-.82,1.48-2.02,3-3,.72-.47,1.41-.78,2-1"/><path class="cls-3" d="M69.39,69.64c-1.1-1.43-1.17-2.38-1-3,.24-.86,.93-1.05,1-2,.06-.72-.25-1.7-1-2-.39-.15-.78-.07-1,0"/><path class="cls-3" d="M67.39,62.64v2"/><path class="cls-3" d="M61.39,68.64c1.31,2.48,2.3,3.04,3,3,.32-.02,.62-.16,1,0,.64,.27,1.01,1.2,1,2-.02,1.46-1.26,2.05-1,3,.14,.51,.62,.82,1,1"/><path class="cls-3" d="M66.39,77.64c-.57-.34-1.24-.69-2-1-1.52-.62-2.91-.89-4-1"/><path class="cls-3" d="M56.39,66.64c.63,.79,.89,1.55,1,2,.18,.7,.36,1.41,0,2-.36,.59-.97,.6-1,1-.02,.37,.49,.64,1,1,.56,.4,1.29,1.02,2,2"/><path class="cls-3" d="M58.39,66.64c-.08,1.19,.51,1.99,1,2,.37,0,.77-.43,1-1"/><path class="cls-3" d="M50.39,51.64c.11,2.24,.58,2.87,1,3,.35,.11,.6-.15,1,0,.55,.21,.61,.88,1,2,.42,1.2,.96,2.72,2,3,.42,.11,.52-.09,1,0,1.11,.2,1.75,1.5,2,2,1.4,2.77,3.69,6.12,4,6,.22-.09-.18-2.06-1-4-.68-1.62-1.79-3.08-4-6-.81-1.06-1.24-1.58-2-2-.82-.46-1.38-.44-2-1-.65-.59-.9-1.4-1-2"/><path class="cls-3" d="M86.39,68.64c-1.16-.06-2.87,3.03-2,5,.19,.43,.6,1.05,1,1,.38-.04,.45-.65,1-2,.75-1.86,1.24-2.27,1-3-.14-.42-.53-.97-1-1Z"/><path class="cls-3" d="M96.39,60.64c-.46,.49-1.13,1.19-2,2-2.24,2.09-2.74,2.08-3,2-.16-.05-.77-.3-1-2"/><path class="cls-3" d="M67.39,84.64c-.12,.39-.3,1.17,0,2,.57,1.57,2.49,2.41,3,2,.56-.46-.68-2.46,0-3,.25-.2,.65-.12,1,0"/><path class="cls-3" d="M68.39,77.64c-.34,.16-1.44,.72-2,2-.14,.32-.8,1.8,0,3,.72,1.08,2.39,1.57,3,1,.45-.42,.31-1.39,0-2-.3-.59-.78-.88-1-1"/><path class="cls-3" d="M39.39,63.64c-.03,.23-.06,.59,0,1,.15,1.01,.75,1.71,2,3,.91,.94,1.52,1.53,2,2,2.71,2.66,3.42,3.79,5,4,.43,.06,.79,.03,1,0"/><path class="cls-3" d="M39.39,63.64c.6,.1,1.41,.35,2,1,.56,.62,.53,1.16,1,2,.39,.7,.85,1.09,2,2,1.11,.87,2.45,1.89,4,3"/><path class="cls-3" d="M50.39,71.64c-.21,.17-.09,.64,0,1,.37,1.42,1.85,1.95,2,2,.66,.23,1.83,.38,2,0,.35-.76-3.32-3.56-4-3Z"/><path class="cls-3" d="M42.39,69.64c-1.01,1.35-1.14,1.85-1,2,.15,.17,.55-.16,1,0,.39,.14,.59,.55,1,2,.55,1.96,.51,2.36,1,3,.39,.51,.52,.38,1,1,.49,.63,.61,1.11,1,2,.21,.49,.54,1.19,1,2"/><path class="cls-3" d="M44.39,73.64c.76,.09,1.87,.33,3,1,1.17,.69,2.17,1.72,2,2-.15,.26-1.12-.43-2,0-.68,.33-1.16,1.26-1,2,.24,1.11,1.88,1.64,3,2,1.7,.55,2.5,.3,3,1,.43,.6,.45,1.62,0,2-.49,.41-1.74,.26-5-2"/><path class="cls-3" d="M54.39,81.64c-.68,.33-.91,2.09,0,3s2.67,.68,3,0c.32-.68-.79-1.79-1-2s-1.32-1.32-2-1Z"/><path class="cls-3" d="M63.39,89.64c-.88-.29-1.72,.37-2,1-.12,.28-.23,.78,0,1,.19,.18,.48,.06,1,0,1.27-.15,1.76,.28,2,0,.31-.37-.01-1.67-1-2Z"/><path class="cls-3" d="M58.39,79.64c.69,.49,1.72,1.19,3,2,2.14,1.35,3.71,2.32,4,2,.3-.33-.89-1.86-1-2-1.29-1.65-2.88-2.53-4-3"/><path class="cls-3" d="M55.39,74.64c3.4,1.03,5.06,1.69,5,2-.05,.26-1.39,.26-4,0"/><path class="cls-3" d="M50.39,88.64c1.93-.25,2.93-.25,3,0,.08,.28-1.08,.76-1,1,.12,.36,2.82-.45,3,0,.09,.23-.51,.73-1,1-1.54,.85-3.34,.25-4,0"/><path class="cls-3" d="M45.39,81.64c-.18,.72-.18,1.39,0,2,.29,.95,.81,1.08,1,2,.2,.99-.29,1.39,0,2,.18,.39,.67,.83,2,1"/><path class="cls-3" d="M45.39,81.64c.62-.21,.88-.12,1,0,.35,.35-.35,1.15,0,2,.19,.47,.51,.47,1,1,.35,.37,.77,.98,1,2"/><path class="cls-3" d="M38.39,82.64c-1.15,.2-2,.61-2,1,0,.44,1.04,1.04,2,1,.47-.02,.78-.19,1,0,.26,.22,.25,.8,0,1-.24,.19-.52-.09-1,0-.62,.12-1.11,.78-1,1,.17,.33,1.68-.43,2,0,.17,.23,0,.78-1,2"/><path class="cls-3" d="M40.39,84.64c.4,.31,1.07,.75,2,1,1.34,.36,2.47,.14,3,0"/><path class="cls-3" d="M58.39,85.64c-.44,.3-.32,1.34,0,2,.12,.24,.4,.82,1,1,.84,.26,1.9-.37,2-1,.16-1.05-2.27-2.5-3-2Z"/><path class="cls-3" d="M69.39,91.64c1.41-.69,2.65-.57,3,0,.06,.1,.21,.4,0,1"/><path class="cls-3" d="M67.39,88.64l2,2"/><path class="cls-3" d="M64.39,84.64c-.08,.16-.78,1.66,0,3,.3,.52,.72,.83,1,1"/><path class="cls-3" d="M69.39,70.64c-.07,.63-.17,2.44,1,4,.32,.43,.68,.76,1,1"/><path class="cls-3" d="M89.39,63.64c.4,1.24-.07,2.5-1,3-.89,.48-1.86,.06-2,0"/></g><g><path class="cls-1" d="M353.8,25.75c-.84,.93-2.65,3.01-3.12,6.24-.22,1.49-.74,5.09,1.56,7.02,2.4,2.03,6.54,1.11,8.58-.78,.34-.32,1.01-1.52,2.34-3.9,2.02-3.63,2.23-4.3,2.34-4.68,.48-1.67,1.07-3.72,0-5.46-1.33-2.17-4.27-2.33-4.68-2.34-3.4-.13-5.8,2.54-7.02,3.9Z"/><path class="cls-1" d="M350.29,42.53c-1.42,.54-2.25,1.43-3.12,2.34-.78,.82-2.52,2.65-3.12,5.46-.2,.93,.12,2.97,.78,7.02,.53,3.3,.75,4.14,1.56,4.68,1.32,.88,3.16,.25,3.9,0,2.1-.71,3.27-2.26,3.9-3.12,1.18-1.6,1.57-3.15,2.34-6.24,.77-3.07,.79-4.73,.78-5.46-.03-2-.04-3.03-.78-3.9-1.41-1.67-4.38-1.5-6.24-.78Z"/><path class="cls-1" d="M344.05,64.38c-2.11,.39-3.45,1.85-3.9,2.34-.68,.74-.58,.92-1.56,2.34-1.82,2.64-2.48,2.48-3.12,3.9-.97,2.15-.31,4.4,0,5.46,.42,1.44,.89,3.05,2.34,3.9,2.37,1.39,5.48-.35,6.24-.78,1.53-.85,2.33-1.88,3.9-3.9,1.78-2.29,2.73-3.51,3.12-5.46,.21-1.04,.68-3.42-.78-5.46-1.46-2.04-4.15-2.73-6.24-2.34Z"/><path class="cls-1" d="M331.56,85.46c-.32,.24-1.11,.87-2.34,1.56-.88,.49-1.17,.56-1.56,.78-1.58,.89-2.13,2.74-3.12,6.24-.53,1.88-.8,2.82-.78,3.9,.02,1.1,.05,3.17,1.56,4.68,1.52,1.53,3.61,1.56,3.9,1.56,2.55,0,4.3-1.84,7.02-4.68,1.69-1.76,2.99-3.15,3.9-5.46,.51-1.3,1.25-3.16,.78-5.46-.13-.65-.77-3.77-3.12-4.68-2.67-1.03-6.01,1.39-6.24,1.56Z"/><path class="cls-1" d="M321.41,104.97c-1.6,.96-2.34,2.34-2.34,2.34-.5,.92-.3,1.23-.78,2.34-.26,.6-.51,.95-2.34,3.12-1.88,2.23-2.12,2.46-2.34,3.12-.47,1.44-.11,2.75,0,3.12,.5,1.71,1.95,3.54,3.9,3.9,1.25,.23,2.39-.37,4.68-1.56,1.53-.8,3.02-1.58,4.68-3.12,.97-.9,2.77-2.62,3.9-5.46,.79-1.98,1.5-3.78,.78-5.46-1.37-3.2-7.14-4.14-10.15-2.34Z"/><path class="cls-1" d="M310.49,126.04c.56-.45,1.94-1.42,3.9-1.56,.45-.03,3.41-.24,4.68,1.56,1.34,1.9-.07,4.8-.78,6.24-1.71,3.5-4.6,5.27-6.24,6.24-3.11,1.85-7.78,3.51-8.58,2.34-.5-.73,.76-2.15,2.34-4.68,1.84-2.94,3.45-6.29,4.68-10.15Z"/><path class="cls-1" d="M371.36,55.8c-.9-.13-2.99-.42-4.68,.78-.63,.45-.98,.94-2.34,3.9-1.35,2.92-2.02,4.39-2.34,5.46-.76,2.57-1.24,4.2-.78,6.24,.2,.89,.77,3.44,3.12,4.68,2.52,1.34,5.15,.15,5.46,0,.89-.42,1.62-1.04,3.9-4.68,2.48-3.96,3.72-5.98,3.9-7.8,.11-1.07,.4-3.99-1.56-6.24-1.66-1.91-3.97-2.24-4.68-2.34Z"/><path class="cls-1" d="M363.56,78.43c-.54-.15-2.09-.56-3.9,0-1.99,.62-3.07,2.03-3.9,3.12-1.51,1.98-1.98,3.9-2.34,5.46-.61,2.64-1.07,4.62,0,6.24,.3,.45,1.24,1.08,3.12,2.34,2.11,1.42,2.65,1.55,3.12,1.56,.82,.02,1.66-.31,3.12-1.56,1.93-1.65,4.48-3.84,5.46-7.8,.42-1.67,.86-3.48,0-5.46-1.26-2.89-4.28-3.79-4.68-3.9Z"/><path class="cls-1" d="M354.97,94.82c-3.04-.02-5.58,3.45-6.24,6.24-.5,2.11,.24,3.13-.78,5.46-.73,1.66-1.42,1.87-1.56,3.12-.28,2.54,2.23,4.6,2.34,4.68,2.03,1.61,4.87,1.77,7.02,.78,2.36-1.08,3.3-3.28,3.9-4.68,.94-2.2,.89-4.07,.78-7.8-.1-3.43-.59-4.36-.78-4.68-.82-1.42-2.58-3.11-4.68-3.12Z"/><path class="cls-1" d="M348.73,115.89c-1.54-.32-2.85,.57-5.46,2.34-3.37,2.28-5.07,3.43-5.46,5.46-.37,1.89,.72,2.86,0,5.46-.38,1.37-.78,1.47-.78,2.34,0,2.04,2.23,4.18,4.68,4.68,1.94,.4,4.08-.21,5.46-1.56,1.72-1.67,.84-3.09,2.34-7.02,1.59-4.16,3.37-4.66,3.12-7.02-.22-2.08-1.87-4.26-3.9-4.68Z"/><path class="cls-1" d="M336.24,135.4c-2.49,.58-3.7,3.43-3.9,3.9-.54,1.26-.2,1.48-.78,3.9-.2,.85-.35,1.28-1.56,4.68-1.58,4.43-1.7,4.77-1.56,5.46,.39,1.88,2.15,3.38,3.9,3.9,2.72,.82,5.11-.8,6.24-1.56,3.26-2.21,4.27-5.63,4.68-7.02,.52-1.75,1.92-6.51-.78-10.15-1.14-1.53-3.65-3.73-6.24-3.12Z"/><path class="cls-1" d="M380.73,33.95c-2.33-.66-4.5,.67-4.68,.78-1.13,.71-1.16,1.31-3.12,3.9-2.16,2.85-2.46,2.57-3.12,3.9-1.31,2.62-.92,5.27-.78,6.24,.27,1.84,.69,4.7,3.12,6.24,2.13,1.35,4.46,.83,4.68,.78,2.49-.59,3.79-2.68,5.46-5.46,2.01-3.35,3.56-5.93,3.12-9.36-.05-.38-.83-5.93-4.68-7.02Z"/><path class="cls-1" d="M379.94,25.36c.02,.86,.12,3.86,2.34,6.24,.58,.62,2.49,2.67,4.68,2.34,2.39-.36,3.73-3.34,4.68-5.46,1.6-3.57,.65-4.59,2.34-7.02,1.57-2.25,3.31-2.71,3.12-3.9-.21-1.34-2.62-1.99-3.9-2.34-1.52-.41-4.17-1.13-7.02,0-4.2,1.66-6.32,6.3-6.24,10.15Z"/><path class="cls-1" d="M369.02,25.36c-.14,1.21-.38,3.12-.78,5.46-.75,4.37-1.42,6.56-2.34,10.93-1,4.71-.66,4.27-1.56,8.58-1.15,5.53-1.97,9.47-3.9,14.05-1.84,4.36-2.32,3.68-5.46,10.15-1.14,2.34-1.11,2.5-4.68,10.93-.19,.45,.03-.08-4.68,10.93-4.68,10.92-4.67,10.9-4.68,10.93-4.91,9.05-8.74,9.11-11.71,17.17-.92,2.49-.99,3.66-2.34,6.24-1.41,2.68-2.99,4.56-7.02,8.58-6.58,6.56-9.87,9.84-12.49,10.93-4.06,1.68-5.46,.74-9.36,3.12-1.59,.97-4.5,2.8-6.24,6.24-1.12,2.22-1.16,3.94-1.56,3.9-.57-.05-1.33-3.47,0-6.24,.48-1,.84-1.11,1.56-2.34,1.04-1.78,1.41-3.5,1.56-4.68"/><path class="cls-1" d="M369.02,25.36c.05-1.13,.08-2.75,0-4.68-.12-2.85-.19-4.39-.78-6.24-.9-2.84-1.71-2.25-2.34-4.68-.59-2.26-.02-3.29-.78-7.02-.1-.5-.48-2.37-.78-2.34-.32,.03-.04,2.11-.78,4.68-.3,1.04-.61,1.62-2.34,4.68-1.95,3.45-2.93,5.18-3.12,5.46-1.89,2.84-2.67,3.24-4.68,6.24-1.09,1.63-1.87,3.03-2.34,3.9"/><path class="cls-1" d="M350.29,24.58c.03,.78,.08,1.4,0,2.34-.21,2.49-1.02,4.26-1.56,5.46-2.65,5.92-1.85,5.29-3.9,9.36-2.37,4.71-2.71,4.1-3.9,7.02-1.82,4.45-.66,4.94-2.34,9.36-1.6,4.21-2.9,4.4-4.68,9.36-.61,1.71-.32,1.29-1.56,5.46-.87,2.93-1.74,5.83-3.12,9.36-.55,1.4-1.59,3.94-3.12,7.02-1.45,2.9-1.7,3.02-4.68,8.58-2.17,4.06-2.72,5.27-3.12,7.02-.53,2.31-.18,2.76-.78,4.68-.92,2.96-2.32,3.73-3.9,6.24-2.01,3.2-.84,3.72-3.12,10.15-.58,1.63-1.8,4.84-3.9,8.58-.84,1.51-2.29,4.05-4.68,7.02-1.61,1.99-3.41,3.67-7.02,7.02-1.61,1.49-4.5,4.12-8.58,6.24-.97,.51-2.14,1.05-2.34,.78-.31-.41,1.78-2.55,2.34-3.12,1.8-1.84,2.45-1.99,3.12-3.12,.74-1.25,.82-2.57,.78-3.9-.25-7.73-4.7-13.58-2.34-18.73,.6-1.31,.79-.72,2.34-3.12,2.71-4.21,3.43-8.05,3.9-10.15,.8-3.53,2.87-8.08,7.02-17.17,3.17-6.95,3.35-6.17,6.24-12.49,4.79-10.47,3.37-10.58,7.02-17.95,4.72-9.51,7.57-10.3,10.15-18.73,1.07-3.49,.87-4.31,2.34-8.58,2.09-6.08,4.51-10.29,6.24-13.27,2.72-4.68,4.08-7.01,6.24-8.58,.65-.47,.5-.28,6.24-3.9,2.87-1.81,3.89-2.48,4.68-3.9,.67-1.21,1.38-3.36,1.56-3.9,.53-1.63,.62-2.35,.78-2.34,.32,.03,.61,3.07,0,6.24-.45,2.34-.9,2.2-1.56,4.68-1.07,4.01-.9,8.09-.78,10.93Z"/><path class="cls-1" d="M376.04,25.36c1.06-4.53,.5-4.6,1.56-7.8,1.11-3.37,2.93-8.88,7.02-10.15,2.62-.81,3.55,.93,6.24,0,4.09-1.41,5.38-6.59,6.24-6.24,.22,.09,.31,.48,0,5.46-.15,2.46-.21,3.01,0,3.9,.49,2.04,1.76,3.14,2.34,3.9,2.64,3.43-.64,10.48-1.56,12.49-4.74,10.27-8.41,21.01-13.27,31.22-.58,1.23,.07-.11-8.58,20.29-11.56,27.28-17.41,41.03-20.29,46.82-5.28,10.6-7.17,13.15-10.15,21.07-1.89,5.02-4.61,9.72-6.24,14.83-1.19,3.71-2.18,7.72-5.46,9.36-1.18,.59-2.59,.84-3.9,2.34-1.62,1.85-1.57,3.89-2.34,3.9-.68,.01-1.49-1.6-1.56-3.12-.08-1.77,.89-2.31,.78-3.9-.1-1.41-.94-2.08-1.56-3.12-.9-1.52-.62-3.89,0-8.58,.49-3.7,.91-6.84,2.34-10.93,.47-1.35,.47-1.13,1.56-3.9,.25-.64,2.28-5.79,3.9-10.93,2.42-7.65,1.38-7.15,3.12-11.71,2.09-5.47,3.28-5.39,5.46-10.93,1.95-4.95,1.51-6.31,3.12-11.71,1.34-4.48,2.26-5.59,6.24-14.05,2.63-5.58,1.35-3.25,8.58-19.51,3.62-8.14,5.43-12.21,7.02-15.61,2.33-4.96,3.09-6.37,4.68-10.15,2.15-5.08,3.57-8.51,4.68-13.27Z"/><path class="cls-1" d="M374.48,39.41c.26-.35,1.03-1.27,2.34-1.56,1.26-.28,2.9,.04,3.12,.78,.23,.75-1.11,1.51-.78,2.34,.12,.31,.31,.24,.78,.78,.32,.37,.8,.94,.78,1.56-.03,.74-.74,.84-.78,1.56-.04,.7,.62,.74,.78,1.56,.17,.88-.5,1.27-.78,3.12-.11,.72-.02,.77,0,.78,.24,.09,1.06-1.42,1.56-2.34,.31-.56,.53-.97,.78-1.56,.28-.64,.65-1.51,.78-2.34,.34-2.12-1.11-2.69-.78-4.68,.21-1.3,1.01-2.17,.78-2.34-.19-.15-.66,.56-1.56,.78-1.24,.3-1.99-.65-3.12-.78-.88-.1-2.16,.26-3.9,2.34Z"/><path class="cls-1" d="M376.04,43.31c-.35,.14-.35,1.42,0,1.56,.23,.09,.78-.25,.78-.78s-.55-.87-.78-.78Z"/><path class="cls-1" d="M370.58,48.78c-.27,.27-.16,.71,0,.78,.25,.11,.89-.54,.78-.78-.07-.16-.51-.27-.78,0Z"/><path class="cls-1" d="M375.26,54.24c-.19,.14-.16,.55,0,.78,.37,.54,1.5,.28,1.56,0,.07-.32-1.18-1.07-1.56-.78Z"/><path class="cls-1" d="M377.6,53.46v-.78"/><path class="cls-1" d="M366.68,58.14c.02,.26,1.24-.02,2.34,.78,.61,.45,.94,1.04,1.56,3.12,.82,2.74,1.5,5.04,.78,5.46-.46,.27-1.25-.35-1.56,0-.18,.2-.05,.56,0,.78,.32,1.27-.46,2.58-.78,3.12-1.13,1.9-3.94,1.69-3.9,2.34,.02,.44,1.33,.8,2.34,.78,1.08-.02,1.9-.48,2.34-.78,1.11-.77,1.42-1.72,2.34-3.9,1.72-4.06,1.96-3.82,2.34-5.46,.43-1.85,.75-3.27,0-4.68-.91-1.71-2.76-2.24-3.12-2.34-2.36-.67-4.72,.41-4.68,.78Z"/><path class="cls-1" d="M366.68,65.16c.12,.03,.14,.48,.17,1.37,.04,1.07,.06,1.67-.17,1.75-.21,.07-.61-.35-.78-.78-.42-1.07,.5-2.41,.78-2.34Z"/><path class="cls-1" d="M362.78,73.75c.49-.22,1.78,1.07,1.56,1.56-.14,.32-1.03,.53-1.56,0s-.32-1.42,0-1.56Z"/><path class="cls-1" d="M373.7,68.29c-.56,0-1.39,1.69-.78,2.34,.36,.38,1.2,.38,1.56,0,.61-.65-.22-2.34-.78-2.34Z"/><path class="cls-1" d="M375.26,67.51v-.78"/><path class="cls-1" d="M353.41,89.36c.36,.13,1.33-1.05,1.56-2.34,.12-.66-.03-.94,0-1.56,.07-1.3,.83-2.24,1.56-3.12,.96-1.17,2.57-3.12,4.68-3.12,0,0,.28,0,3.12,.78h0s-2.21-1.46-3.9-1.56c-2.81-.17-5.09,3.33-5.46,3.9-1.97,3.02-2.13,6.82-1.56,7.02Z"/><path class="cls-1" d="M356.53,94.82c.21-1.08,1.01-1.68,1.56-1.56,.6,.13,1.1,1.13,.78,1.56-.23,.31-.89,.35-1.56,0"/><path class="cls-1" d="M360.43,94.04c.1,.05,.82,.37,1.56,0,.48-.24,.7-.63,.78-.78"/><path class="cls-1" d="M365.9,90.14c.07,.73-.26,1.36-.78,1.56-.32,.12-.62,.05-.78,0"/><path class="cls-1" d="M367.46,84.68c-.42,1.07-.68,1.59-.78,1.56-.07-.02-.07-.28,0-.78"/><path class="cls-1" d="M364.34,81.55l.78,.78h0l.78-.78"/><path class="cls-1" d="M362.78,67.51v1.56h0c.38,.57,.64,.83,.78,.78,.17-.06,.17-.58,0-1.56"/><path class="cls-1" d="M368.24,61.26h-.78"/><path class="cls-1" d="M352.63,101.06h0c-.21,.17-.49,.43-.78,.78-1.05,1.26-1.32,2.59-1.56,3.9-.21,1.12-.36,2.77,0,4.68,.22,1.16,.62,2.37,.78,2.34,.18-.03-.27-1.71,0-3.9,.13-1.05,.61-2.27,1.56-4.68,1.59-4.01,2.01-4.43,2.34-4.68,1.73-1.37,3.78-.83,3.9-1.56,.1-.59-1.15-1.52-2.34-1.56-1.59-.05-3.23,1.49-3.9,3.9"/><path class="cls-1" d="M352.63,109.65c1.09-.39,1.49-.07,1.56,0,.62,.54,.18,2.21-.78,3.12-.57,.54-1.22,.71-1.56,.78"/><path class="cls-1" d="M340.14,122.13s1.08-1.7,2.34-1.56c.35,.04,.46,.19,1.56,.78,1.04,.56,1.24,.58,1.56,.78,1.5,.91,2.44,3.59,1.56,5.46-.52,1.1-1.52,1.6-1.56,1.56-.07-.07,2.73-1.85,3.12-4.68,.06-.45,.23-2.17-.78-3.12-.27-.26-.71-.44-1.56-.78-1.22-.49-1.83-.74-2.34-.78-2.13-.18-3.86,2.39-3.9,2.34Z"/><path class="cls-1" d="M344.05,134.62h.78"/><path class="cls-1" d="M347.95,130.72c-.21,.25-.61,.78-.78,1.56-.15,.68-.07,1.25,0,1.56"/><path class="cls-1" d="M338.58,147.11c-.28-.17-.14-1.63,.78-2.34,.94-.73,2.11-.25,2.34-.78,.15-.36-.42-.53-.78-1.56-.34-.96-.27-2.04-.7-2.96-.04-.08-.08-.16-.08-.16s-.32-.63-.79-1.11c-.36-.37-1.22-1.06-2.33-1.23-1.72-.27-3.09,.84-3.12,.78-.03-.07,1.57-1.48,3.9-1.56,.73-.03,2.07-.07,3.12,.78,1.08,.87,1.24,2.18,1.56,4.68,.02,.17,.18,1.45,0,3.12-.1,.98-.24,2.21-.78,2.34-.48,.12-.77-.76-1.56-.78-.84-.03-1.31,.93-1.56,.78Z"/><path class="cls-1" d="M336.24,152.57c-.16,.19-.42,.47-.78,.78-.5,.43-.79,.55-.78,.78,0,.33,.62,.37,.78,.78,.1,.26,.03,.72-.78,1.56"/><path class="cls-1" d="M336.24,152.57c.25,.21,.78,.61,1.56,.78,.68,.15,1.25,.07,1.56,0"/><path class="cls-1" d="M340.92,149.45c-.17-.09-.44,.38-1.3,.65-.12,.04-.2,.05-.27,.13-.29,.37,.32,1.58,.78,1.56,.61-.02,1.11-2.16,.78-2.34Z"/><path class="cls-1" d="M333.12,147.11c-.17,0-.11,.78-.78,1.56-.43,.5-.83,.61-.78,.78,.07,.25,1.03,.43,1.56,0,.79-.64,.24-2.33,0-2.34Z"/><path class="cls-1" d="M383.07,30.83c.04-.72,2.46-1.5,3.12-.78,.58,.62-.33,2.18,0,2.34,.24,.12,.9-.56,.78-.78-.17-.32-1.73,.67-3.12,0-.12-.06-.8-.39-.78-.78Z"/><path class="cls-1" d="M389.31,29.27c.29-.34,.64-.86,.78-1.56,.1-.49,.03-.72,0-1.56-.06-1.8,.22-1.88,0-2.34-.51-1.06-2.03-.68-2.34-1.56-.27-.77,.57-2,1.56-2.34,.59-.21,.8,.06,1.56,0,1.81-.14,2.8-1.8,3.12-1.56,.26,.19-.21,1.38-.78,2.34-1.11,1.89-1.97,1.85-2.34,3.12-.36,1.25,.35,1.74,0,3.12-.28,1.1-1,1.87-1.56,2.34Z"/><path class="cls-1" d="M383.07,19.9c.44,.3,.85,.62,.78,.78-.07,.18-.76,.12-.78,0-.02-.1,.46-.32,2.34-.78"/><path class="cls-1" d="M383.07,22.24c.39-.06,1.26,1.87,.78,2.34-.18,.18-.56,.14-.78,0-.73-.46-.36-2.29,0-2.34Z"/><path class="cls-1" d="M361.21,26.14c0,.11,0,.29,0,.5,0,.21-.02,.24,0,.28,.06,.14,.39,.22,1.56,0"/><path class="cls-1" d="M362.78,28.49c.48,1.42,.28,2.04,0,2.34-.45,.48-1.19,.22-1.56,.78-.23,.35-.07,.65,0,1.56,.12,1.54-.21,2.25,0,2.34,.19,.09,.74-.41,2.34-3.12"/><path class="cls-1" d="M353.41,38.63c.32-.24,.84-.59,1.56-.78,.35-.09,1.33-.36,1.56,0,.19,.29-.14,.93-.78,1.56"/><path class="cls-1" d="M350.29,46.43c-.28-.04-.28-2.3,0-2.34,.24-.03,.59,1.6,.78,1.56,.12-.03,.12-.75,0-.78-.19-.04-.54,1.6-.78,1.56Z"/><path class="cls-1" d="M351.07,42.53c.39,.1,.99,.3,1.56,.78,.87,.73,1.05,1.58,1.56,1.56,.43-.02,.71-.62,.78-.78,.34-.72,.06-1.42,0-1.56"/><path class="cls-1" d="M348.73,59.7c1.44,.47,2.05,.29,2.34,0,.44-.44,.25-1.28,.78-1.56,.26-.14,.57-.07,.78,0"/><path class="cls-1" d="M340.14,67.51c.43,.22,.8,.49,.78,.78-.03,.41-.82,.61-.78,.78,.04,.16,.79,.19,1.56,0,.17-.04,2.26-.56,2.34-1.56,.04-.53-.52-.67-.78-1.56-.18-.6-.1-1.17,0-1.56"/><path class="cls-1" d="M346.39,65.95c-.17,.39,4.09,1.98,3.9,3.9-.06,.59-.47,.5-.78,1.56-.28,.94-.14,1.66-.65,2.85-.04,.1-.07,.17-.13,.27-.5,.97-1.33,1.42-1.56,1.56-1.9,1.13-2.41,4.26-4.68,4.68-1.28,.24-2.59-.49-3.12-.78-1.34-.74-1.96-1.77-2.34-1.56-.3,.16-.29,.96,0,1.56,.64,1.32,2.68,1.62,3.9,1.56,1.9-.09,3.19-1.12,4.68-2.34,1.35-1.1,3.63-2.96,4.68-6.24,.49-1.53,1.22-3.79,0-5.46-1.24-1.7-3.78-1.85-3.9-1.56Z"/><path class="cls-1" d="M332.34,86.24c-.61,.73-1.44,1.79-2.34,3.12-1.12,1.66-1.86,2.77-1.56,3.12,.29,.34,1.52-.11,2.34-.78,.67-.55,.98-1.15,1.56-2.34,1.03-2.1,.84-2.65,1.56-3.12,.93-.61,1.88-.12,2.34-.78,.31-.44,.17-1.08,0-1.56"/><path class="cls-1" d="M339.36,87.02c-.64,.33-.95,1.01-.78,1.56,.11,.35,.4,.65,.78,.78,.36,.12,.67,.04,.78,0"/><path class="cls-1" d="M331.56,97.94v.78"/><path class="cls-1" d="M326.1,98.72v.78"/><path class="cls-1" d="M336.24,95.6v.78"/><path class="cls-1" d="M356.53,105.75h.78"/><path class="cls-1" d="M315.17,119.79c.05-.08,1.11,1,2.34,.78,.29-.05,.31-.13,1.56-.78,.4-.21,1.04-.54,1.56-.78,1.08-.49,1.28-.38,2.34-.78,1.09-.41,2.78-1.05,3.12-2.34,.11-.41,.05-.77,0-.78-.15-.02,0,2.68-1.56,3.9-.83,.65-1.23,.18-3.12,.78-2.26,.73-2.59,1.7-3.9,1.56-1.44-.16-2.4-1.48-2.34-1.56Z"/><path class="cls-1" d="M328.44,105.75c-.22,.2,.05,1.14,.78,1.56,.62,.36,1.47,.27,1.56,0,.16-.48-1.97-1.89-2.34-1.56Z"/><path class="cls-1" d="M319.07,107.31c.11,.05,.86,.37,1.56,0,.73-.39,1.1-1.37,.78-2.34"/><path class="cls-1" d="M323.75,108.09h.78"/><path class="cls-1" d="M325.32,105.75l.78,.78"/><path class="cls-1" d="M318.29,111.99h.78"/><path class="cls-1" d="M310.49,130.72c.21,.48,1.54,.8,2.34,0s.48-2.13,0-2.34c-.74-.32-2.67,1.61-2.34,2.34Z"/><path class="cls-1" d="M315.95,126.04l.78,.78"/><path class="cls-1" d="M318.29,126.04c-.7,.69-.82,1.21-.78,1.56,.07,.64,.62,.7,.78,1.56,.05,.25,0,.27,0,1.56,0,.33,0,.6,0,.78"/><path class="cls-1" d="M344.83,19.9c-1.49,1.48-3.21,3.53-4.68,6.24-.63,1.17-2.53,4.87-3.12,10.15-.47,4.13,.37,4.74,0,7.8-.32,2.67-1.47,6.5-5.46,10.93"/><path class="cls-1" d="M323.75,56.58c-.24,2.49-.57,6.27-.78,10.93-.3,6.72-.05,8.24,.78,8.58,1.44,.59,4.14-2.54,5.46-4.68,2.23-3.59,2.42-7.3,2.34-9.36"/><path class="cls-1" d="M317.51,77.65c-7.69,6.74-8.94,11.6-8.58,14.83,.24,2.2,1.26,4.03,.78,7.02-.58,3.58-2.88,6.19-4.68,7.8"/><path class="cls-1" d="M292.54,126.04c1.14-.42,3.39-1.1,6.24-.78,3.07,.34,5.24,1.64,6.24,2.34"/></g><g><path class="cls-2" d="M564.23,102.86c-.38-1.54-.77-3.08-1.15-4.62-2.75-.41-15.58-2.63-23.09-13.86-7.09-10.59-4.78-22.2-3.46-28.87,2.59-13.06,9.9-21.34,12.7-24.25,8.4-8.69,17.71-11.79,20.78-12.7,15.65-4.63,28.83,.44,33.48,2.31,14.45,5.8,22.26,16.21,26.56,21.94,4.67,6.22,7.52,12.06,9.24,16.17-5.39,3.46-10.78,6.93-16.17,10.39-1.88-.26-4.12-.84-4.62-2.31-.41-1.23,.63-2.39,1.15-3.46,2.14-4.39-2.54-11.58-5.77-15.01-4.85-5.14-10.64-6.29-19.63-8.08-9.29-1.85-14.3-2.85-19.63,0-.45,.24-8.19,4.53-9.24,12.7-.32,2.49-.06,5.66,2.31,10.39,6.06,12.08,18.22,19,24.25,21.94-1.2,1.23-3.12,2.99-5.77,4.62-3.49,2.14-6.4,2.91-8.08,3.46-3.47,1.15-8.32,3.56-13.86,9.24Z"/><path class="cls-2" d="M575.78,39.36c-1.18,.4-1.72,2.84-1.15,4.62,.39,1.23,1.42,1.99,3.46,3.46,2.04,1.47,3.95,2.84,4.62,2.31,.87-.7-.94-4.2-1.15-4.62-1.25-2.42-4.04-6.37-5.77-5.77Z"/><path class="cls-2" d="M581.55,43.98c.22-.44,.58-.97,1.15-1.15,2.11-.69,5.18,3.76,5.77,4.62,3.15,4.56,4.28,10.01,3.46,10.39-.52,.24-1.46-1.77-4.62-4.62-1.8-1.62-3.46-2.75-4.62-3.46"/><path class="cls-2" d="M594.25,47.44c-1-.03-2.04,2.53-2.31,4.62-.46,3.6,1.28,6.42,2.31,8.08,.74,1.19,2.34,3.78,3.46,3.46,1.09-.3,1.23-3.14,1.15-4.62-.09-1.73-.53-2.44-2.31-6.93-1.46-3.68-1.71-4.6-2.31-4.62Z"/><path class="cls-2" d="M600.03,58.99c.68,.24,1.6,.43,2.31,0,.69-.42,.73-1.14,1.15-2.31,1.04-2.89,2.53-3.26,2.31-4.62-.22-1.35-1.88-2.11-2.31-2.31-3.13-1.43-6.57,.9-6.93,1.15"/><path class="cls-2" d="M608.11,48.59c-.74-.17-1.79,1.15-2.31,2.31-.92,2.07,.08,3.15,0,6.93-.06,2.79-.66,4.26,0,4.62,.58,.32,1.68-.47,2.31-1.15,1.6-1.74,1.45-4.22,1.15-8.08-.2-2.56-.35-4.43-1.15-4.62Z"/><path class="cls-2" d="M610.42,56.68c.35-.51,1.68-2.43,3.46-2.31,1.9,.13,3.01,2.49,3.46,3.46,1.68,3.59,.34,7.16,0,8.08-.77,2.05-2.01,3.6-2.31,3.46-.34-.15,.88-2.26,0-3.46-.93-1.27-3.07,.04-4.62-1.15-1.84-1.42-1.78-5.52,0-8.08Z"/><path class="cls-2" d="M615.04,70.53c.49-.13,1.35-.27,2.31,0,1.93,.53,3.62,2.51,3.46,4.62-.14,1.86-1.65,2.97-2.31,3.46-.54,.4-2.65,1.96-4.62,1.15-1.77-.72-2.87-3.13-2.31-5.77"/><path class="cls-2" d="M615.04,69.38c.76,1.3,.72,2.73,0,3.46-.93,.95-2.68,.42-3.46,0-2.21-1.18-3.02-4.87-2.31-9.24"/><path class="cls-2" d="M576.93,49.75c-.68,2.28-.32,3.8,0,4.62,.52,1.35,1.46,2.25,8.08,5.77,4.65,2.47,5.37,2.66,5.77,2.31,.98-.85-.45-4.51-2.31-6.93-3.34-4.33-8.71-5.44-11.55-5.77Z"/><path class="cls-2" d="M568.85,50.9c1.43,1.87,3.2,4.56,4.62,8.08,1.46,3.62,2.06,6.86,2.31,9.24"/><path class="cls-2" d="M579.24,57.83c10.07,6.53,11.87,8.6,11.55,9.24-.51,1-6.47-1-6.93-1.15-3.07-1.04-5.4-2.42-6.93-3.46"/><path class="cls-2" d="M589.64,63.6c2.45,.61,3.82,1.55,4.62,2.31,.68,.65,1.04,1.25,2.31,2.31,.74,.62,1.23,.93,1.15,1.15-.12,.34-1.4,.23-2.31,0-1.04-.27-1.81-.77-2.31-1.15"/><path class="cls-2" d="M589.64,72.84c-.48-1.18,.05-2.97,1.15-3.46,.83-.38,1.71,.13,3.46,1.15,1.94,1.13,2.23,2.01,2.31,2.31,.09,.33,.21,.79,0,1.15-.77,1.37-5.96,1.24-6.93-1.15Z"/><path class="cls-2" d="M588.48,77.46c.96,.1,2.13,.14,3.46,0,1.92-.2,3.49-.69,4.62-1.15"/><path class="cls-2" d="M585.02,68.22c-1.8-.2-3.2,.32-3.46,1.15-.27,.84,.68,1.82,1.15,2.31,1.83,1.88,4.37,2.24,5.77,2.31"/><path class="cls-2" d="M596.56,64.76c.67,.31,2.64,1.25,3.46,2.31,.08,.11,.15,.2,.15,.2,.83,1.17,.76,2.07,1.01,2.11,.18,.03,.5-.38,1.15-2.31"/><path class="cls-2" d="M603.49,65.91c.18-.06,1.95-.7,2.31-2.31,.1-.44,.07-.84,0-1.15"/><path class="cls-2" d="M602.34,74c-.57-.98-.45-2.01,0-2.31,.49-.33,1.65-.02,2.31,1.15"/><path class="cls-2" d="M591.94,85.54c.81,.16,2.04,.29,3.46,0,3.31-.67,5.56-3.21,5.77-3.46,1.41-1.63,2.02-3.39,3.46-3.46,.35-.02,.55,.07,1.15,0,.33-.04,1.96-.23,2.31-1.15,.19-.5-.19-.71,0-1.15,.3-.71,1.42-.5,2.31-1.15,.46-.33,.96-.97,1.15-2.31"/><path class="cls-2" d="M551.53,28.97c-1.6,1.44-3.8,3.72-5.77,6.93-3.24,5.28-4.04,10.14-4.62,13.86-.42,2.7-1.15,7.64,0,13.86,.79,4.27,2.12,7.31,3.46,10.39,1.36,3.11,2.92,6.69,5.77,10.39,2.03,2.64,5.95,6.95,12.7,10.39v3.46"/><path class="cls-2" d="M563.08,95.94c.53-.11,1.35-.21,2.31,0,2.01,.43,3.14,1.87,3.46,2.31"/><path class="cls-2" d="M583.86,91.32c2.6,.9,3.91,.57,4.62,0,.6-.48,.92-1.25,1.15-1.15,.23,.09,.07,.88,0,2.31-.07,1.39,.03,1.84,0,2.31-.17,2.33-3.59,4.09-4.62,4.62-.65,.33-7.08,3.65-9.24,1.15-1-1.15-.93-3.34,0-4.62,.87-1.21,2.12-1.06,4.62-2.31,1.55-.78,2.71-1.66,3.46-2.31Z"/><path class="cls-2" d="M591.94,106.33c-.86,1.15-.15,3.06,0,3.46,.57,1.53,1.68,2.29,3.46,3.46,1.82,1.2,4.16,2.7,6.93,2.31,.41-.06,2.06-.29,2.31-1.15,.18-.62-.48-1.12-1.15-2.31-.93-1.63-.75-2.52-1.15-3.46-1.4-3.22-8.7-4.57-10.39-2.31Z"/><path class="cls-2" d="M608.11,94.78c-.41,.4-1.27,1.28-1.15,2.31,.14,1.21,1.56,1.93,2.31,2.31,2.98,1.51,6.66,1.18,9.24,0,.29-.13,1.35-.86,3.46-2.31,.79-.54,1.13-.79,1.15-1.15,.06-1.12-2.91-2.12-3.46-2.31-.35-.12-7.79-2.54-11.55,1.15Z"/><path class="cls-2" d="M615.04,79.77c-.25,.52-.65,1.33-1.15,2.31-.96,1.84-1.07,1.88-1.15,2.31-.34,1.74,1,3.63,2.31,4.62,.52,.4,1.75,1.33,3.46,1.15,2.24-.23,3.37-2.15,3.46-2.31,.96-1.69,.37-3.46,0-4.62-.81-2.51-2.59-3.99-3.46-4.62"/><path class="cls-2" d="M628.89,107.48c-.79-.23-1.74-.49-2.31,0-.8,.68-.44,2.42,0,3.46,.36,.86,.86,1.43,3.46,3.46,2.75,2.15,4.04,2.96,5.77,3.46,1.55,.45,2.07,.25,2.31,0,.38-.41,.14-1.08,0-2.31-.26-2.22,.24-2.48,0-3.46-.5-2.07-3.41-2.92-9.24-4.62Z"/><path class="cls-2" d="M634.67,98.24c.03-.37,.39-.54,1.15-1.15,1.22-.99,1.57-1.58,2.31-2.31,.96-.94,3.61-3.54,6.93-3.46,.4,0,3.48,.08,4.62,2.31,.54,1.05,.54,2.4,0,3.46-.24,.47-.78,1.28-3.46,2.31-2.5,.96-5.09,1.96-8.08,1.15-1.58-.43-3.53-1.42-3.46-2.31Z"/><path class="cls-2" d="M590.79,135.19c-.31-.92,1.07-2.23,1.15-2.31,.51-.47,1-.69,2.31-1.15,1.95-.7,2.92-1.05,3.46-1.15,.39-.08,1.31-.24,4.62,0,4.77,.34,5.45,.86,5.77,1.15,.97,.88,1.68,2.46,1.15,3.46-.38,.73-1.32,.94-3.46,1.15-4.03,.4-6.9,.27-10.39,0-3.18-.25-4.37-.42-4.62-1.15Z"/><path class="cls-2" d="M609.26,125.96c.11-1.12,1.41-1.83,2.31-2.31,1.86-1.01,3.58-1.07,6.93-1.15,4-.1,4.29,.49,5.77,0,.21-.07,.8-.28,1.15,0,.52,.41,.26,1.65,0,2.31-.26,.65-.98,1.86-5.77,3.46-3.45,1.16-5.21,1.72-6.93,1.15-1.65-.54-3.61-2-3.46-3.46Z"/><path class="cls-2" d="M634.67,128.27c.87-1.24,2.83-1.18,3.46-1.15,1.19,.04,1.98,.42,3.46,1.15,2.82,1.4,4.23,2.09,4.62,3.46,.42,1.49-.7,2.48,0,3.46,.69,.96,2.15,.55,2.31,1.15,.19,.7-1.54,2.23-3.46,2.31-1.16,.05-1.42-.47-3.46-1.15-2.89-.97-3.38-.27-4.62-1.15-1.47-1.05-1.89-2.82-2.31-4.62-.36-1.53-.61-2.59,0-3.46Z"/><path class="cls-2" d="M603.49,149.05c-.12,.38,.59,.73,2.31,2.31,2.49,2.29,2.22,2.67,3.46,3.46,1.85,1.17,3.77,1.16,5.77,1.15,1.81,0,3.38-.04,4.62-1.15,.22-.2,1.35-1.22,1.15-2.31-.06-.33-.34-1.25-3.46-2.31-2.18-.74-3.9-.91-6.93-1.15-5.9-.47-6.8-.39-6.93,0Z"/></g></g></g></svg>