<?xml version="1.0" encoding="UTF-8"?><svg id="Calque_2" xmlns="http://www.w3.org/2000/svg" viewBox="0 0 73.38 106.96"><defs><style>.cls-1{fill:#010101;}</style></defs><g id="Calque_5"><g><path d="M36.64,73.4C16.56,73.41-.36,57.01,0,35.98,.35,16.18,16.59-.38,37.47,0c19.77,.37,36.33,16.61,35.91,37.52-.4,19.87-16.63,35.89-36.73,35.87Zm16.6-29.38c1.38-5.28,1.64-10.6,.53-15.96-1.22-5.91-3.89-11.12-7.67-15.78-2.31-2.86-4.89-5.44-7.99-7.46-.58-.38-1.04-.37-1.62,.03-5.41,3.8-9.88,8.47-13.06,14.3-3.29,6.03-4.47,12.46-3.48,19.25,.69,4.71,2.36,9.1,4.65,13.26,.52,.95,1.07,1.88,1.61,2.82l-.13,.13c-1-.77-2.04-1.49-2.98-2.32-5.53-4.85-8.74-11.04-10.28-18.16-.17-.78-.23-1.6-.45-2.36-.11-.37-.46-.68-.7-1.01-.29,.25-.62,.47-.87,.76-.16,.18-.2,.46-.28,.7-1.95,5.9-2.32,11.88-.81,17.92,2,7.96,6.51,13.99,14.02,17.53,5.82,2.74,12,3.34,18.32,2.39,9.17-1.38,15.6-6.39,19.18-14.93,2.26-5.4,2.73-11.06,1.9-16.84-.81-5.68-2.84-10.86-6.12-15.56-.17-.24-.34-.5-.56-.7-.13-.12-.41-.23-.53-.17-.13,.07-.2,.35-.2,.53,0,.27,.12,.54,.16,.81,.22,1.31,.48,2.62,.62,3.94,.25,2.25,.06,4.5-.27,6.73-.52,3.54-1.51,6.94-3.03,10.19Z"/><g><path class="cls-1" d="M20.45,83.77c1.14,0,2.18,.1,3.12,.29,.94,.19,1.75,.5,2.42,.94,.67,.43,1.19,1.01,1.56,1.73,.37,.72,.55,1.61,.55,2.67,0,1.14-.27,2.1-.82,2.86-.55,.76-1.36,1.39-2.44,1.87,1.48,.4,2.58,1.11,3.31,2.11,.73,1.01,1.09,2.22,1.09,3.64,0,1.14-.23,2.13-.71,2.97-.47,.84-1.1,1.52-1.9,2.05-.8,.53-1.7,.92-2.72,1.18-1.02,.25-2.07,.38-3.14,.38H9.16v-22.68h11.29Zm-.67,9.18c.94,0,1.71-.21,2.32-.64,.6-.42,.91-1.11,.91-2.06,0-.53-.1-.96-.3-1.3-.2-.34-.47-.6-.81-.79-.34-.19-.72-.32-1.16-.4s-.89-.11-1.36-.11h-4.94v5.31h5.34Zm.3,9.63c.51,0,1.01-.05,1.48-.14,.47-.1,.88-.25,1.24-.48s.64-.52,.86-.91,.32-.87,.32-1.46c0-1.16-.35-2-1.04-2.49-.69-.5-1.61-.75-2.76-.75h-5.74v6.23h5.64Z"/><path class="cls-1" d="M38.09,83.77v22.68h-5.27v-22.68h5.27Z"/><path class="cls-1" d="M42.49,90.49c.54-1.45,1.31-2.72,2.32-3.8s2.24-1.93,3.71-2.54c1.47-.61,3.12-.92,4.95-.92s3.52,.31,4.97,.92c1.46,.61,2.69,1.46,3.7,2.54,1.01,1.08,1.78,2.35,2.32,3.8,.54,1.45,.81,3.02,.81,4.72s-.27,3.19-.81,4.62c-.54,1.43-1.31,2.67-2.32,3.73-1.01,1.06-2.24,1.89-3.7,2.49-1.46,.6-3.11,.91-4.97,.91s-3.49-.3-4.95-.91c-1.47-.6-2.7-1.43-3.71-2.49s-1.78-2.3-2.32-3.73c-.54-1.43-.81-2.97-.81-4.62s.27-3.27,.81-4.72Zm4.82,7.5c.24,.9,.61,1.71,1.13,2.43,.51,.72,1.19,1.3,2.02,1.73,.83,.43,1.84,.65,3.02,.65s2.19-.22,3.02-.65c.83-.43,1.5-1.01,2.02-1.73,.51-.72,.89-1.53,1.12-2.43s.35-1.83,.35-2.78-.12-1.96-.35-2.89c-.24-.93-.61-1.76-1.12-2.49-.52-.73-1.19-1.31-2.02-1.75-.83-.43-1.84-.65-3.02-.65s-2.2,.22-3.02,.65c-.83,.43-1.5,1.02-2.02,1.75-.52,.73-.89,1.56-1.13,2.49-.23,.93-.35,1.9-.35,2.89s.12,1.88,.35,2.78Z"/></g></g></g></svg>