<?xml version="1.0" encoding="UTF-8"?><svg id="Calque_2" xmlns="http://www.w3.org/2000/svg" viewBox="0 0 635.83 877.59"><defs><style>.cls-1{fill:#9c7d67;}.cls-2{fill:#bb957b;}.cls-3{fill:#593b2a;}.cls-4{fill:#835b3f;}.cls-5{fill:#efeded;}.cls-5,.cls-6{stroke:#000;stroke-miterlimit:10;stroke-width:1.87px;}.cls-6{fill:none;}</style></defs><g id="Calque_1-2"><g><path class="cls-6" d="M408.62,9.15c-4.99-1.75-4.8-5.06-9.47-7.11-5.08-2.22-10.3-.51-11.84,0-5.44,1.79-12.19,6.8-11.84,11.84,.26,3.81,4.39,4.77,4.74,9.47,.08,1.05,.05,3.37-2.37,7.11-5.92,9.13-13.39,6.99-18.95,14.21-3.66,4.76-4.02,11.07-4.74,23.69-.28,4.88-.16,8.97,0,11.84,4.49,1.42,10.67,2.5,16.58,0,4.63-1.96,5.04-4.41,9.47-7.11,7.14-4.35,19.31-6.08,26.05,0,6.72,6.05,5.02,17.11,4.74,18.95-2.99,19.38-26.46,27.75-28.42,28.42-4.69,1.6-8.85,2.16-11.84,2.37v23.69c-8.36,5.02-18.27,11.94-28.42,21.32-8.97,8.29-15.97,16.52-21.32,23.69h16.58c4.5-2.71,9.28-5.85,14.21-9.47,4.35-3.2,8.29-6.39,11.84-9.47,1.58,1.05,4.06,2.34,7.11,2.37,6.65,.07,11.32-5.87,16.58-11.84,4.65-5.28,11.62-12.7,21.32-21.32,3.45,.26,7.44,.33,11.84,0,5.48-.41,10.27-1.34,14.21-2.37-3.3-7.57-1.29-16.31,4.74-21.32,6.09-5.07,15.29-3.11,18.95-2.37,3,.61,5.41,1.57,7.11,2.37,4.53,.67,20.09,2.73,33.16,0,5.02-1.05,8.55-1.79,11.84-4.74,3.54-3.16,3.72-6.1,7.11-7.11,3.99-1.18,8.22,1.56,9.47,2.37,2.42,1.57,3.91,3.48,4.74,4.74,8.29-1.4,14.66-.8,18.95,0,5.19,.97,8.47,2.46,14.21,2.37,5.08-.08,9.2-1.34,11.84-2.37v-9.47c-1.75-.65-4.59-1.99-7.11-4.74-5.14-5.62-4.84-12.69-4.74-14.21-7.9-4.74-15.79-9.47-23.69-14.21h-14.21c-3.16-3.95-6.32-7.9-9.47-11.84h-9.47c.01-2.03-.25-5.72-2.37-9.47-4.06-7.19-13.47-11.98-18.95-9.47-3.11,1.43-3.93,4.73-7.11,4.74-1.99,0-2.52-1.29-4.74-2.37-6.28-3.04-11.38,2.81-16.58,0-2.67-1.44-3.7-4.27-4.74-7.11-.72-1.96-2.57-7.05,0-11.84,1.57-2.92,3.93-2.35,4.74-4.74,1.04-3.1-1.26-7.8-4.74-9.47-3.57-1.72-5.53,1.13-11.84,0-.79-.14-.4-.12-7.11-2.37-7.39-2.48-8.25-2.63-9.47-2.37-3.33,.72-3.16,3.2-7.11,4.74-4.36,1.7-8.67,.28-9.47,0Z"/><path class="cls-6" d="M320.98,191.53c-6.69,4.92-12.37,8.92-16.58,11.84-14.98,10.39-22.47,15.58-26.05,16.58-3.98,1.11-8.35,1.69-9.47,4.74-.53,1.43-.03,2.55,2.37,9.47,2.43,7.02,2.68,8.08,2.37,9.47-.65,2.88-2.77,3.07-7.11,7.11-6.23,5.8-5.56,8.88-11.84,14.21-1.48,1.25-3.78,3.18-7.11,4.74-7.25,3.39-10.47,.87-21.32,2.37-5.65,.78-3.97,1.35-18.95,4.74-6.85,1.55-7.33,1.46-9.47,2.37-8.18,3.48-12.73,9.75-14.21,11.84-1.42,2.01-3.49,4.99-4.74,9.47-.66,2.36-2.29,8.26,0,14.21,1.92,4.99,4.3,4.06,7.11,9.47,3.42,6.61,2.7,13.44,2.37,16.58-.43,4.1-1.51,7.35-2.37,9.47,2.16-.37,5.52-1.06,9.47-2.37,7.37-2.44,10.76-5.02,18.95-9.47,13.9-7.56,13.52-5.21,18.95-9.47,7.38-5.8,6.02-8.5,14.21-14.21,5.99-4.18,11.77-6.25,14.21-7.11,3.71-1.3,6.11-1.75,9.47-2.37,7.36-1.36,8.81-.53,9.47,0,1.56,1.25,.96,2.66,2.37,7.11,.52,1.64,1.87,5.8,4.74,9.47,3.44,4.41,5.7,3.8,7.11,7.11,1.93,4.56-.98,9,0,9.47,1.15,.56,4.57-5.91,11.84-14.21,3.98-4.55,7.38-7.66,9.47-9.47,2.31-2,5.2-4.49,9.47-7.11,3.64-2.23,6.95-3.74,9.47-4.74v-14.21c7.1-3.63,12.65-5.78,16.58-7.11,2.32-.78,5.79-1.86,9.47-4.74,3.19-2.5,2.43-3.13,4.74-4.74,3.4-2.36,8.58-2.37,18.95-2.37h7.11c-.43-2.03-.87-5.44,0-9.47,.55-2.56,1.81-8.4,7.11-11.84,3.66-2.37,7.51-2.48,9.47-2.37v-14.21c.24-.09,1.88-.74,2.37-2.37,.51-1.69-.42-3.74-2.37-4.74-8.21-4.18-16.58-9.47-16.58-9.47-5.54-1.64-12.39-3.68-21.32-2.37-6.28,.92-10.77,3.08-14.21,4.74-6.39,3.08-11.11,6.71-14.21,9.47h-9.47c-.72-5.06-.41-9.1,0-11.84,.7-4.66,2.25-9.13,2.37-9.47,1.12-3.21,1.9-4.41,2.37-7.11,.51-2.91,.28-5.41,0-7.11h-16.58Z"/><path class="cls-6" d="M185.98,350.23c-1.74,1.63-4.24,4.04-7.11,7.11-6.2,6.63-6.84,8.49-7.11,9.47-.96,3.54-.65,8.74,2.37,11.84,2.61,2.69,5.51,2.01,7.11,4.74,1.33,2.28,.7,5.13,0,7.11-3.35,1.38-8.42,3.65-14.21,7.11-11.38,6.78-18.58,13.92-21.32,16.58-13.72,13.31-30.03,23.66-45,35.53-10.68,8.47-26.05,20.63-45,35.53,2.89,7.98,6.56,12.01,9.47,14.21,.12,.09,3.61,2.73,7.11,7.11,2.68,3.35,2.65,4.32,2.37,4.74-.58,.87-2.66-.14-4.74,0-4.94,.34-8.25,7.11-9.47,9.47-3.07,5.94-8.53,14.14-18.95,26.05-2.35,7-1.41,10.21,0,11.84,.86,1,1.73,1.21,2.37,2.37,1.47,2.67-.45,6.54-2.37,9.47,11.05,8.68,22.11,17.37,33.16,26.05,1.9,1.78,4.86,5.2,4.74,9.47-.1,3.49-2.22,6.22-4.74,9.47-4.07,5.26-7.15,6.32-7.11,9.47,.02,1.54,.8,2.61,2.37,4.74,1.74,2.36,5.16,7.03,9.47,7.11,3.02,.05,5.22-2.33,9.47-7.11,2.89-3.24,6.58-7.38,9.47-14.21,3.1-7.32,1.42-8.64,4.74-14.21,1.37-2.3,4.05-6.69,9.47-9.47,3.79-1.95,7.35-2.32,9.47-2.37-.48-2.61-.93-6.82,0-11.84,1.11-5.99,3.62-10.15,4.74-11.84,4.44-6.73,10.26-9.77,14.21-11.84,4.67-2.45,12.15-6.36,21.32-4.74,3.09,.55,5.52,1.57,7.11,2.37,1.63-1.88,4.71-4.93,9.47-7.11,6.09-2.78,11.62-2.61,14.21-2.37,1.61-3.32,5.09-9.36,11.84-14.21,8.12-5.84,16.39-6.67,21.32-7.11,9.87-.87,17.55,1.27,21.32,2.37,27.36,7.97,53.07,20.65,68.69,28.42,11.86,5.9,21.66,10.81,28.42,14.21,3.45,1.73,7.23,4.59,9.47,9.47,3.06,6.68,1.07,13.6,0,16.58h-18.95c1.84,2.11,4.03,5.29,4.74,9.47,.96,5.63-1.57,8.21,0,11.84,1.84,4.25,6.43,3.35,11.84,7.11,5.86,4.06,4.96,8.21,11.84,21.32,5.8,11.05,6.69,8.57,11.84,18.95,5.48,11.04,8.22,16.56,9.47,21.32,.35,1.34,1.38,5.54,4.74,9.47,.93,1.09,1.8,1.88,2.37,2.37h11.84c2.74-3.23,5.31-4.32,7.11-4.74,4.85-1.12,7.64,1.85,11.84,0,3.1-1.36,4.52-4.28,4.74-4.74,2.28-4.84-1.62-7.76,0-11.84,2.01-5.07,8.84-2.63,14.21-9.47,1.91-2.43,3.07-5.31,4.74-9.47,1.31-3.27,1.97-4.91,2.37-7.11,1.32-7.25-1.93-9.32,0-14.21,1.17-2.98,2.52-2.57,4.74-7.11,.6-1.22,1.18-2.63,2.37-7.11,2.2-8.25,3.3-12.37,2.37-14.21-1.78-3.53-5.73-2.91-7.11-7.11-.21-.64-.9-2.75,0-4.74,1.23-2.71,4.27-2.65,4.74-4.74,.34-1.52-1.12-2.19-2.37-4.74-1.73-3.52-1.87-8.21,0-11.84,.51-.98,1.78-3.48,4.74-4.74,3.31-1.41,6.39-.28,7.11,0-.91-7.14-.52-12.77,0-16.58,.18-1.34,.16-.79,2.37-11.84,2.15-10.75,2.35-12.11,2.37-14.21,0-.13,0-.08,0-9.47v-2.37c-2.28-.53-5.68-.97-9.47,0-2.08,.53-4.57,1.94-9.47,4.74-5.63,3.22-6.8,4.17-9.47,4.74-2.87,.61-5.39,.34-7.11,0,.25,1.66,.44,4.15,0,7.11-.35,2.34-.73,4.86-2.37,7.11-2.93,4.01-8.04,4.62-9.47,4.74-6.25-1.12-11.18-.58-14.21,0-2.51,.48-4.67,.91-7.11,2.37-3.22,1.92-2.85,3.19-7.11,7.11-4.3,3.95-6.52,4.35-7.11,7.11-.48,2.24,.76,3.07,0,4.74-1.29,2.83-6.65,4.34-9.47,2.37-1.76-1.23-2.01-3.44-2.37-7.11-.75-7.7,1.42-10.2,0-14.21-1.02-2.9-3.14-4.36-7.11-7.11-7.59-5.25-15.25-6.28-21.32-7.11-5.83-.79-8.74-1.18-11.84,0-4.64,1.77-5.87,5-9.47,4.74-2.24-.17-3.86-1.69-7.11-4.74-2.86-2.68-4.79-4.49-4.74-7.11,.05-2.54,1.94-4.33,2.37-4.74,2.31-2.19,5.32-2.32,7.11-2.37,5.51-.16,6.51,2.53,11.84,2.37,1.75-.05,4.93-.15,7.11-2.37,1.36-1.39,1.72-3.31,2.37-7.11,.82-4.8,1.49-8.67,0-9.47-1.7-.92-4.14,3.27-7.11,2.37-.91-.28-.95-.76-4.74-4.74-1.39-1.46-2.08-2.19-2.37-2.37-2.76-1.72-5.65-.17-9.47,0-2.19,.1-5.42-.22-9.47-2.37-2.05-11.28-1.14-20.2,0-26.05,.75-3.82,2.62-13.45,7.11-14.21,.44-.08,.97-.07,7.11,2.37,5.33,2.12,5.85,2.49,7.11,2.37,2.99-.28,6.97-2.99,7.11-7.11,.1-2.93-1.79-5.75-4.74-7.11v-11.84c4.08-1.03,9.31-3.05,14.21-7.11,5.32-4.41,6.73-8.31,7.11-9.47,.51-1.56,1.47-4.67,0-7.11-.67-1.1-1.16-.96-2.37-2.37-1.54-1.8-3.32-5.05-2.37-7.11,.75-1.61,2.85-1.8,4.74-2.37,6.66-2.03,10.25-8.83,11.84-11.84,4.32-8.18,2.94-16.3,2.37-18.95,1.47,3.34,4.54,5.23,7.11,4.74,3.88-.75,4.68-6.6,4.74-7.11,.14-1.19,.02-1.9-2.37-9.47-1.5-4.76-2.12-6.61-2.37-9.47-.17-2-.09-3.66,0-4.74-2.32-.49-5.59-1.25-9.47-2.37-3.45-.99-5.22-1.51-7.11-2.37-2.41-1.1-5.91-3.14-9.47-7.11-.66,1.05-1.57,2.66-2.37,4.74-.31,.8-4.67,12.46,0,16.58,1.79,1.58,3.19,.54,4.74,2.37,2.04,2.4,2.06,7.05,0,9.47-.94,1.1-1.75,1.08-2.37,2.37-.74,1.52-.28,2.96,0,4.74,.39,2.45-.06,2.37,0,7.11,.12,9.33,1.9,11.76,0,14.21-.68,.88-1.99,1.95-4.74,2.37-1.85-.03-4.97,.23-7.11,2.37-1.92,1.92-2.09,5.26-2.37,11.84h0c0,8.51,.94,10.22,0,11.84-.88,1.51-2.9,2.1-7.11,2.37-12.11,.77-26.6-2.14-30.79,0-.6,.31-1.99,1.01-2.37,2.37-.31,1.11,.33,1.7,0,2.37-.66,1.36-4.65,1.75-7.11,0-3.61-2.56-2.51-8.7-2.37-9.47,.62-3.47,3-8.37,7.11-9.47,2.68-.72,3.19,.95,11.84,2.37,2.94,.48,4.88,.62,7.11,0,1.13-.31,2.35-1,4.74-2.37,3.99-2.28,6.01-3.45,7.11-4.74,.67-.79,3.57-4.19,2.37-7.11-.62-1.51-2.06-2.22-2.37-2.37-1.78-.88-3.5-.21-4.74,0-2.86,.48-3.43-1.23-14.21-7.11-1.4-.76-3.3-2.09-7.11-4.74-1.47-1.03-2.13-1.51-2.37-2.37-.68-2.41,2.63-5.3,4.74-7.11,7.87-6.73,11.81-10.1,14.21-11.84,6.29-4.55,10.41-8.42,16.58-14.21,10.7-10.04,8.53-10.07,14.21-14.21,4.13-3.01,8.16-5.08,9.47-9.47,.33-1.11,.7-3.06,2.37-4.74,1.56-1.57,3.44-2.05,4.74-2.37,3.21-.79,4.04,.19,9.47,0,3.04-.11,3.46-.44,4.74,0,.93,.32,2.9,1.24,4.74,4.74,3.02,5.74,.32,8.18,2.37,14.21,1.33,3.91,2.58,3.23,7.11,11.84,.76,1.44,1.95,3.81,2.37,7.11,.25,1.95,.14,3.6,0,4.74h9.47c3.84-2.91,4.71-5.35,4.74-7.11,.03-2.29-1.39-3.04-2.37-7.11-.67-2.8-1.31-5.44,0-7.11,1.69-2.16,4.73-.24,7.11-2.37,1.53-1.37,.83-2.66,2.37-9.47,.85-3.76,1.29-5.67,2.37-7.11,1.54-2.07,2.74-2.06,4.74-4.74,1.04-1.4,2.05-2.75,2.37-4.74,.07-.42,.72-4.96-2.37-7.11-2.19-1.52-5.22-1.11-7.11,0-2.47,1.45-2.15,3.59-4.74,4.74-.17,.08-2.78,1.19-4.74,0-1.73-1.05-1.97-3.32-2.37-7.11-.47-4.45-.05-8.91,0-9.47,.29-3.04,.63-3.8,0-4.74-1.31-1.94-4.2-.82-7.11-2.37-1.62-.86-3.55-2.71-4.74-7.11"/><path class="cls-6" d="M403.88,281.54c2.73,.89,6.81,1.97,11.84,2.37,5.22,.41,12.17,.96,18.95-2.37,2.21-1.08,5.42-3.88,11.84-9.47,6.19-5.39,6.93-6.57,9.47-7.11,5.27-1.11,12.15,1.85,14.21,7.11,.17,.43,1.46,3.85,0,7.11-.74,1.65-1.69,2.15-4.74,4.74-4.16,3.53-6.24,5.29-7.11,7.11-1.19,2.48-2.04,6.83,0,9.47,.59,.77,.88,.68,7.11,4.74,1.37,.89,2.14,1.41,2.37,2.37,.35,1.47-.84,2.92-2.37,4.74-2.1,2.5-3.03,2.58-4.74,4.74-1.5,1.89-2.76,3.49-2.37,4.74,.62,1.96,5.06,2.26,14.21,2.37,13.66,.17,12.97-.38,16.58,0,5.54,.58,16.07,1.69,21.32,9.47,4.03,5.98,3.09,13.17,2.37,16.58-14.75-2.56-18.39-1.48-18.95,0-.41,1.09,.76,2.63,2.37,4.74,3.28,4.29,5.48,4.13,7.11,7.11,1.51,2.76,1.72,6.78,0,9.47-1.73,2.71-3.95,1.81-7.11,4.74-3.56,3.3-4.43,7.84-4.74,9.47-.36,1.89-.04,1.78,0,11.84v14.21c12.93,10.25,19.78,13.37,23.69,14.21,.79,.17,3.01,.58,4.74,2.37,1.42,1.47,1.97,3.32,2.37,9.47,.33,5.12,.55,8.71,0,14.21-.54,5.46-.85,8.22-2.37,9.47-2.89,2.39-8.35,1.63-11.84,0-2.71-1.26-3.86-2.88-4.74-2.37-1.23,.72,.87,4.07,0,9.47-.44,2.75-1.51,5.18-2.37,7.11-1.49,3.36-1.84,2.9-2.37,4.74-.24,.82-.51,2.09,0,9.47,.23,3.29,.33,3.76,0,4.74-1.1,3.23-4.43,4.62-4.74,4.74-2.91,1.16-5.44,.23-7.11,0-3.52-.48-8.81,1.42-16.58,11.84"/><path class="cls-5" d="M79.39,636.83c-.03,1.62-.05,4.09,0,7.11,.11,6.16,.41,7.48,0,9.47-.51,2.5-2.1,5.91-7.11,9.47v21.32c1.17,.36,2.97,.7,4.74,0,1.74-.69,1.95-1.79,4.74-4.74,2.56-2.7,3.28-2.72,4.74-4.74,1.3-1.8,1.99-3.54,2.37-4.74-.82-2.75-1.65-7.21,0-11.84,1.02-2.87,2.56-4.59,4.74-7.11,9.37-10.82,6.22-8.23,11.84-14.21,11.43-12.16,12.07-9.7,14.21-14.21,3.2-6.75,1.81-12.36,7.11-16.58,1.11-.89,2.57-2.05,4.74-2.37,5.44-.8,8.26,4.76,16.58,9.47,2.31,1.31,7.83,4.43,14.21,4.74,5.93,.28,10.56-1.96,18.95-7.11,18.59-11.39,19.61-14.92,28.42-18.95,5.48-2.5,13.13-3.25,28.42-4.74,20.81-2.03,31.22-3.04,42.63,0,4.64,1.24,8.32,2.79,14.21,2.37,7.78-.55,10.61-3.93,16.58-2.37,4.59,1.2,4.2,3.52,9.47,4.74,2.58,.6,3.12,.14,11.84,0h21.32c.89-1.52,3.28-6.07,2.37-11.84-1.55-9.86-11.25-13.97-11.84-14.21-19.48-10.26-35.69-18.16-47.37-23.69-6.82-3.23-13.17-6.15-21.32-9.47-19.58-8-32.82-11.52-45-11.84-4.86-.13-10.45,.23-16.58,2.37-1.89,.66-5.51,1.95-9.47,4.74-6.41,4.51-9.97,10.3-11.84,14.21-2.6-.25-8.12-.41-14.21,2.37-4.77,2.17-7.84,5.22-9.47,7.11-1.62-.76-4.04-1.74-7.11-2.37-14.95-3.05-27.06,6.04-28.42,7.11-2.81,2.18-9.19,7.28-11.84,16.58-2.1,7.37-.8,13.66,0,16.58-2.47-.23-7.17-.27-11.84,2.37-6.56,3.7-8.94,10.34-9.47,11.84-.99,2.77-.65,3.6-2.37,9.47-1.04,3.56-2.07,6.34-2.37,7.11-2.96,7.53-11.75,13.62-16.58,16.58Z"/><path class="cls-6" d="M67.55,627.35c-1.77,1.09-4.81,3.29-7.11,7.11-.8,1.34-5.16,8.58-2.37,14.21,1.92,3.87,5.48,3.51,7.11,7.11,1.85,4.11,.76,10.14-2.37,11.84-3.11,1.69-5.43-2.4-11.84-2.37-5.67,.03-7.22,3.24-14.21,4.74-4.89,1.05-9.14,.54-11.84,0-3.03,8.53-6.59,11.17-9.47,11.84-4.07,.95-7.21-1.9-9.47,0-2.12,1.78-2.09,6.58,0,9.47,2.25,3.12,5.42,1.99,7.11,4.74,1.93,3.15,.19,8.55-2.37,11.84-3.44,4.43-8.06,4.68-9.47,9.47-.22,.73-.53,1.85,0,2.37,1.34,1.3,5.57-3.54,11.84-4.74,7.55-1.45,9.77,3.98,16.58,2.37,6.38-1.51,6.52-6.76,11.84-7.11,5.48-.36,6.63,5.12,14.21,7.11,7.55,1.98,14.55-1.31,16.58-2.37,5.34-2.79,4.73-5.14,14.21-14.21,5.34-5.11,8.01-7.66,11.84-9.47,2.61-1.23,6.48-2.4,14.21-4.74,4.95-1.5,5.51-1.54,7.11-2.37,2.21-1.15,7.23-3.74,9.47-9.47,2.08-5.3,.58-10.2,0-11.84-1.73,.69-9.79,3.67-18.95,0-9.9-3.96-13.59-12.68-14.21-14.21"/><path class="cls-6" d="M311.51,587.09c2.34,3.66,2.34,8.33,0,11.84-3.25,4.89-9.16,4.75-9.47,4.74-.89,3.08-1.58,7.43,0,11.84,2.15,6,6.92,7.68,11.84,11.84,9.8,8.29,16.03,22.91,14.21,35.53-.29,2-1.42,9.83-7.11,16.58-4.35,5.16-7.13,4.68-9.47,9.47-2.49,5.1-.08,7.13-2.37,16.58-1.4,5.79-2.61,6.27-2.37,9.47,.35,4.56,3.22,9.15,7.11,11.84,4.31,2.99,6.67,1.45,21.32,4.74,5.07,1.14,8.13,2.08,9.47,4.74,1.38,2.72,.34,6.03,0,7.11-1.15,3.67-3.14,4.28-4.74,7.11-3.4,6.02-1.2,15.37,2.37,16.58,1.76,.6,2.55-1.24,7.11-2.37,.87-.22,5.91-1.46,9.47,0,4.54,1.86,5.89,7.79,7.11,11.84,.52,1.73,6.66,12.2,18.95,33.16,7.64,13.03,9.75,15.89,9.47,21.32-.2,3.93-1.55,7.14,0,11.84,1.29,3.91,3.01,4.11,7.11,9.47,3.71,4.87,8.62,13.02,11.84,18.95,.94,1.74,2.38,4.46,4.74,4.74,1.58,.18,2.77-.84,4.74-2.37,6.09-4.74,9.13-7.11,11.84-7.11,3.05,0,6.33,2.18,7.11,4.74,.68,2.24-.89,3.71,0,4.74,1.33,1.53,6.19-.1,9.47-2.37,2.16-1.5,3.51-3.18,4.74-4.74,3.36-4.26,2.55-5.44,4.74-7.11,2.17-1.65,3.43-.83,9.47-2.37,3.06-.78,5.04-1.28,7.11-2.37,5.45-2.87,5.02-6.41,9.47-9.47,5.42-3.74,12.24-2.75,14.21-2.37,5.53,1.07,5.58,3.66,14.21,7.11,4.79,1.91,8.07,3.18,11.84,2.37,4.38-.94,7.02-4.15,9.47-7.11,18.66-22.54,21.59-25.44,26.05-26.05,4.61-.64,6.51,1.75,11.84,0,5.12-1.68,8.12-5.44,9.47-7.11,0,0,2.51-3.1,21.32-23.69,1.19-1.3,.43-.44,23.69-23.69,.69-.69,4.06-4.06,4.74-4.74,1.15-5.09,2.13-12.75,0-21.32-2.43-9.77-6.43-10.79-9.47-21.32-1.33-4.61-.41-3.87-2.37-26.05-1.07-12.17-1.72-16.51-4.74-21.32-2.62-4.17-5.2-5.78-9.47-9.47-5.01-4.32-11.87-11.1-18.95-21.32v-40.27c-11.25,1.84-18.78-.1-23.69-2.37-3.82-1.77-6.68-4.02-11.84-4.74-2.44-.34-6.69-.48-14.21,2.37-15.57,5.9-18.57,14.58-30.79,16.58-4.1,.67-7.54,.31-9.47,0-.53-1.66-1.79-4.73-4.74-7.11-5.8-4.67-15.32-4.33-18.95,0-2,2.39-.92,4.45-2.37,9.47-1.61,5.56-4.79,9.48-7.11,11.84-3.95-.79-7.9-1.58-11.84-2.37"/><path class="cls-5" d="M392.04,269.69c-3.91-.42-11.59-1.03-18.95,0-2.25,.31-4.65,.81-7.11,2.37-2.47,1.57-3.11,3.02-4.74,4.74-3.92,4.12-7.55,3.41-16.58,7.11-2.24,.92-5.57,2.41-9.47,4.74v14.21c-3.05,.6-7.42,1.85-11.84,4.74-4.35,2.85-5.22,4.97-9.47,9.47-11.05,11.7-19.83,12.86-21.32,21.32-.36,2.04-.16,3.77,0,4.74-6.31,5.42-12.11,9.23-16.58,11.84-5.62,3.28-10.48,5.45-14.21,7.11-4.65,2.06-8.71,3.62-11.84,4.74-.39,.86-2.83,6.48,0,11.84,.48,.91,1.84,3.49,4.74,4.74,4.59,1.98,9.45-.93,11.84-2.37,1.66-.99,4.63-3.1,7.11-7.11h23.69c.77-1.97,2.16-4.7,4.74-7.11,3.04-2.83,4.01-1.71,7.11-4.74,2.26-2.21,3.32-4.34,7.11-7.11,.43-.31,.35-.22,.91-.64,1.45-1.09,3.22-2.87,18.04-15.94,4.42-3.89,10.91-9.6,18.95-16.58,.63-.46,1.55-1.22,2.37-2.37,2.11-2.94,1.19-5.02,2.37-7.11,1.97-3.5,6.72-1.08,11.84-4.74,3.22-2.3,2.41-3.68,7.11-9.47,3.56-4.39,5.06-4.89,9.47-9.47,2.5-2.6,5.91-6.49,9.47-11.84-.33-1.18-.98-2.95-2.37-4.74-.81-1.04-1.65-1.81-2.37-2.37Z"/><path class="cls-5" d="M406.25,300.49c-1.84,2.1-3.51,3.67-4.74,4.74-3.83,3.35-6.01,4.23-7.11,7.11-.2,.51-1.25,3.29,0,4.74,1.46,1.69,5.19,.57,7.11,0,2.89-.86,3.79-1.72,11.84-7.11,2.49-1.66,7.08-4.71,9.47-7.11l2.37-2.37c.65-3.25-1.49-6.46-4.74-7.11-3.25-.65-6.46,1.49-7.11,4.74-2.37,.79-4.74,1.58-7.11,2.37Z"/><path class="cls-5" d="M418.1,418.92c-1.95-.12-3.76,1.1-4.74,2.37-2.43,3.17-.59,7.94,0,9.47,.96,2.49,1.7,2.41,2.37,4.74,.25,.87,1.01,3.87,0,7.11-1.24,3.96-3.78,3.98-4.74,7.11-.98,3.19,1.25,4.59,2.37,9.47,1.98,8.64-2.74,14.08,0,16.58,.9,.83,2.77,1.47,7.11,0-2.78-15.73-1.71-23.87,0-28.42,1.11-2.96,1.53-4.34,2.37-7.11,1.85-6.09,2.76-9.19,2.37-11.84-.59-3.97-3.28-9.24-7.11-9.47Z"/><path class="cls-5" d="M119.65,452.08c5.63-3.84,6.86-2.16,14.21-7.11,4.46-3,7.17-5.74,9.47-4.74,1.64,.71,2.39,3.02,2.37,4.74-.04,3.19-2.75,5.48-4.74,7.11-16.88,13.87-18.89,15.42-23.69,16.58-3.16,.76-8.18,1.97-9.47,0-1.86-2.83,4.39-11.5,11.84-16.58Z"/><circle class="cls-1" cx="64.44" cy="672.82" r="16.8"/><circle class="cls-2" cx="249.24" cy="525.35" r="16.8"/><circle class="cls-3" cx="215.64" cy="405.88" r="16.8"/><circle cx="488.18" cy="764.29" r="16.8"/><circle class="cls-4" cx="394.85" cy="697.08" r="16.8"/></g></g></svg>