<?xml version="1.0" encoding="UTF-8"?><svg id="Calque_2" xmlns="http://www.w3.org/2000/svg" viewBox="0 0 185.25 255.69"><defs><style>.cls-1{fill:none;}.cls-1,.cls-2{stroke:#000;stroke-miterlimit:10;stroke-width:.54px;}.cls-2{fill:#efeded;}</style></defs><g id="Calque_5"><g><path class="cls-1" d="M119.06,2.67c-1.45-.51-1.4-1.47-2.76-2.07-1.48-.65-3-.15-3.45,0-1.58,.52-3.55,1.98-3.45,3.45,.08,1.11,1.28,1.39,1.38,2.76,.02,.3,.01,.98-.69,2.07-1.72,2.66-3.9,2.04-5.52,4.14-1.07,1.39-1.17,3.22-1.38,6.9-.08,1.42-.05,2.61,0,3.45,1.31,.41,3.11,.73,4.83,0,1.35-.57,1.47-1.28,2.76-2.07,2.08-1.27,5.63-1.77,7.59,0,1.96,1.76,1.46,4.99,1.38,5.52-.87,5.65-7.71,8.09-8.28,8.28-1.37,.47-2.58,.63-3.45,.69v6.9c-2.44,1.46-5.32,3.48-8.28,6.21-2.61,2.42-4.65,4.81-6.21,6.9h4.83c1.31-.79,2.7-1.7,4.14-2.76,1.27-.93,2.42-1.86,3.45-2.76,.46,.31,1.18,.68,2.07,.69,1.94,.02,3.3-1.71,4.83-3.45,1.36-1.54,3.39-3.7,6.21-6.21,1,.07,2.17,.1,3.45,0,1.6-.12,2.99-.39,4.14-.69-.96-2.21-.37-4.75,1.38-6.21,1.78-1.48,4.46-.91,5.52-.69,.87,.18,1.58,.46,2.07,.69,1.32,.19,5.85,.8,9.66,0,1.46-.31,2.49-.52,3.45-1.38,1.03-.92,1.08-1.78,2.07-2.07,1.16-.34,2.39,.45,2.76,.69,.71,.46,1.14,1.01,1.38,1.38,2.41-.41,4.27-.23,5.52,0,1.51,.28,2.47,.72,4.14,.69,1.48-.02,2.68-.39,3.45-.69v-2.76c-.51-.19-1.34-.58-2.07-1.38-1.5-1.64-1.41-3.7-1.38-4.14-2.3-1.38-4.6-2.76-6.9-4.14h-4.14c-.92-1.15-1.84-2.3-2.76-3.45h-2.76c0-.59-.07-1.67-.69-2.76-1.18-2.1-3.92-3.49-5.52-2.76-.91,.42-1.15,1.38-2.07,1.38-.58,0-.73-.38-1.38-.69-1.83-.89-3.32,.82-4.83,0-.78-.42-1.08-1.24-1.38-2.07-.21-.57-.75-2.05,0-3.45,.46-.85,1.15-.68,1.38-1.38,.3-.9-.37-2.27-1.38-2.76-1.04-.5-1.61,.33-3.45,0-.23-.04-.12-.04-2.07-.69-2.15-.72-2.4-.77-2.76-.69-.97,.21-.92,.93-2.07,1.38-1.27,.5-2.53,.08-2.76,0Z"/><path class="cls-1" d="M93.52,55.8c-1.95,1.43-3.6,2.6-4.83,3.45-4.37,3.03-6.55,4.54-7.59,4.83-1.16,.32-2.43,.49-2.76,1.38-.15,.42,0,.74,.69,2.76,.71,2.05,.78,2.35,.69,2.76-.19,.84-.81,.89-2.07,2.07-1.81,1.69-1.62,2.59-3.45,4.14-.43,.37-1.1,.93-2.07,1.38-2.11,.99-3.05,.25-6.21,.69-1.65,.23-1.16,.39-5.52,1.38-1.99,.45-2.14,.42-2.76,.69-2.38,1.01-3.71,2.84-4.14,3.45-.41,.59-1.02,1.45-1.38,2.76-.19,.69-.67,2.41,0,4.14,.56,1.45,1.25,1.18,2.07,2.76,1,1.92,.79,3.92,.69,4.83-.13,1.19-.44,2.14-.69,2.76,.63-.11,1.61-.31,2.76-.69,2.15-.71,3.13-1.46,5.52-2.76,4.05-2.2,3.94-1.52,5.52-2.76,2.15-1.69,1.75-2.48,4.14-4.14,1.75-1.22,3.43-1.82,4.14-2.07,1.08-.38,1.78-.51,2.76-.69,2.15-.4,2.57-.15,2.76,0,.45,.36,.28,.77,.69,2.07,.15,.48,.54,1.69,1.38,2.76,1,1.28,1.66,1.11,2.07,2.07,.56,1.33-.28,2.62,0,2.76,.34,.16,1.33-1.72,3.45-4.14,1.16-1.33,2.15-2.23,2.76-2.76,.67-.58,1.52-1.31,2.76-2.07,1.06-.65,2.02-1.09,2.76-1.38v-4.14c2.07-1.06,3.69-1.68,4.83-2.07,.68-.23,1.69-.54,2.76-1.38,.93-.73,.71-.91,1.38-1.38,.99-.69,2.5-.69,5.52-.69h2.07c-.12-.59-.25-1.59,0-2.76,.16-.74,.53-2.45,2.07-3.45,1.07-.69,2.19-.72,2.76-.69v-4.14c.07-.03,.55-.22,.69-.69,.15-.49-.12-1.09-.69-1.38-2.39-1.22-4.83-2.76-4.83-2.76-1.61-.48-3.61-1.07-6.21-.69-1.83,.27-3.14,.9-4.14,1.38-1.86,.9-3.24,1.96-4.14,2.76h-2.76c-.21-1.47-.12-2.65,0-3.45,.2-1.36,.65-2.66,.69-2.76,.33-.94,.55-1.29,.69-2.07,.15-.85,.08-1.58,0-2.07h-4.83Z"/><path class="cls-1" d="M54.19,102.04c-.51,.47-1.23,1.18-2.07,2.07-1.81,1.93-1.99,2.47-2.07,2.76-.28,1.03-.19,2.55,.69,3.45,.76,.78,1.61,.59,2.07,1.38,.39,.66,.2,1.5,0,2.07-.98,.4-2.45,1.06-4.14,2.07-3.32,1.97-5.41,4.06-6.21,4.83-4,3.88-8.75,6.89-13.11,10.35-3.11,2.47-7.59,6.01-13.11,10.35,.84,2.33,1.91,3.5,2.76,4.14,.04,.03,1.05,.8,2.07,2.07,.78,.98,.77,1.26,.69,1.38-.17,.25-.78-.04-1.38,0-1.44,.1-2.4,2.07-2.76,2.76-.89,1.73-2.49,4.12-5.52,7.59-.68,2.04-.41,2.98,0,3.45,.25,.29,.51,.35,.69,.69,.43,.78-.13,1.91-.69,2.76,3.22,2.53,6.44,5.06,9.66,7.59,.55,.52,1.42,1.51,1.38,2.76-.03,1.02-.65,1.81-1.38,2.76-1.19,1.53-2.08,1.84-2.07,2.76,0,.45,.23,.76,.69,1.38,.51,.69,1.5,2.05,2.76,2.07,.88,.02,1.52-.68,2.76-2.07,.84-.94,1.92-2.15,2.76-4.14,.9-2.13,.41-2.52,1.38-4.14,.4-.67,1.18-1.95,2.76-2.76,1.1-.57,2.14-.68,2.76-.69-.14-.76-.27-1.99,0-3.45,.32-1.74,1.05-2.96,1.38-3.45,1.29-1.96,2.99-2.85,4.14-3.45,1.36-.71,3.54-1.85,6.21-1.38,.9,.16,1.61,.46,2.07,.69,.48-.55,1.37-1.44,2.76-2.07,1.77-.81,3.38-.76,4.14-.69,.47-.97,1.48-2.73,3.45-4.14,2.37-1.7,4.78-1.94,6.21-2.07,2.88-.25,5.11,.37,6.21,.69,7.97,2.32,15.46,6.02,20.01,8.28,3.45,1.72,6.31,3.15,8.28,4.14,1,.5,2.11,1.34,2.76,2.76,.89,1.95,.31,3.96,0,4.83h-5.52c.54,.61,1.17,1.54,1.38,2.76,.28,1.64-.46,2.39,0,3.45,.54,1.24,1.87,.98,3.45,2.07,1.71,1.18,1.45,2.39,3.45,6.21,1.69,3.22,1.95,2.5,3.45,5.52,1.6,3.22,2.39,4.82,2.76,6.21,.1,.39,.4,1.61,1.38,2.76,.27,.32,.52,.55,.69,.69h3.45c.8-.94,1.55-1.26,2.07-1.38,1.41-.33,2.23,.54,3.45,0,.9-.4,1.32-1.25,1.38-1.38,.67-1.41-.47-2.26,0-3.45,.59-1.48,2.58-.77,4.14-2.76,.56-.71,.89-1.55,1.38-2.76,.38-.95,.57-1.43,.69-2.07,.38-2.11-.56-2.72,0-4.14,.34-.87,.73-.75,1.38-2.07,.17-.36,.34-.77,.69-2.07,.64-2.4,.96-3.6,.69-4.14-.52-1.03-1.67-.85-2.07-2.07-.06-.19-.26-.8,0-1.38,.36-.79,1.24-.77,1.38-1.38,.1-.44-.33-.64-.69-1.38-.5-1.03-.54-2.39,0-3.45,.15-.29,.52-1.01,1.38-1.38,.96-.41,1.86-.08,2.07,0-.27-2.08-.15-3.72,0-4.83,.05-.39,.05-.23,.69-3.45,.63-3.13,.68-3.53,.69-4.14,0-.04,0-.02,0-2.76v-.69c-.66-.15-1.66-.28-2.76,0-.6,.15-1.33,.56-2.76,1.38-1.64,.94-1.98,1.21-2.76,1.38-.84,.18-1.57,.1-2.07,0,.07,.48,.13,1.21,0,2.07-.1,.68-.21,1.42-.69,2.07-.85,1.17-2.34,1.34-2.76,1.38-1.82-.33-3.26-.17-4.14,0-.73,.14-1.36,.27-2.07,.69-.94,.56-.83,.93-2.07,2.07-1.25,1.15-1.9,1.27-2.07,2.07-.14,.65,.22,.89,0,1.38-.38,.83-1.94,1.26-2.76,.69-.51-.36-.59-1-.69-2.07-.22-2.24,.41-2.97,0-4.14-.3-.84-.91-1.27-2.07-2.07-2.21-1.53-4.44-1.83-6.21-2.07-1.7-.23-2.55-.34-3.45,0-1.35,.52-1.71,1.46-2.76,1.38-.65-.05-1.12-.49-2.07-1.38-.83-.78-1.39-1.31-1.38-2.07,.01-.74,.56-1.26,.69-1.38,.67-.64,1.55-.68,2.07-.69,1.61-.05,1.9,.74,3.45,.69,.51-.02,1.44-.04,2.07-.69,.4-.4,.5-.96,.69-2.07,.24-1.4,.43-2.53,0-2.76-.5-.27-1.21,.95-2.07,.69-.27-.08-.28-.22-1.38-1.38-.4-.43-.61-.64-.69-.69-.8-.5-1.65-.05-2.76,0-.64,.03-1.58-.07-2.76-.69-.6-3.29-.33-5.89,0-7.59,.22-1.11,.76-3.92,2.07-4.14,.13-.02,.28-.02,2.07,.69,1.55,.62,1.7,.73,2.07,.69,.87-.08,2.03-.87,2.07-2.07,.03-.85-.52-1.68-1.38-2.07v-3.45c1.19-.3,2.71-.89,4.14-2.07,1.55-1.28,1.96-2.42,2.07-2.76,.15-.46,.43-1.36,0-2.07-.19-.32-.34-.28-.69-.69-.45-.52-.97-1.47-.69-2.07,.22-.47,.83-.52,1.38-.69,1.94-.59,2.99-2.57,3.45-3.45,1.26-2.38,.86-4.75,.69-5.52,.43,.97,1.32,1.53,2.07,1.38,1.13-.22,1.36-1.92,1.38-2.07,.04-.35,0-.55-.69-2.76-.44-1.39-.62-1.93-.69-2.76-.05-.58-.03-1.07,0-1.38-.68-.14-1.63-.36-2.76-.69-1.01-.29-1.52-.44-2.07-.69-.7-.32-1.72-.91-2.76-2.07-.19,.31-.46,.77-.69,1.38-.09,.23-1.36,3.63,0,4.83,.52,.46,.93,.16,1.38,.69,.59,.7,.6,2.05,0,2.76-.27,.32-.51,.32-.69,.69-.21,.44-.08,.86,0,1.38,.11,.71-.02,.69,0,2.07,.04,2.72,.55,3.43,0,4.14-.2,.26-.58,.57-1.38,.69-.54,0-1.45,.07-2.07,.69-.56,.56-.61,1.53-.69,3.45h0c0,2.48,.28,2.98,0,3.45-.26,.44-.84,.61-2.07,.69-3.53,.22-7.75-.62-8.97,0-.17,.09-.58,.3-.69,.69-.09,.32,.1,.49,0,.69-.19,.4-1.35,.51-2.07,0-1.05-.75-.73-2.54-.69-2.76,.18-1.01,.87-2.44,2.07-2.76,.78-.21,.93,.28,3.45,.69,.86,.14,1.42,.18,2.07,0,.33-.09,.68-.29,1.38-.69,1.16-.66,1.75-1,2.07-1.38,.2-.23,1.04-1.22,.69-2.07-.18-.44-.6-.65-.69-.69-.52-.26-1.02-.06-1.38,0-.83,.14-1-.36-4.14-2.07-.41-.22-.96-.61-2.07-1.38-.43-.3-.62-.44-.69-.69-.2-.7,.77-1.54,1.38-2.07,2.29-1.96,3.44-2.94,4.14-3.45,1.83-1.33,3.03-2.45,4.83-4.14,3.12-2.92,2.48-2.94,4.14-4.14,1.2-.88,2.38-1.48,2.76-2.76,.1-.32,.2-.89,.69-1.38,.45-.46,1-.6,1.38-.69,.94-.23,1.18,.06,2.76,0,.88-.03,1.01-.13,1.38,0,.27,.09,.84,.36,1.38,1.38,.88,1.67,.09,2.38,.69,4.14,.39,1.14,.75,.94,2.07,3.45,.22,.42,.57,1.11,.69,2.07,.07,.57,.04,1.05,0,1.38h2.76c1.12-.85,1.37-1.56,1.38-2.07,0-.67-.4-.88-.69-2.07-.2-.82-.38-1.58,0-2.07,.49-.63,1.38-.07,2.07-.69,.45-.4,.24-.77,.69-2.76,.25-1.09,.38-1.65,.69-2.07,.45-.6,.8-.6,1.38-1.38,.3-.41,.6-.8,.69-1.38,.02-.12,.21-1.45-.69-2.07-.64-.44-1.52-.32-2.07,0-.72,.42-.63,1.05-1.38,1.38-.05,.02-.81,.35-1.38,0-.5-.31-.57-.97-.69-2.07-.14-1.3-.02-2.6,0-2.76,.09-.89,.18-1.11,0-1.38-.38-.57-1.22-.24-2.07-.69-.47-.25-1.03-.79-1.38-2.07"/><path class="cls-1" d="M117.68,82.03c.8,.26,1.98,.57,3.45,.69,1.52,.12,3.55,.28,5.52-.69,.64-.32,1.58-1.13,3.45-2.76,1.8-1.57,2.02-1.91,2.76-2.07,1.54-.32,3.54,.54,4.14,2.07,.05,.12,.42,1.12,0,2.07-.22,.48-.49,.63-1.38,1.38-1.21,1.03-1.82,1.54-2.07,2.07-.35,.72-.59,1.99,0,2.76,.17,.22,.26,.2,2.07,1.38,.4,.26,.62,.41,.69,.69,.1,.43-.24,.85-.69,1.38-.61,.73-.88,.75-1.38,1.38-.44,.55-.8,1.02-.69,1.38,.18,.57,1.47,.66,4.14,.69,3.98,.05,3.78-.11,4.83,0,1.62,.17,4.68,.49,6.21,2.76,1.17,1.74,.9,3.84,.69,4.83-4.3-.75-5.36-.43-5.52,0-.12,.32,.22,.77,.69,1.38,.95,1.25,1.6,1.2,2.07,2.07,.44,.8,.5,1.97,0,2.76-.5,.79-1.15,.53-2.07,1.38-1.04,.96-1.29,2.29-1.38,2.76-.11,.55-.01,.52,0,3.45v4.14c3.77,2.99,5.76,3.9,6.9,4.14,.23,.05,.88,.17,1.38,.69,.41,.43,.57,.97,.69,2.76,.1,1.49,.16,2.54,0,4.14-.16,1.59-.25,2.39-.69,2.76-.84,.7-2.43,.47-3.45,0-.79-.37-1.13-.84-1.38-.69-.36,.21,.25,1.18,0,2.76-.13,.8-.44,1.51-.69,2.07-.43,.98-.54,.85-.69,1.38-.07,.24-.15,.61,0,2.76,.07,.96,.1,1.1,0,1.38-.32,.94-1.29,1.34-1.38,1.38-.85,.34-1.59,.07-2.07,0-1.03-.14-2.57,.41-4.83,3.45"/><path class="cls-2" d="M23.13,185.54c0,.47-.02,1.19,0,2.07,.03,1.8,.12,2.18,0,2.76-.15,.73-.61,1.72-2.07,2.76v6.21c.34,.11,.86,.2,1.38,0,.51-.2,.57-.52,1.38-1.38,.75-.79,.96-.79,1.38-1.38,.38-.52,.58-1.03,.69-1.38-.24-.8-.48-2.1,0-3.45,.3-.84,.75-1.34,1.38-2.07,2.73-3.15,1.81-2.4,3.45-4.14,3.33-3.54,3.52-2.83,4.14-4.14,.93-1.97,.53-3.6,2.07-4.83,.32-.26,.75-.6,1.38-.69,1.58-.23,2.41,1.39,4.83,2.76,.67,.38,2.28,1.29,4.14,1.38,1.73,.08,3.08-.57,5.52-2.07,5.42-3.32,5.71-4.35,8.28-5.52,1.6-.73,3.83-.95,8.28-1.38,6.06-.59,9.09-.89,12.42,0,1.35,.36,2.43,.81,4.14,.69,2.27-.16,3.09-1.14,4.83-.69,1.34,.35,1.22,1.03,2.76,1.38,.75,.17,.91,.04,3.45,0h6.21c.26-.44,.96-1.77,.69-3.45-.45-2.87-3.28-4.07-3.45-4.14-5.68-2.99-10.4-5.29-13.8-6.9-1.99-.94-3.84-1.79-6.21-2.76-5.7-2.33-9.56-3.36-13.11-3.45-1.42-.04-3.04,.07-4.83,.69-.55,.19-1.61,.57-2.76,1.38-1.87,1.31-2.9,3-3.45,4.14-.76-.07-2.37-.12-4.14,.69-1.39,.63-2.29,1.52-2.76,2.07-.47-.22-1.18-.51-2.07-.69-4.36-.89-7.88,1.76-8.28,2.07-.82,.64-2.68,2.12-3.45,4.83-.61,2.15-.23,3.98,0,4.83-.72-.07-2.09-.08-3.45,.69-1.91,1.08-2.6,3.01-2.76,3.45-.29,.81-.19,1.05-.69,2.76-.3,1.04-.6,1.85-.69,2.07-.86,2.19-3.42,3.97-4.83,4.83Z"/><path class="cls-1" d="M19.68,182.78c-.52,.32-1.4,.96-2.07,2.07-.23,.39-1.5,2.5-.69,4.14,.56,1.13,1.6,1.02,2.07,2.07,.54,1.2,.22,2.95-.69,3.45-.91,.49-1.58-.7-3.45-.69-1.65,0-2.1,.94-4.14,1.38-1.43,.31-2.66,.16-3.45,0-.88,2.49-1.92,3.25-2.76,3.45-1.19,.28-2.1-.55-2.76,0-.62,.52-.61,1.92,0,2.76,.66,.91,1.58,.58,2.07,1.38,.56,.92,.05,2.49-.69,3.45-1,1.29-2.35,1.36-2.76,2.76-.06,.21-.16,.54,0,.69,.39,.38,1.62-1.03,3.45-1.38,2.2-.42,2.85,1.16,4.83,.69,1.86-.44,1.9-1.97,3.45-2.07,1.6-.1,1.93,1.49,4.14,2.07,2.2,.58,4.24-.38,4.83-.69,1.55-.81,1.38-1.5,4.14-4.14,1.55-1.49,2.33-2.23,3.45-2.76,.76-.36,1.89-.7,4.14-1.38,1.44-.44,1.61-.45,2.07-.69,.64-.33,2.11-1.09,2.76-2.76,.61-1.55,.17-2.97,0-3.45-.5,.2-2.85,1.07-5.52,0-2.88-1.15-3.96-3.7-4.14-4.14"/><path class="cls-1" d="M90.76,171.05c.68,1.07,.68,2.43,0,3.45-.95,1.43-2.67,1.38-2.76,1.38-.26,.9-.46,2.16,0,3.45,.63,1.75,2.02,2.24,3.45,3.45,2.85,2.42,4.67,6.68,4.14,10.35-.08,.58-.41,2.86-2.07,4.83-1.27,1.5-2.08,1.36-2.76,2.76-.73,1.49-.02,2.08-.69,4.83-.41,1.69-.76,1.83-.69,2.76,.1,1.33,.94,2.66,2.07,3.45,1.26,.87,1.94,.42,6.21,1.38,1.48,.33,2.37,.6,2.76,1.38,.4,.79,.1,1.76,0,2.07-.34,1.07-.92,1.25-1.38,2.07-.99,1.76-.35,4.48,.69,4.83,.51,.17,.74-.36,2.07-.69,.25-.06,1.72-.43,2.76,0,1.32,.54,1.71,2.27,2.07,3.45,.15,.5,1.94,3.56,5.52,9.66,2.23,3.8,2.84,4.63,2.76,6.21-.06,1.15-.45,2.08,0,3.45,.37,1.14,.88,1.2,2.07,2.76,1.08,1.42,2.51,3.79,3.45,5.52,.28,.51,.69,1.3,1.38,1.38,.46,.05,.81-.24,1.38-.69,1.77-1.38,2.66-2.07,3.45-2.07,.89,0,1.84,.64,2.07,1.38,.2,.65-.26,1.08,0,1.38,.39,.45,1.8-.03,2.76-.69,.63-.44,1.02-.93,1.38-1.38,.98-1.24,.74-1.59,1.38-2.07,.63-.48,1-.24,2.76-.69,.89-.23,1.47-.37,2.07-.69,1.59-.84,1.46-1.87,2.76-2.76,1.58-1.09,3.57-.8,4.14-.69,1.61,.31,1.63,1.07,4.14,2.07,1.39,.56,2.35,.93,3.45,.69,1.27-.27,2.05-1.21,2.76-2.07,5.44-6.57,6.29-7.41,7.59-7.59,1.34-.19,1.9,.51,3.45,0,1.49-.49,2.37-1.58,2.76-2.07,0,0,.73-.9,6.21-6.9,.35-.38,.13-.13,6.9-6.9,.2-.2,1.18-1.18,1.38-1.38,.33-1.48,.62-3.71,0-6.21-.71-2.85-1.87-3.14-2.76-6.21-.39-1.34-.12-1.13-.69-7.59-.31-3.54-.5-4.81-1.38-6.21-.76-1.22-1.51-1.68-2.76-2.76-1.46-1.26-3.46-3.23-5.52-6.21v-11.73c-3.28,.54-5.47-.03-6.9-.69-1.11-.51-1.95-1.17-3.45-1.38-.71-.1-1.95-.14-4.14,.69-4.54,1.72-5.41,4.25-8.97,4.83-1.2,.2-2.2,.09-2.76,0-.15-.48-.52-1.38-1.38-2.07-1.69-1.36-4.47-1.26-5.52,0-.58,.7-.27,1.3-.69,2.76-.47,1.62-1.4,2.76-2.07,3.45-1.15-.23-2.3-.46-3.45-.69"/><path class="cls-2" d="M114.22,78.58c-1.14-.12-3.38-.3-5.52,0-.66,.09-1.36,.24-2.07,.69-.72,.46-.91,.88-1.38,1.38-1.14,1.2-2.2,.99-4.83,2.07-.65,.27-1.62,.7-2.76,1.38v4.14c-.89,.17-2.16,.54-3.45,1.38-1.27,.83-1.52,1.45-2.76,2.76-3.22,3.41-5.78,3.75-6.21,6.21-.11,.6-.05,1.1,0,1.38-1.84,1.58-3.53,2.69-4.83,3.45-1.64,.96-3.05,1.59-4.14,2.07-1.36,.6-2.54,1.05-3.45,1.38-.11,.25-.82,1.89,0,3.45,.14,.26,.54,1.02,1.38,1.38,1.34,.58,2.75-.27,3.45-.69,.48-.29,1.35-.9,2.07-2.07h6.9c.22-.57,.63-1.37,1.38-2.07,.89-.83,1.17-.5,2.07-1.38,.66-.64,.97-1.26,2.07-2.07,.12-.09,.1-.06,.26-.19,.42-.32,.94-.84,5.26-4.64,1.29-1.13,3.18-2.8,5.52-4.83,.18-.13,.45-.36,.69-.69,.61-.86,.35-1.46,.69-2.07,.58-1.02,1.96-.32,3.45-1.38,.94-.67,.7-1.07,2.07-2.76,1.04-1.28,1.48-1.42,2.76-2.76,.73-.76,1.72-1.89,2.76-3.45-.1-.34-.29-.86-.69-1.38-.24-.3-.48-.53-.69-.69Z"/><path class="cls-2" d="M118.37,87.55c-.54,.61-1.02,1.07-1.38,1.38-1.11,.98-1.75,1.23-2.07,2.07-.06,.15-.37,.96,0,1.38,.43,.49,1.51,.17,2.07,0,.84-.25,1.1-.5,3.45-2.07,.72-.48,2.06-1.37,2.76-2.07l.69-.69c.19-.95-.43-1.88-1.38-2.07-.95-.19-1.88,.43-2.07,1.38l-2.07,.69Z"/><path class="cls-2" d="M121.82,122.05c-.57-.03-1.1,.32-1.38,.69-.71,.92-.17,2.31,0,2.76,.28,.73,.49,.7,.69,1.38,.07,.25,.29,1.13,0,2.07-.36,1.15-1.1,1.16-1.38,2.07-.29,.93,.36,1.34,.69,2.76,.58,2.52-.8,4.1,0,4.83,.26,.24,.81,.43,2.07,0-.81-4.58-.5-6.95,0-8.28,.32-.86,.45-1.26,.69-2.07,.54-1.77,.81-2.68,.69-3.45-.17-1.16-.96-2.69-2.07-2.76Z"/><path class="cls-2" d="M34.86,131.72c1.64-1.12,2-.63,4.14-2.07,1.3-.87,2.09-1.67,2.76-1.38,.48,.21,.7,.88,.69,1.38-.01,.93-.8,1.6-1.38,2.07-4.92,4.04-5.5,4.49-6.9,4.83-.92,.22-2.38,.57-2.76,0-.54-.82,1.28-3.35,3.45-4.83Z"/></g></g></svg>