<?xml version="1.0" encoding="UTF-8"?><svg id="Calque_2" xmlns="http://www.w3.org/2000/svg" viewBox="0 0 116.05 140.36"><defs><style>.cls-1{fill:none;stroke:#000;stroke-miterlimit:10;stroke-width:1.06px;}</style></defs><g id="Calque_5"><g><path class="cls-1" d="M29.68,86.71c-.38-1.54-.77-3.08-1.15-4.62-2.75-.41-15.58-2.63-23.09-13.86C-1.66,57.65,.64,46.03,1.96,39.37c2.59-13.06,9.9-21.34,12.7-24.25C23.07,6.43,32.38,3.33,35.45,2.42c15.65-4.63,28.83,.44,33.48,2.31,14.45,5.8,22.26,16.21,26.56,21.94,4.67,6.22,7.52,12.06,9.24,16.17-5.39,3.46-10.78,6.93-16.17,10.39-1.88-.26-4.12-.84-4.62-2.31-.41-1.23,.63-2.39,1.15-3.46,2.14-4.39-2.54-11.58-5.77-15.01-4.85-5.14-10.64-6.29-19.63-8.08-9.29-1.85-14.3-2.85-19.63,0-.45,.24-8.19,4.53-9.24,12.7-.32,2.49-.06,5.66,2.31,10.39,6.06,12.08,18.22,19,24.25,21.94-1.2,1.23-3.12,2.99-5.77,4.62-3.49,2.14-6.4,2.91-8.08,3.46-3.47,1.15-8.32,3.56-13.86,9.24Z"/><path class="cls-1" d="M41.22,23.21c-1.18,.4-1.72,2.84-1.15,4.62,.39,1.23,1.42,1.99,3.46,3.46,2.04,1.47,3.95,2.84,4.62,2.31,.87-.7-.94-4.2-1.15-4.62-1.25-2.42-4.04-6.37-5.77-5.77Z"/><path class="cls-1" d="M47,27.83c.22-.44,.58-.97,1.15-1.15,2.11-.69,5.18,3.76,5.77,4.62,3.15,4.56,4.28,10.01,3.46,10.39-.52,.24-1.46-1.77-4.62-4.62-1.8-1.62-3.46-2.75-4.62-3.46"/><path class="cls-1" d="M59.7,31.29c-1-.03-2.04,2.53-2.31,4.62-.46,3.6,1.28,6.42,2.31,8.08,.74,1.19,2.34,3.78,3.46,3.46,1.09-.3,1.23-3.14,1.15-4.62-.09-1.73-.53-2.44-2.31-6.93-1.46-3.68-1.71-4.6-2.31-4.62Z"/><path class="cls-1" d="M65.47,42.84c.68,.24,1.6,.43,2.31,0,.69-.42,.73-1.14,1.15-2.31,1.04-2.89,2.53-3.26,2.31-4.62-.22-1.35-1.88-2.11-2.31-2.31-3.13-1.43-6.57,.9-6.93,1.15"/><path class="cls-1" d="M73.55,32.44c-.74-.17-1.79,1.15-2.31,2.31-.92,2.07,.08,3.15,0,6.93-.06,2.79-.66,4.26,0,4.62,.58,.32,1.68-.47,2.31-1.15,1.6-1.74,1.45-4.22,1.15-8.08-.2-2.56-.35-4.43-1.15-4.62Z"/><path class="cls-1" d="M75.86,40.53c.35-.51,1.68-2.43,3.46-2.31,1.9,.13,3.01,2.49,3.46,3.46,1.68,3.59,.34,7.16,0,8.08-.77,2.05-2.01,3.6-2.31,3.46-.34-.15,.88-2.26,0-3.46-.93-1.27-3.07,.04-4.62-1.15-1.84-1.42-1.78-5.52,0-8.08Z"/><path class="cls-1" d="M80.48,54.38c.49-.13,1.35-.27,2.31,0,1.93,.53,3.62,2.51,3.46,4.62-.14,1.86-1.65,2.97-2.31,3.46-.54,.4-2.65,1.96-4.62,1.15-1.77-.72-2.87-3.13-2.31-5.77"/><path class="cls-1" d="M80.48,53.23c.76,1.3,.72,2.73,0,3.46-.93,.95-2.68,.42-3.46,0-2.21-1.18-3.02-4.87-2.31-9.24"/><path class="cls-1" d="M42.38,33.6c-.68,2.28-.32,3.8,0,4.62,.52,1.35,1.46,2.25,8.08,5.77,4.65,2.47,5.37,2.66,5.77,2.31,.98-.85-.45-4.51-2.31-6.93-3.34-4.33-8.71-5.44-11.55-5.77Z"/><path class="cls-1" d="M34.29,34.75c1.43,1.87,3.2,4.56,4.62,8.08,1.46,3.62,2.06,6.86,2.31,9.24"/><path class="cls-1" d="M44.69,41.68c10.07,6.53,11.87,8.6,11.55,9.24-.51,1-6.47-1-6.93-1.15-3.07-1.04-5.4-2.42-6.93-3.46"/><path class="cls-1" d="M55.08,47.45c2.45,.61,3.82,1.55,4.62,2.31,.68,.65,1.04,1.25,2.31,2.31,.74,.62,1.23,.93,1.15,1.15-.12,.34-1.4,.23-2.31,0-1.04-.27-1.81-.77-2.31-1.15"/><path class="cls-1" d="M55.08,56.69c-.48-1.18,.05-2.97,1.15-3.46,.83-.38,1.71,.13,3.46,1.15,1.94,1.13,2.23,2.01,2.31,2.31,.09,.33,.21,.79,0,1.15-.77,1.37-5.96,1.24-6.93-1.15Z"/><path class="cls-1" d="M53.92,61.31c.96,.1,2.13,.14,3.46,0,1.92-.2,3.49-.69,4.62-1.15"/><path class="cls-1" d="M50.46,52.07c-1.8-.2-3.2,.32-3.46,1.15-.27,.84,.68,1.82,1.15,2.31,1.83,1.88,4.37,2.24,5.77,2.31"/><path class="cls-1" d="M62.01,48.61c.67,.31,2.64,1.25,3.46,2.31,.08,.11,.15,.2,.15,.2,.83,1.17,.76,2.07,1.01,2.11,.18,.03,.5-.38,1.15-2.31"/><path class="cls-1" d="M68.93,49.76c.18-.06,1.95-.7,2.31-2.31,.1-.44,.07-.84,0-1.15"/><path class="cls-1" d="M67.78,57.85c-.57-.98-.45-2.01,0-2.31,.49-.33,1.65-.02,2.31,1.15"/><path class="cls-1" d="M57.39,69.39c.81,.16,2.04,.29,3.46,0,3.31-.67,5.56-3.21,5.77-3.46,1.41-1.63,2.02-3.39,3.46-3.46,.35-.02,.55,.07,1.15,0,.33-.04,1.96-.23,2.31-1.15,.19-.5-.19-.71,0-1.15,.3-.71,1.42-.5,2.31-1.15,.46-.33,.96-.97,1.15-2.31"/><path class="cls-1" d="M16.97,12.81c-1.6,1.44-3.8,3.72-5.77,6.93-3.24,5.28-4.04,10.14-4.62,13.86-.42,2.7-1.15,7.64,0,13.86,.79,4.27,2.12,7.31,3.46,10.39,1.36,3.11,2.92,6.69,5.77,10.39,2.03,2.64,5.95,6.95,12.7,10.39v3.46"/><path class="cls-1" d="M28.52,79.78c.53-.11,1.35-.21,2.31,0,2.01,.43,3.14,1.87,3.46,2.31"/><path class="cls-1" d="M49.3,75.17c2.6,.9,3.91,.57,4.62,0,.6-.48,.92-1.25,1.15-1.15,.23,.09,.07,.88,0,2.31-.07,1.39,.03,1.84,0,2.31-.17,2.33-3.59,4.09-4.62,4.62-.65,.33-7.08,3.65-9.24,1.15-1-1.15-.93-3.34,0-4.62,.87-1.21,2.12-1.06,4.62-2.31,1.55-.78,2.71-1.66,3.46-2.31Z"/><path class="cls-1" d="M57.39,90.18c-.86,1.15-.15,3.06,0,3.46,.57,1.53,1.68,2.29,3.46,3.46,1.82,1.2,4.16,2.7,6.93,2.31,.41-.06,2.06-.29,2.31-1.15,.18-.62-.48-1.12-1.15-2.31-.93-1.63-.75-2.52-1.15-3.46-1.4-3.22-8.7-4.57-10.39-2.31Z"/><path class="cls-1" d="M73.55,78.63c-.41,.4-1.27,1.28-1.15,2.31,.14,1.21,1.56,1.93,2.31,2.31,2.98,1.51,6.66,1.18,9.24,0,.29-.13,1.35-.86,3.46-2.31,.79-.54,1.13-.79,1.15-1.15,.06-1.12-2.91-2.12-3.46-2.31-.35-.12-7.79-2.54-11.55,1.15Z"/><path class="cls-1" d="M80.48,63.62c-.25,.52-.65,1.33-1.15,2.31-.96,1.84-1.07,1.88-1.15,2.31-.34,1.74,1,3.63,2.31,4.62,.52,.4,1.75,1.33,3.46,1.15,2.24-.23,3.37-2.15,3.46-2.31,.96-1.69,.37-3.46,0-4.62-.81-2.51-2.59-3.99-3.46-4.62"/><path class="cls-1" d="M94.34,91.33c-.79-.23-1.74-.49-2.31,0-.8,.68-.44,2.42,0,3.46,.36,.86,.86,1.43,3.46,3.46,2.75,2.15,4.04,2.96,5.77,3.46,1.55,.45,2.07,.25,2.31,0,.38-.41,.14-1.08,0-2.31-.26-2.22,.24-2.48,0-3.46-.5-2.07-3.41-2.92-9.24-4.62Z"/><path class="cls-1" d="M100.11,82.09c.03-.37,.39-.54,1.15-1.15,1.22-.99,1.57-1.58,2.31-2.31,.96-.94,3.61-3.54,6.93-3.46,.4,0,3.48,.08,4.62,2.31,.54,1.05,.54,2.4,0,3.46-.24,.47-.78,1.28-3.46,2.31-2.5,.96-5.09,1.96-8.08,1.15-1.58-.43-3.53-1.42-3.46-2.31Z"/><path class="cls-1" d="M56.23,119.04c-.31-.92,1.07-2.23,1.15-2.31,.51-.47,1-.69,2.31-1.15,1.95-.7,2.92-1.05,3.46-1.15,.39-.08,1.31-.24,4.62,0,4.77,.34,5.45,.86,5.77,1.15,.97,.88,1.68,2.46,1.15,3.46-.38,.73-1.32,.94-3.46,1.15-4.03,.4-6.9,.27-10.39,0-3.18-.25-4.37-.42-4.62-1.15Z"/><path class="cls-1" d="M74.71,109.81c.11-1.12,1.41-1.83,2.31-2.31,1.86-1.01,3.58-1.07,6.93-1.15,4-.1,4.29,.49,5.77,0,.21-.07,.8-.28,1.15,0,.52,.41,.26,1.65,0,2.31-.26,.65-.98,1.86-5.77,3.46-3.45,1.16-5.21,1.72-6.93,1.15-1.65-.54-3.61-2-3.46-3.46Z"/><path class="cls-1" d="M100.11,112.11c.87-1.24,2.83-1.18,3.46-1.15,1.19,.04,1.98,.42,3.46,1.15,2.82,1.4,4.23,2.09,4.62,3.46,.42,1.49-.7,2.48,0,3.46,.69,.96,2.15,.55,2.31,1.15,.19,.7-1.54,2.23-3.46,2.31-1.16,.05-1.42-.47-3.46-1.15-2.89-.97-3.38-.27-4.62-1.15-1.47-1.05-1.89-2.82-2.31-4.62-.36-1.53-.61-2.59,0-3.46Z"/><path class="cls-1" d="M68.93,132.9c-.12,.38,.59,.73,2.31,2.31,2.49,2.29,2.22,2.67,3.46,3.46,1.85,1.17,3.77,1.16,5.77,1.15,1.81,0,3.38-.04,4.62-1.15,.22-.2,1.35-1.22,1.15-2.31-.06-.33-.34-1.25-3.46-2.31-2.18-.74-3.9-.91-6.93-1.15-5.9-.47-6.8-.39-6.93,0Z"/></g></g></svg>