<?xml version="1.0" encoding="UTF-8"?><svg id="Calque_2" xmlns="http://www.w3.org/2000/svg" viewBox="0 0 140.81 141.78"><defs><style>.cls-1{fill:none;stroke:#000;stroke-miterlimit:10;stroke-width:.75px;}</style></defs><g id="Calque_2-2"><g><path class="cls-1" d="M54.89,59.9c-3.04-2.87-7.51-7.78-11-15-2.18-4.51-4.68-14.25-5-19-.04-.59-.07-1.45-.5-2.5-.98-2.37-2.73-2.57-4-5-.91-1.75-.7-2.99-1-3-.71-.03-2.54,6.77-2,13,1.03,11.85,10.64,21.76,12,21,1.49-.83-4.36-15.92-15-25-1.51-1.29-4.59-3.88-6-3-1.78,1.11-.28,7.36,2,12,4.03,8.19,11.53,13.46,12,13,.47-.47-4.7-8.4-13-12-4.5-1.95-10.83-3.03-12-1-.88,1.53,.9,5.32,12,15"/><path class="cls-1" d="M46.39,54.4c-1.32-1.67-4.99-5.83-11-7-1.53-.3-7.83-1.52-11,2-.73,.82-1.95,2.17-2,4-.04,1.56,.78,2.89,0,4-.44,.62-1.06,.73-1,1,.11,.53,2.37-.23,4,1,1.03,.78,.95,1.7,2,2,.78,.23,1.02-.23,2,0,.96,.23,1.02,.73,2,1,.93,.25,1.28-.09,2,0,1.51,.2,2.19,2,3,3,.97,1.2,3.04,2.39,8,2"/><path class="cls-1" d="M25.39,59.4c2.33-.33,4.67-.67,7-1h0c.49-.55,.94-1.04,1-1,.14,.11-2.59,3.29-2,4,.15,.18,.49,.15,4-1,1.31-.43,2.67-.89,3-1,1.27-.43,2.31-.77,3-1"/><path class="cls-1" d="M42.39,57.4c.18-.2,.9-.94,2-1,1.23-.07,2.43,.72,3,2"/><path class="cls-1" d="M23.39,55.4c1.01-.67,2.34-1.42,4-2,2.84-1,5.37-1.08,7-1"/><path class="cls-1" d="M22.39,48.4c-3.87,1.43-6.38,1.37-8,1-.47-.11-1.73-.44-2,0-.23,.37,.38,1.08,1,2,1.16,1.73,1.29,2.61,2,4,1.37,2.68,3.68,4.8,5,6,4.81,4.41,10.54,6.3,13,7"/><path class="cls-1" d="M16.39,57.4c.7,1.07,.65,2.34,0,3-.99,1-2.85,.08-3,0-.4-.2-.64-.43-2-2-1.49-1.72-1.71-2.05-2-2-.72,.12-1.05,2.46-1,4,.04,1.21,.39,5.19,7,11,2.9,2.56,8.08,6.41,16,9"/><path class="cls-1" d="M41.39,79.4c-1.59,.03-7.02-.06-12-4-6.1-4.82-6.88-11.75-7-13"/><path class="cls-1" d="M39.39,75.4c-1.28,.02-3.06,.22-5,1-.76,.31-1.43,.65-2,1"/><path class="cls-1" d="M32.39,69.4c1.49,.47,3.18,1.11,5,2,1.98,.98,3.65,2.03,5,3"/><path class="cls-1" d="M16.39,57.4c-.23,.31-.56,.67-1,1-1.17,.87-2.43,.99-3,1"/><path class="cls-1" d="M8.39,60.4c-.46,.3-1.13,.68-2,1-2.27,.84-3.59,.38-4,1-.35,.54,.03,1.82,3,5"/><path class="cls-1" d="M11.39,67.4c-2.2-.5-3.92-.27-5,0-.76,.19-1.96,.49-2,1-.05,.67,1.92,1.4,4,2"/><path class="cls-1" d="M16.39,73.4c-1.59-1.1-4.34-2.66-8-3-2.03-.19-5.7-.14-6,1-.19,.74,1,2.14,7,5"/><path class="cls-1" d="M12.39,74.4c-.09,0-1.61,.06-2,1-.09,.22-.14,.52,0,1,.48,1.72,2.4,2.71,3,3,1.58,.76,2.74,.79,4,1,1.18,.2,6.15,1.02,8,4,1.48,2.38,.58,5.48,0,7"/><path class="cls-1" d="M5.39,74.4c-2.28,1.85-2.07,2.79-2,3,.37,1.15,3.16,1.51,7,1"/><path class="cls-1" d="M3.39,77.4c.29,.71,.88,1.88,2,3,.54,.54,1.53,1.4,3,2"/><path class="cls-1" d="M25.39,84.4c-4.52,.54-9.95,.73-16,0-2.13-.26-4.13-.6-6-1"/><path class="cls-1" d="M8.39,82.4c-2.08,.22-3.76,.63-5,1-1.75,.52-1.98,.79-2,1-.06,.67,1.98,1.42,4,2-.64,.63-1.63,1.43-3,2-1.1,.45-1.89,.53-2,1-.17,.73,1.47,1.69,2,2,1.58,.92,3.61,1.68,7,2,1.48,.14,3.53,.23,6,0"/><path class="cls-1" d="M49.39,82.4c-2,.58-4.8,1.51-8,3-3.78,1.77-7.14,3.33-7,5,.03,.35,.3,1.78,5,3"/><path class="cls-1" d="M56.39,88.4c-3,.9-5.43,1.57-7,2-2.28,.62-9.9,2.66-18,6-1.65,.68-3.05,1.3-3,2,.08,1.17,4.21,1.9,7,2,2.92,.1,5.34-.47,7-1-.73,1.77-.32,3.78,1,5,1.63,1.51,3.81,1.04,4,1-.28-3.01,.52-5.03,1-6,.76-1.53,1.88-2.77,3-4,.78-.87,1.49-1.54,2-2"/><path class="cls-1" d="M55.39,92.4c-.33,.42-.77,1.09-1,2-.3,1.21,.05,1.73,0,3-.09,2.38-1.42,2.84-1,4,.47,1.28,2.44,1.68,4,2,1.44,.29,2.28,.46,3,0,1.51-.97,1.15-3.85,1-5-.13-1.05-.54-2.94-2-5"/><path class="cls-1" d="M22.39,91.4c-1.11-.03-4.06,.05-7,2-3.65,2.42-4.74,6.05-5,7-2.35-.79-3.44-.47-4,0-.33,.28-.43,.57-1,1-1.06,.8-1.94,.7-2,1-.11,.56,2.8,1.58,4,2,6.17,2.14,9.32,3.21,12,3,.68-.05,1.95-.2,2,0,.06,.26-2.04,.57-4,2-1.74,1.28-3.69,3.68-3,5,.53,1.02,2.46,1.01,3,1"/><path class="cls-1" d="M28.39,108.4c-2.52,.65-5.38,1.83-8,4-2.3,1.91-4.38,4.54-4,5,.22,.26,1.12-.36,3-1,2.37-.8,4.01-.84,5-1,1.92-.31,4.64-1.59,8-6"/><path class="cls-1" d="M33.39,100.4c-4.45,2-9.37,4.54-9,6,.05,.2,.24,.54,2,1,1.78,.46,6.74,1.75,12-1,1.03-.54,2.5-1.46,4-3"/><path class="cls-1" d="M10.39,103.4c5.98-1.31,7.87-1.39,8-1,.15,.46-2.17,1.43-2,2,.16,.54,2.43,.37,5,0"/><path class="cls-1" d="M13.39,99.4c1.83-.01,4.26-.22,7-1,2-.57,3.68-1.31,5-2"/><path class="cls-1" d="M29.39,112.4c-.69,.92-2.11,3.11-2,6,.14,3.7,2.75,7.3,4,7,.36-.09,.76-.53,1-2"/><path class="cls-1" d="M25.39,115.4c-1.99,8.08-2.32,12.41-1,13,.9,.4,2.57-.93,5-4"/><path class="cls-1" d="M25.39,117.4c-.38,.08-2.01,.47-3,2-1,1.54-.96,3.61,0,5,.33,.48,.72,.8,1,1"/><path class="cls-1" d="M29.39,124.4c-2.15,5.42-2.32,6.83-2,7,.38,.2,1.34-1.43,4-3,.79-.47,1.41-.74,2-1,3.12-1.36,5.45-1.59,7-2,1.84-.49,4.34-1.7,7-5"/><path class="cls-1" d="M46.39,112.4c-2.8,2.54-3.25,3.57-3,4,.26,.44,1.32,.37,2,0,1.13-.61,1.67-2.29,1-4Z"/><path class="cls-1" d="M32.39,121.4c2.92,0,7.43-.45,12-3,1.13-.63,2.13-1.32,3-2"/><path class="cls-1" d="M32.39,121.4c1.19,.45,2.9,.94,5,1,3.78,.11,6.64-1.24,8-2"/><path class="cls-1" d="M57.39,105.4c-.28,2.3-1,5.27-3,8-2.69,3.67-6.12,4.79-6,5,.17,.3,7.32-1.81,11-8,.46-.77,.78-1.46,1-2"/><path class="cls-1" d="M50.39,105.4c-.41,.32-1.53,1.29-2,3-.37,1.35-.14,2.48,0,3"/><path class="cls-1" d="M41.39,125.4c-.93,1.35-2.12,3.36-3,6-1.04,3.11-1.55,6.82-1,7,.44,.14,1.52-1.93,2-3,.58-1.29,.64-1.91,1-3,.95-2.85,2.73-5.13,3-5,.22,.11-1.43,2.26-2,6-.31,2.05-.09,3.19-1,5-.59,1.18-1.2,1.73-1,2,.35,.48,3.03-.22,5-2,3.01-2.73,2.52-6.33,5-7,.7-.19,.65,.13,2,0,2.68-.25,4.54-1.64,5-2,1.84-1.44,2.67-3.17,3-4"/><path class="cls-1" d="M59.39,125.4c.23,.46,.57,1.16,1,2,1.73,3.41,1.79,3.3,2,4,.69,2.25,.06,3.3,1,4,.58,.43,1.14,.27,2,1,.63,.54,.83,1.06,1,1,.29-.1-.46-1.53,0-3,.49-1.56,1.91-1.77,2-3,.06-.8-.49-1.5-1-2"/><path class="cls-1" d="M63.39,122.4c.44,1.67,.83,3.69,1,6,.14,1.86,.11,3.54,0,5"/><path class="cls-1" d="M68.39,112.4c-2.88,3.99-4.77,5.95-6,7-.91,.77-1.27,1.18-2,2-.81,.91-2.31,2.59-2,3,.32,.41,2.36-.66,3-1,1.66-.87,2.76-1.8,3-2,2.85-2.42,5.21-5.82,6-7"/><path class="cls-1" d="M63.39,99.4c-.47,1.68-.47,2.68,0,3,.56,.39,1.43-.42,2,0,.62,.46,.4,1.99,0,3-.46,1.17-1.19,1.71-1,2,.25,.38,1.6-.43,2,0,.56,.61-1.65,2.67-1,4,.54,1.1,2.7,1.01,3,1,2.17-.09,3.6-1.56,4-2"/><path class="cls-1" d="M71.39,114.4c1.34-.4,1.82-.23,2,0,.38,.47-.39,1.29,0,2,.41,.74,1.52,.34,2,1,.59,.8-.48,2.14-1,4-.32,1.13-.53,2.78,0,5-.83,.38-.97,.88-1,1-.15,.64,.38,1.27,1,2,.52,.62,.66,.59,1,1,.71,.85,.7,1.67,1,3,.16,.72,.45,1.76,1,3"/><path class="cls-1" d="M77.39,111.4c-.8,1.03-1.86,2.75-2,5-.02,.35-.02,.68,0,1"/><path class="cls-1" d="M77.39,111.4c.63,1.62,.89,3.01,1,4,.11,.97,.16,1.47,0,2-.61,1.97-3.13,2.68-3,3,.13,.32,2.41-.72,3,0,.52,.62-.82,1.88-1,4-.15,1.67,.59,2.01,1,4,.52,2.51-.39,3.23-1,9-.26,2.44-.4,3.87,0,4,.58,.19,2.14-2.36,3-5,.87-2.66,.55-3.97,1-7,.25-1.67,.77-4.1,2-7"/><path class="cls-1" d="M68.39,131.4c.73,.07,1.88,.28,3,1,1.3,.83,1.61,1.73,3,3,.6,.55,1.57,1.31,3,2"/><path class="cls-1" d="M67.39,98.4c1.96,2.26,2.23,3.88,2,5-.28,1.4-1.35,2.1-1,3,.35,.9,1.89,1.48,3,1,1.47-.63,1.66-2.88,1-4-.3-.51-.54-.39-1-1-.88-1.17-.42-2.16-1-3-.35-.51-1.13-1.02-3-1Z"/><path class="cls-1" d="M55.39,86.4c.09-.24,.24-.21,1-1,.72-.76,.74-.95,1-1,.66-.13,1.69,.87,2,2,.24,.87-.13,1.12,0,3,.05,.74,.12,.9,0,1-.66,.51-4.53-2.68-4-4Z"/><path class="cls-1" d="M60.39,85.4c.75,.37,1.66,.99,2,2,.38,1.12-.3,1.64,0,3,.12,.55,.75,1.38,2,3,1.4,1.82,1.69,2.06,2,2,.72-.13,.96-1.74,1-2,.29-1.95-.7-3.53-1-4-.32-.5-.93-1.3-2-2"/><path class="cls-1" d="M66.39,89.4c1.59-2.28,2.98-2.89,4-3,.85-.09,1.32,.18,3,0,1.07-.11,1.5-.29,2,0,.69,.41,.87,1.35,1,2,.17,.86,.08,1.58,0,2-.09,.49-.85,4.07-4,5-2.54,.75-4.72-.79-5-1"/><path class="cls-1" d="M66.39,95.4c.07,.1,.77,1,2,1,.12,0,1.27-.02,2-1"/><path class="cls-1" d="M71.39,95.4c-.04,.1-.24,.61,0,1,.38,.61,1.62,.61,2,0,.24-.39,.04-.9,0-1"/><path class="cls-1" d="M76.39,90.4c.07,1.22,.29,3,1,5,.92,2.6,2.54,5.18,3,5,.37-.14-.55-1.86-1-6-.12-1.09-.18-2.15-1-3-.63-.65-1.44-.9-2-1Z"/><path class="cls-1" d="M75.39,86.4c.46-1.35,.86-3.13,0-4-.69-.7-1.81-.42-2-1-.22-.65,.87-1.97,2-2,1.36-.04,1.6,1.83,3,2,1.57,.19,2.08-2.07,5-3,1.07-.34,2.67-.58,3,0,.28,.49-.45,1.46-1,2-1.7,1.67-3.54,1.07-5,2-1.08,.68-2.21,2.37-2,7"/><path class="cls-1" d="M81.39,101.4c-1.08,1.93-2,4.36-1,6,.31,.51,1.21,1,3,2,3.2,1.78,4.15,1.7,5,3,.25,.38,.49,.87,1,1,.67,.17,1.54-.34,2-1,.76-1.09,.18-2.26,0-5-.09-1.31-.04-2.37,0-3"/><path class="cls-1" d="M91.39,100.4c.46,1.31,1.31,3.01,3,4,1.05,.61,1.61,.47,4,1,1.77,.39,3.83,.86,6,2,.54,.28,3.25,1.75,4,4,.14,.41,.18,.77,0,1-.56,.72-2.79-.38-3,0-.18,.32,1.24,1.4,2,2,3.85,3.04,5.37,5.1,8,7,1.51,1.08,2.26,1.63,2.66,1.79,.06,.02,.36,.14,.34,.21-.05,.21-2.8-.48-3,0-.16,.4,1.66,1.04,3,3,.87,1.27,1.32,2.78,1,3-.47,.32-2.49-2.33-3-2-.56,.36,1.22,3.89,1,4-.32,.16-4.19-7.34-5-7-.24,.1-.16,1.07,0,3,.16,1.91,.35,2.82,0,3-.36,.18-.83-.66-2-1-.78-.23-1.51-.12-2,0-.09,.2-.47,1-1,1-.42,0-.71-.52-1-1-.44-.73-1.08-1.75-2-3-.01,.69-.02,1.73,0,3,.09,5.15,.58,6.76,0,7-.76,.32-2.93-1.87-3-4-.01-.41,.06-.55,0-1-.18-1.29-1.08-2.22-2-3-2.16-1.82-4.43-3.74-6-3-1.29,.61-.58,2.29-2,4-2.42,2.9-7.97,2.22-8,2-.01-.07,.61-.17,3-1,1.58-.55,2-.76,2-1,0-.36-.9-.52-2-1-1.37-.6-2.35-1.39-3-2"/><path class="cls-1" d="M88.39,82.4c-.9-.36-1.76-.08-2,0-.83,.28-1.87,1.02-2,2-.12,.94,.7,1.31,3,4,1.37,1.61,1.59,2.07,2,2,.94-.15,1.52-2.82,1-5-.18-.74-.58-2.44-2-3Z"/><path class="cls-1" d="M102.39,106.4c-3.06-5.3-3.35-6.73-3-7,.45-.34,1.84,1.24,5,3,1.72,.95,5.72,3.18,7,2,.67-.61,0-1.61,0-5,0-1.96-.01-4.64,1-5,.94-.34,1.68,1.72,4,2,.13,.02,2.27,.24,3-1,.48-.82,.08-1.81,0-2-.7-1.72-2.88-1.99-3-2"/><path class="cls-1" d="M112.39,92.4c2.64-1.17,4.65-2.23,6-3,1.79-1.01,2.48-1.52,4-2,1.8-.57,2.9-.51,3-1,.13-.62-1.4-1.67-3-2-2.04-.41-3.64,.46-5,1-1.92,.77-4.83,1.47-9,1"/><path class="cls-1" d="M96.39,90.4c2.01,2.02,2.21,3.25,2,4-.19,.69-1,1.99-1,2h0c-.91-.16-1.9-.27-2,0-.13,.36,1.5,.89,2,2,.45,1,.08,2.75-3,6"/><path class="cls-1" d="M92.39,77.4c1.67,.85,2.01,1.53,2,2,0,.76-.91,1.06-1,2-.04,.48,.14,.99,1,2,1.53,1.79,2.83,3.32,4,3,1.1-.3,1.43-2.04,2-5,.39-2.06,.58-3.11,0-4-.93-1.43-3.01-1.37-3-2,.01-.71,2.62-.69,3-2,.21-.73-.3-1.76-1-2-1.18-.41-1.98,1.69-4,2-1.88,.29-2.74-1.3-5-2-1.48-.46-3.72-.59-7,1"/><path class="cls-1" d="M100.39,82.4c.91,.23,1.92,.55,3,1,2.14,.9,3.8,2.03,5,3"/><path class="cls-1" d="M117.39,89.4c.83-.04,2.24-.08,4,0,3.61,.17,5.02,.7,7,0,1.53-.54,1.26-1.06,3-2,4.26-2.3,8.47-.57,9-2,.3-.8-.83-1.85-1-2-1.64-1.47-4.7-1.04-6.56,.13-.78,.49-1.21,1.02-1.44,.87-.35-.23-.02-1.87,1-3,1.26-1.39,2.86-1.19,3-2,.12-.7-.92-1.64-2-2-1.68-.55-3.32,.37-6,2-6.81,4.15-8.42,5.65-10,5-1.27-.52-1.08-1.82-3-3-1.47-.9-3.02-1.02-4-1"/><path class="cls-1" d="M113.39,80.4c4.14,1.44,5.7,1.52,6,1,.39-.69-1.48-2.35-1-3,.39-.53,1.95,.15,2,0,.09-.24-3.81-2.61-9-3-1.23-.09-2.26-.06-3,0"/><path class="cls-1" d="M92.39,72.4c2-.67,4-1.33,6-2,.67-1.33,1.33-2.67,2-4h0c-.43-.87-1.14-2.01-2-2-1.08,.01-1.42,1.81-3,3-1.03,.78-2.59,1.29-5,1"/><path class="cls-1" d="M86.39,69.4c1.74-.68,3.08-1.42,4-2,1.6-1,1.96-1.49,2-2,.06-.78-.66-1.05-1-2-.17-.47-.33-1.36,1-4,1.64-3.25,2.47-4.89,4-5,1.27-.09,2.8,.88,3,2,.22,1.27-1.42,1.9-3,5,0,0,0,0-1,2h0"/><path class="cls-1" d="M96.39,63.4c1.11-.67,2.44-1.38,4-2,1.07-.43,2.08-.75,3-1"/><path class="cls-1" d="M105.39,62.4c.3-3.08-.53-5.09-1-6-.67-1.31-1.85-2.81-2-3-1.31-1.66-2.07-2.12-2-3,.07-.93,1.03-1.85,2-2,1.76-.28,3.29,1.96,4,3,1.62,2.37,2.01,4.99,2,7"/><path class="cls-1" d="M108.39,53.4c.21-.77,.52-1.81,1-3,.33-.82,.94-2.35,2-4,.76-1.19,2.79-4.37,4-4,.5,.15,.82,.91,1,3,.19,2.3,.17,5.71-1,10"/><path class="cls-1" d="M115.39,42.4c-.67,1.67-1.33,3.33-2,5-1.33,3.33-2.67,6.67-4,10"/><path class="cls-1" d="M108.39,63.4c1.16-3.22,2.87-5.03,4-6,.87-.74,1.65-1.21,3-2,2.97-1.74,4.44-2.64,6-3,3.81-.88,5.09,1.21,9,0,1.81-.56,2.64-1.35,3-1,.66,.64-1.02,4.41-4,7-4.06,3.53-6.67,1.52-10,5-1.99,2.08-2.49,4.29-5,5-1.18,.33-2.26,.18-3,0"/><path class="cls-1" d="M126.39,52.4c.83-.35,1.96-.95,3-2,2.25-2.28,2.43-5.04,3-5,.36,.03,.77,1.17,1,6"/><path class="cls-1" d="M133.39,46.4c1.31-.29,2.31-.68,3-1,.68-.31,2.67-1.34,2-1h0c.79-.21,1.76-.38,2,0,.27,.44-.56,1.44-2,3-1.15,1.25-2.83,2.98-5,5"/><path class="cls-1" d="M128.39,59.4c.99-.32,3.41-.94,6,0,1.78,.64,2.74,1.69,3,2,.55,.64,1.14,1.31,1,2-.2,.99-1.78,1.4-4,2-3.12,.85-6.02,1.69-7,2-1.79,.57-4.27,1.67-7,4"/><path class="cls-1" d="M107.39,70.4c1.36-.05,3.05-.08,5,0,2.93,.12,3.15,.34,9,1,3.7,.42,4.9,.48,5,1,.12,.63-1.4,1.7-3,2-2.29,.44-3.37-.96-6-1-1.62-.02-3,.48-4,1"/><path class="cls-1" d="M118.39,73.4c1.09,.6,2.54,1.54,4,3,.88,.88,2.01,2.2,3,4"/><path class="cls-1" d="M119.39,80.4c1,.67,2,1.33,3,2"/><path class="cls-1" d="M86.39,51.4c.51-1.03,1.43-2.57,3-4,1.72-1.56,2.82-1.71,4-3,1.61-1.76,1.78-3.94,2-6,.33-3.09,.9-7.3,2-13"/><path class="cls-1" d="M85.39,47.4c2.05-3.56,3.73-6.63,5-9,5.07-9.49,3.58-7.84,7-14,1.37-2.46,2.42-4.2,3-7,.55-2.67,.31-4.59,0-7-.35-2.73-.8-2.97-1-3-.41-.05-.82,.67-1,1-1.5,2.72,.03,4.82-1,7-.79,1.66-1.86,.82-4,3-1.73,1.76-2.49,3.84-4,8-.45,1.25-.79,2.29-1,3"/><path class="cls-1" d="M86.39,38.4c1.67-3.63,3.34-7.3,5-11,1.35-3.01,2.69-6.01,4-9"/><path class="cls-1" d="M100.39,11.4c.58-1.68,.85-2.03,1-2,.35,.07,.23,2.37,0,4-.24,1.69-.66,3.06-1,4"/><path class="cls-1" d="M101.39,14.4c.51,.39,1.27,1.05,2,2,2.81,3.68,3,8.98,3,9h0l1,1c1.52-1.69,3.29-3.41,4-3,.57,.33,.23,1.93,0,3-.21,1-.8,3.55-3,6-1.35,1.5-2.83,2.43-4,3"/><path class="cls-1" d="M97.39,32.4c.58,.58,2.95,3.12,3,7,.01,.94,0,3.65-2,6-2.6,3.05-6.44,3.01-7,3"/><path class="cls-1" d="M88.39,50.4c.47-.6,1.12-1.32,2-2,1.51-1.17,3-1.72,4-2"/><path class="cls-1" d="M97.39,32.4c.65-.1,2.85-.35,5,1,.51,.32,2.54,1.6,3,4,.16,.82,.09,1.53,0,2"/><path class="cls-1" d="M101.39,47.4c.71-.8,1.85-2.16,3-4,2.86-4.57,2.28-6.46,5-11,2.2-3.67,3.12-3.33,4-6,.66-2,1.4-3.98,2-6,.27-.92,.58-2,1-2,.3,0,.58,.55,1,2,.36,1.24,.92,3.16,1,5,.13,2.75-.68,7.85-3,14"/><path class="cls-1" d="M114.39,23.4c.09-2.28-.38-3.91-1-4-.68-.1-1.81,1.44-2,3-.05,.4-.03,.74,0,1"/><path class="cls-1" d="M109.39,41.4c.96,.05,2.34,.08,4,0,2.72-.13,4.1-.22,5-1,1.1-.96,.65-1.83,2-3,.95-.83,2.44-1.48,3-1,.47,.4,.15,1.48,0,2-.46,1.55-1.64,2.67-2,3-.57,.52-1.07,.84-1,1,.12,.25,1.39-.46,2,0,.38,.29,.56,1.06,0,3"/><path class="cls-1" d="M116.39,43.4c.86,.82,2.22,1.84,4,2,1.55,.14,2.72-.43,3,0,.18,.28,0,.99-2,3"/><path class="cls-1" d="M117.39,49.4c2.18-.99,3.96-1.06,5-1,.41,.02,2.84,.17,3,1,.12,.63-1.1,1.42-2,2-.76,.49-1.47,.8-2,1"/><path class="cls-1" d="M116.39,37.4c1.5-1.97,2.97-2.7,4-3,2.27-.67,2.8,.57,6,0,.32-.06,1.88-.37,5-1,.93-.19,1.77-.36,2,0,.23,.36-.27,1.11-1,2-2.11,2.6-4,4-4,4-1.48,1.1-3.52,2.71-6,5"/><path class="cls-1" d="M127.39,40.4c3.33-.47,3.93-.23,4,0,.15,.51-2.2,1.62-3,2-2.38,1.13-4.5,1.69-6,2"/><path class="cls-1" d="M118.39,29.4c1.76-.34,3.14-.18,4,0,.76,.16,1.86,.39,2,1,.13,.56-.66,.92-1,2-.24,.77-.13,1.5,0,2"/><path class="cls-1" d="M36.39,20.4c-.23-.67-.43-1.55,0-2,1.21-1.28,6.91,1.51,11,5,3.34,2.85,5.27,5.94,9,12,1.75,2.85,3.09,5.28,4,7"/><path class="cls-1" d="M39.39,25.4c3.68,2.58,5.34,4.24,5,5-.28,.63-1.95,.63-5,0"/><path class="cls-1" d="M46.39,31.4c1.82,1.01,3.88,2.31,6,4,3.03,2.41,5.32,4.89,7,7"/><path class="cls-1" d="M56.39,44.4c-2.35-.67-5.07-1.62-8-3-2.74-1.3-5.08-2.69-7-4"/><path class="cls-1" d="M49.39,53.4c1.1,0,2.62-.15,3-1,.37-.84-.57-1.89-2-4-.83-1.22-1.89-2.9-3-5"/><path class="cls-1" d="M52.39,52.4c1.07,1.57,2.16,2.46,3,3,.45,.29,.94,.55,1,1,.09,.72-.99,1.46-2,2"/><path class="cls-1" d="M44.39,12.4c.67,1.01,1.42,2.34,2,4,1,2.84,1.08,5.37,1,7"/><path class="cls-1" d="M44.39,12.4c1.3,.49,3.18,1.38,5,3,2.37,2.11,3.43,4.39,5,8,1.99,4.57,3.65,8.61,5,12"/><path class="cls-1" d="M49.39,15.4c-.96-2.44-1.9-5.38-1-6,.28-.19,.65-.11,1,0,2.51,.76,4.84,2.85,6,4"/><path class="cls-1" d="M63.39,34.4c-.79-1.61-1.7-4-2-7-.15-1.51-.11-2.86,0-4"/><path class="cls-1" d="M65.39,29.4c-1.87-6.19-4.17-8.79-6-10-.53-.35-2-1.23-3-3-.89-1.58-.97-3.1-1-4-.05-1.32-.13-3.33,1-4,.45-.26,.96-.24,2,0,1.67,.39,3.05,.72,5,2,1.79,1.18,3.85,2.53,5,5,1.04,2.24,.36,3.29,1,8,.3,2.16,.71,3.9,1,5"/><path class="cls-1" d="M68.39,15.4c.36-1.44,.97-3.55,2-6,1.56-3.71,4.6-9.42,6-9,.62,.19,.47,1.45,1,6,.57,4.89,.91,4.88,1,7,.21,4.91-1.46,8.79-2,10-2.14,4.83-4.41,5.28-6,10-.81,2.4-.98,4.55-1,6"/><path class="cls-1" d="M63.39,32.4l3-4c.69,.78,2.14,2.63,2,5-.05,.79-.26,1.53-1,3-.77,1.52-2.01,3.65-4,6"/><path class="cls-1" d="M61.39,42.4c-.17-.92-.3-2.33,0-4,.23-1.26,.64-2.28,1-3"/><path class="cls-1" d="M56.39,44.4v3"/><path class="cls-1" d="M59.39,49.4c-.33-1-.67-2-1-3"/><path class="cls-1" d="M58.39,46.4l2,1"/><path class="cls-1" d="M77.39,6.4c1.05,2.47,1.64,3.07,2,3,.57-.12,.52-1.96,1-2,.37-.03,.82,1.03,1,2,.33,1.75-.3,2.83,0,3,.41,.23,1.71-1.73,4-4,1.44-1.43,3.63-3.31,4-3,.5,.42-2.46,4.66-2,5,.27,.2,1.24-1.24,2-1,.92,.29,.73,2.8,1,6,.22,2.56,.65,4.62,1,6"/><path class="cls-1" d="M97.39,11.4c-.91,.71-1.98,1.68-3,3-1.75,2.26-2.59,4.5-3,6"/><path class="cls-1" d="M76.39,26.4c1.83-.76,3.86-1.74,6-3,2.81-1.66,5.14-3.4,7-5"/><path class="cls-1" d="M83.39,19.4c1.09-4.17,1.67-5.04,2-5,.53,.06,1.28,2.51,0,4-.71,.82-1.7,.97-2,1Z"/><path class="cls-1" d="M76.39,32.4c1.21-.09,3.57-.44,6-2,3.18-2.04,4.54-4.89,5-6"/><path class="cls-1" d="M87.39,30.4c.16,.45,.16,.79,0,1-.44,.59-2.11,.25-5-1"/><path class="cls-1" d="M71.39,42.4c1.11-.68,1.68-1.43,2-2,.46-.82,.44-1.38,1-2,.59-.65,1.4-.9,2-1"/><path class="cls-1" d="M80.39,35.4c.89-.22,1.91-.53,3-1,.75-.32,1.41-.66,2-1"/><path class="cls-1" d="M90.39,38.4c.64-.36,1.66-.83,3-1,.78-.1,1.46-.07,2,0"/><path class="cls-1" d="M89.39,40.4c.46-.33,1.13-.73,2-1,1.77-.54,3.31-.2,4,0"/><path class="cls-1" d="M85.39,67.4c.47-.6,1.12-1.32,2-2,1.51-1.17,3-1.72,4-2"/><path class="cls-1" d="M79.39,40.4c-.4,.43-.9,1.11-1,2-.13,1.18,.52,2.03,1,3,.73,1.46,.82,2.66,1,5,0,0,.26,3.39-1,8-.24,.87-.56,2.03-.94,2.86-.03,.06-.07,.14-.06,.14,.05,.03,1.88-2.09,3-5,1.2-3.11,1.07-5.77,1-7-.25-4.28-1.98-7.44-3-9Z"/><path class="cls-1" d="M86.39,38.4c-.24,.62-.56,1.3-1,2-1.26,2.04-2.88,3.29-4,4"/><path class="cls-1" d="M82.39,45.4c1.12-1.47,2.21-2.41,3-3,1.03-.77,1.88-1.18,2-2,.11-.78-.49-1.51-1-2"/><path class="cls-1" d="M83.39,40.4c-.29-.19-.71-.19-1,0-.62,.4-.62,1.6,0,2,.29,.19,.71,.19,1,0,.62-.4,.62-1.6,0-2Z"/><path class="cls-1" d="M76.39,74.4c-1.12-1.83-2.21-3.14-3-4,0,0-.42-.45-3-3h0l-1,1c1.67,2.67,3.33,5.33,5,8"/><path class="cls-1" d="M72.39,69.4c1.17-1.59,1.72-3.06,2-4,.41-1.4,1.13-3.87,0-5-.41-.41-.98-.55-1-1-.02-.44,.49-.95,1-1,1.05-.1,1.92,1.81,2,2,.44,1,.6,2.22,0,5-.33,1.53-.91,3.61-2,6"/><path class="cls-1" d="M77.39,62.4c.62,.62,1.44,1.61,2,3,1.3,3.19,.32,6.14,0,7"/><path class="cls-1" d="M82.39,71.4c.03-1-.05-2.89-1-5-.93-2.06-2.24-3.35-3-4"/><circle class="cls-1" cx="83.39" cy="55.4" r="1"/><path class="cls-1" d="M58.39,42.4c-.3-.04-1.93-.26-2,0-.05,.21,1,.5,1,1s-1.06,.79-1,1c.05,.18,.86,.08,2,0,1.66-.12,2.51-.17,3,0,1.09,.38,1.38,1.16,2,1,.62-.16,.7-1.03,1-1,.43,.05,.23,1.92,1,4,.61,1.67,1.71,3.12,2,3,.09-.04,.11-.23,0-1-.22-1.56-.37-2.62-1-4-.66-1.44-1.06-2.32-2-3-.84-.61-1.13-.36-6-1Z"/><path class="cls-1" d="M66.39,38.4c1.06,.74,2.62,2.01,4,4,.65,.94,1.54,2.22,2,4,1.14,4.42-1.3,8.22,0,9,.41,.25,.94,.03,1,0,.7-.31,1-1.31,1-6,0-4.39-.26-5.34-1-6-.59-.53-.74-.2-2-1-.44-.28-1.85-1.22-3-3-.49-.75-.8-1.46-1-2"/><path class="cls-1" d="M67.39,62.4c-.07-.03-.18-.09-.31-.16-.34-.19-1.35-.77-1.69-1.84-.08-.25-.24-.76,0-1,.24-.24,.75-.12,1,0,1.13,.52,1.01,2.78,1,3Z"/><path class="cls-1" d="M61.39,47.4c.62,.99,.95,1.99,1,3,.02,.43-.03,.56,0,1,.08,1.44,.71,2.49,1,3,.54,.97,1.24,2.49,2,5"/><path class="cls-1" d="M66.39,59.4c-.24-2.07-.64-3.75-1-5-.23-.79-.51-1.75-1-3-.62-1.58-.95-2-1-3-.06-1.13,.3-1.78,0-2-.22-.15-.73-.05-2,1"/><path class="cls-1" d="M69.39,60.4c.54-.82,1.48-2.02,3-3,.72-.47,1.41-.78,2-1"/><path class="cls-1" d="M69.39,60.4c-1.1-1.43-1.17-2.38-1-3,.24-.86,.93-1.05,1-2,.06-.72-.25-1.7-1-2-.39-.15-.78-.07-1,0"/><path class="cls-1" d="M67.39,53.4v2"/><path class="cls-1" d="M61.39,59.4c1.31,2.48,2.3,3.04,3,3,.32-.02,.62-.16,1,0,.64,.27,1.01,1.2,1,2-.02,1.46-1.26,2.05-1,3,.14,.51,.62,.82,1,1"/><path class="cls-1" d="M66.39,68.4c-.57-.34-1.24-.69-2-1-1.52-.62-2.91-.89-4-1"/><path class="cls-1" d="M56.39,57.4c.63,.79,.89,1.55,1,2,.18,.7,.36,1.41,0,2-.36,.59-.97,.6-1,1-.02,.37,.49,.64,1,1,.56,.4,1.29,1.02,2,2"/><path class="cls-1" d="M58.39,57.4c-.08,1.19,.51,1.99,1,2,.37,0,.77-.43,1-1"/><path class="cls-1" d="M50.39,42.4c.11,2.24,.58,2.87,1,3,.35,.11,.6-.15,1,0,.55,.21,.61,.88,1,2,.42,1.2,.96,2.72,2,3,.42,.11,.52-.09,1,0,1.11,.2,1.75,1.5,2,2,1.4,2.77,3.69,6.12,4,6,.22-.09-.18-2.06-1-4-.68-1.62-1.79-3.08-4-6-.81-1.06-1.24-1.58-2-2-.82-.46-1.38-.44-2-1-.65-.59-.9-1.4-1-2"/><path class="cls-1" d="M86.39,59.4c-1.16-.06-2.87,3.03-2,5,.19,.43,.6,1.05,1,1,.38-.04,.45-.65,1-2,.75-1.86,1.24-2.27,1-3-.14-.42-.53-.97-1-1Z"/><path class="cls-1" d="M96.39,51.4c-.46,.49-1.13,1.19-2,2-2.24,2.09-2.74,2.08-3,2-.16-.05-.77-.3-1-2"/><path class="cls-1" d="M67.39,75.4c-.12,.39-.3,1.17,0,2,.57,1.57,2.49,2.41,3,2,.56-.46-.68-2.46,0-3,.25-.2,.65-.12,1,0"/><path class="cls-1" d="M68.39,68.4c-.34,.16-1.44,.72-2,2-.14,.32-.8,1.8,0,3,.72,1.08,2.39,1.57,3,1,.45-.42,.31-1.39,0-2-.3-.59-.78-.88-1-1"/><path class="cls-1" d="M39.39,54.4c-.03,.23-.06,.59,0,1,.15,1.01,.75,1.71,2,3,.91,.94,1.52,1.53,2,2,2.71,2.66,3.42,3.79,5,4,.43,.06,.79,.03,1,0"/><path class="cls-1" d="M39.39,54.4c.6,.1,1.41,.35,2,1,.56,.62,.53,1.16,1,2,.39,.7,.85,1.09,2,2,1.11,.87,2.45,1.89,4,3"/><path class="cls-1" d="M50.39,62.4c-.21,.17-.09,.64,0,1,.37,1.42,1.85,1.95,2,2,.66,.23,1.83,.38,2,0,.35-.76-3.32-3.56-4-3Z"/><path class="cls-1" d="M42.39,60.4c-1.01,1.35-1.14,1.85-1,2,.15,.17,.55-.16,1,0,.39,.14,.59,.55,1,2,.55,1.96,.51,2.36,1,3,.39,.51,.52,.38,1,1,.49,.63,.61,1.11,1,2,.21,.49,.54,1.19,1,2"/><path class="cls-1" d="M44.39,64.4c.76,.09,1.87,.33,3,1,1.17,.69,2.17,1.72,2,2-.15,.26-1.12-.43-2,0-.68,.33-1.16,1.26-1,2,.24,1.11,1.88,1.64,3,2,1.7,.55,2.5,.3,3,1,.43,.6,.45,1.62,0,2-.49,.41-1.74,.26-5-2"/><path class="cls-1" d="M54.39,72.4c-.68,.33-.91,2.09,0,3s2.67,.68,3,0c.32-.68-.79-1.79-1-2s-1.32-1.32-2-1Z"/><path class="cls-1" d="M63.39,80.4c-.88-.29-1.72,.37-2,1-.12,.28-.23,.78,0,1,.19,.18,.48,.06,1,0,1.27-.15,1.76,.28,2,0,.31-.37-.01-1.67-1-2Z"/><path class="cls-1" d="M58.39,70.4c.69,.49,1.72,1.19,3,2,2.14,1.35,3.71,2.32,4,2,.3-.33-.89-1.86-1-2-1.29-1.65-2.88-2.53-4-3"/><path class="cls-1" d="M55.39,65.4c3.4,1.03,5.06,1.69,5,2-.05,.26-1.39,.26-4,0"/><path class="cls-1" d="M50.39,79.4c1.93-.25,2.93-.25,3,0,.08,.28-1.08,.76-1,1,.12,.36,2.82-.45,3,0,.09,.23-.51,.73-1,1-1.54,.85-3.34,.25-4,0"/><path class="cls-1" d="M45.39,72.4c-.18,.72-.18,1.39,0,2,.29,.95,.81,1.08,1,2,.2,.99-.29,1.39,0,2,.18,.39,.67,.83,2,1"/><path class="cls-1" d="M45.39,72.4c.62-.21,.88-.12,1,0,.35,.35-.35,1.15,0,2,.19,.47,.51,.47,1,1,.35,.37,.77,.98,1,2"/><path class="cls-1" d="M38.39,73.4c-1.15,.2-2,.61-2,1,0,.44,1.04,1.04,2,1,.47-.02,.78-.19,1,0,.26,.22,.25,.8,0,1-.24,.19-.52-.09-1,0-.62,.12-1.11,.78-1,1,.17,.33,1.68-.43,2,0,.17,.23,0,.78-1,2"/><path class="cls-1" d="M40.39,75.4c.4,.31,1.07,.75,2,1,1.34,.36,2.47,.14,3,0"/><path class="cls-1" d="M58.39,76.4c-.44,.3-.32,1.34,0,2,.12,.24,.4,.82,1,1,.84,.26,1.9-.37,2-1,.16-1.05-2.27-2.5-3-2Z"/><path class="cls-1" d="M69.39,82.4c1.41-.69,2.65-.57,3,0,.06,.1,.21,.4,0,1"/><path class="cls-1" d="M67.39,79.4l2,2"/><path class="cls-1" d="M64.39,75.4c-.08,.16-.78,1.66,0,3,.3,.52,.72,.83,1,1"/><path class="cls-1" d="M69.39,61.4c-.07,.63-.17,2.44,1,4,.32,.43,.68,.76,1,1"/><path class="cls-1" d="M89.39,54.4c.4,1.24-.07,2.5-1,3-.89,.48-1.86,.06-2,0"/></g></g></svg>