<?xml version="1.0" encoding="UTF-8"?><svg id="Calque_2" xmlns="http://www.w3.org/2000/svg" viewBox="0 0 59.72 62.13"><defs><style>.cls-1{fill:none;stroke:#000;stroke-miterlimit:10;stroke-width:.49px;}</style></defs><g id="Calque_4"><g><g><path class="cls-1" d="M8.42,2.09c-1.57-.16-3.27,2.53-4.53,4.53-.5,.79-.74,1.18-.93,1.71-.18,.52-.21,.86-.37,.88-.41,.07-.85-1.98-1.3-1.94-.26,.02-.55,.77-.65,2.59-.1,1.82-.11,6.16,1.3,16.84,1.12-.45,2.8-.98,4.86-.97,2.8,0,3.71,.99,4.86,.32,2-1.15,1.74-5.57,1.3-7.77-.41-2.07-.97-2.27-1.3-4.53-.35-2.49,.21-3.02,0-5.18-.25-2.52-1.46-6.3-3.24-6.48Z"/><path class="cls-1" d="M2.26,8.89c-.06-.54-.08-1.2,0-1.94,.14-1.33,.18-1.99,.65-2.59,.91-1.16,2.67-1.26,3.24-1.3,.27-.02,.49,0,.65,0"/><path class="cls-1" d="M2.26,11.48c0,2.04,.17,4.46,.65,7.13,.35,1.93,.81,3.67,1.3,5.18"/><path class="cls-1" d="M8.1,8.24c-.13,2.57-.15,5.39,0,8.42,.12,2.54,.36,4.93,.65,7.13"/><path class="cls-1" d="M2.91,26.38c-.76,.77-2.28,2.56-2.59,5.18-.09,.72-.07,1.38,0,1.94"/><path class="cls-1" d="M3.56,26.38c-1.3,2.3-2.87,5.85-3.24,10.37-.11,1.41-.09,2.72,0,3.89"/><path class="cls-1" d="M.97,40.63c.3,.21,.5,.44,.65,.65,1.07,1.52,.11,3.65,0,3.89"/><path class="cls-1" d="M4.21,26.38c-.43,2.16-.86,4.32-1.3,6.48"/><path class="cls-1" d="M6.15,25.73c-.55,1.95-1.06,4.35-1.3,7.13-.21,2.45-.16,4.64,0,6.48"/><path class="cls-1" d="M2.91,34.8c-.27,.86-.54,1.95-.65,3.24-.09,.98-.06,1.85,0,2.59"/><path class="cls-1" d="M3.56,38.04c.34,.98,.76,2.57,.65,4.53-.07,1.33-.37,2.44-.65,3.24"/><path class="cls-1" d="M8.1,25.73c-.09,1.54-.39,3.59-1.3,5.83-.4,.99-.85,1.85-1.3,2.59"/><path class="cls-1" d="M10.69,26.38c.86,1.94,1.73,3.89,2.59,5.83"/><path class="cls-1" d="M11.98,26.38c.33,.09,.81,.27,1.3,.65,.88,.69,1.19,1.58,1.3,1.94"/><path class="cls-1" d="M8.74,25.73c.72,1.46,1.71,3.92,1.94,7.13,.2,2.75-.24,5.01-.65,6.48"/><path class="cls-1" d="M8.74,27.68v11.66"/><path class="cls-1" d="M6.8,34.15v9.72"/><path class="cls-1" d="M10.04,41.93c0,1.17-.21,3.66-1.94,5.83-.42,.53-.87,.95-1.3,1.3"/><path class="cls-1" d="M5.5,41.93c-.19,1.26-.4,2.56-.65,3.89-.2,1.11-.42,2.19-.65,3.24"/><path class="cls-1" d="M11.98,34.15c.2,1.57,.29,3.56,0,5.83-.15,1.2-.39,2.29-.65,3.24"/></g><g><path class="cls-1" d="M18.26,16.33c-1.54,.36-2.26,3.46-2.8,5.77-.21,.91-.32,1.36-.32,1.92,0,.55,.08,.88-.06,.96-.37,.2-1.45-1.59-1.86-1.41-.24,.1-.26,.91,.23,2.66,.5,1.75,1.91,5.86,6.73,15.5,.91-.79,2.33-1.84,4.27-2.51,2.65-.91,3.83-.28,4.7-1.28,1.51-1.74-.18-5.83-1.32-7.77-1.07-1.82-1.66-1.83-2.71-3.86-1.15-2.24-.78-2.92-1.69-4.9-1.06-2.3-3.44-5.47-5.18-5.06Z"/><path class="cls-1" d="M14.67,24.77c-.23-.49-.46-1.11-.64-1.84-.3-1.3-.48-1.94-.23-2.66,.48-1.39,2.11-2.06,2.64-2.28,.25-.1,.46-.17,.61-.21"/><path class="cls-1" d="M15.51,27.22c.67,1.93,1.61,4.16,2.94,6.52,.96,1.71,1.96,3.2,2.92,4.47"/><path class="cls-1" d="M19.97,22.26c.72,2.47,1.62,5.15,2.75,7.96,.95,2.36,1.95,4.54,2.94,6.52"/><path class="cls-1" d="M21,41.09c-.46,.98-1.31,3.16-.76,5.75,.15,.71,.39,1.32,.64,1.84"/><path class="cls-1" d="M21.61,40.88c-.48,2.6-.8,6.47,.33,10.85,.35,1.37,.8,2.6,1.27,3.67"/><path class="cls-1" d="M23.82,55.2c.35,.1,.62,.25,.82,.4,1.51,1.09,1.3,3.41,1.27,3.67"/><path class="cls-1" d="M22.22,40.67c.3,2.18,.6,4.36,.89,6.55"/><path class="cls-1" d="M23.85,39.42c.12,2.02,.42,4.46,1.1,7.16,.6,2.38,1.37,4.44,2.12,6.12"/><path class="cls-1" d="M23.75,49.05c.02,.9,.13,2.02,.45,3.27,.24,.95,.55,1.77,.85,2.45"/><path class="cls-1" d="M25.42,51.9c.64,.81,1.55,2.18,2.09,4.07,.37,1.28,.45,2.42,.45,3.27"/><path class="cls-1" d="M25.68,38.79c.42,1.48,.8,3.52,.68,5.93-.05,1.07-.2,2.03-.38,2.87"/><path class="cls-1" d="M28.34,38.55c1.45,1.55,2.9,3.11,4.35,4.66"/><path class="cls-1" d="M29.57,38.13c.34-.02,.85-.01,1.44,.19,1.05,.36,1.64,1.11,1.86,1.41"/><path class="cls-1" d="M26.3,38.57c1.16,1.14,2.9,3.15,4.17,6.1,1.09,2.54,1.41,4.81,1.51,6.33"/><path class="cls-1" d="M26.93,40.41l2.75,7.96,1.06,3.06"/><path class="cls-1" d="M27.21,47.17l1.91,5.51,1.27,3.67"/><path class="cls-1" d="M32.81,53.46c.37,1.11,1,3.53,.07,6.15-.23,.64-.51,1.18-.8,1.65"/><path class="cls-1" d="M28.53,54.94c.24,1.25,.46,2.55,.66,3.89,.17,1.12,.32,2.21,.45,3.27"/><path class="cls-1" d="M32.11,45.48c.7,1.42,1.44,3.27,1.91,5.51,.25,1.19,.38,2.29,.45,3.27"/></g><g><path class="cls-1" d="M12.57,9.69c.04,1.58,2.91,2.93,5.07,3.93,.84,.39,1.26,.59,1.81,.7,.54,.11,.88,.1,.92,.26,.12,.4-1.86,1.1-1.77,1.53,.05,.26,.84,.44,2.65,.32,1.82-.13,6.13-.66,16.55-3.39-.59-1.05-1.32-2.66-1.57-4.7-.34-2.78,.52-3.81-.29-4.86-1.4-1.84-5.74-1.03-7.88-.31-2,.67-2.13,1.25-4.34,1.85-2.43,.66-3.02,.17-5.14,.65-2.47,.56-6.06,2.24-6.02,4.02Z"/><path class="cls-1" d="M20.09,14.95c-.53,.12-1.18,.23-1.93,.24-1.34,.03-2,.07-2.65-.32-1.27-.76-1.59-2.49-1.69-3.05-.05-.26-.07-.49-.08-.64"/><path class="cls-1" d="M22.66,14.62c2.03-.26,4.4-.72,6.99-1.53,1.87-.59,3.54-1.26,4.98-1.93"/><path class="cls-1" d="M18.72,9.24c2.57-.2,5.37-.53,8.36-1.05,2.51-.44,4.84-.97,6.99-1.53"/><path class="cls-1" d="M37.36,12.12c.86,.65,2.83,1.94,5.47,1.92,.73,0,1.38-.11,1.93-.24"/><path class="cls-1" d="M37.28,11.47c2.45,1.01,6.16,2.12,10.69,1.92,1.41-.06,2.71-.25,3.86-.49"/><path class="cls-1" d="M51.75,12.26c.17-.32,.38-.56,.56-.72,1.38-1.25,3.6-.57,3.86-.49"/><path class="cls-1" d="M37.2,10.83c2.2,.16,4.39,.32,6.59,.48"/><path class="cls-1" d="M36.31,8.98c2,.3,4.45,.51,7.23,.39,2.46-.1,4.62-.42,6.43-.81"/><path class="cls-1" d="M45.72,11.06c.89,.16,2,.29,3.29,.24,.98-.04,1.85-.17,2.57-.32"/><path class="cls-1" d="M48.85,10.02c.93-.46,2.45-1.07,4.42-1.21,1.33-.09,2.46,.06,3.29,.24"/><path class="cls-1" d="M36.07,7.06c1.54-.11,3.61-.06,5.95,.56,1.03,.27,1.95,.61,2.73,.96"/><path class="cls-1" d="M36.39,4.4c1.82-1.1,3.64-2.2,5.46-3.3"/><path class="cls-1" d="M36.23,3.12c.05-.34,.17-.84,.48-1.37,.57-.96,1.42-1.38,1.77-1.53"/><path class="cls-1" d="M35.99,6.41c1.35-.9,3.68-2.19,6.83-2.82,2.7-.54,5-.39,6.51-.17"/><path class="cls-1" d="M37.92,6.17l8.36-1.05,3.21-.4"/><path class="cls-1" d="M44.59,7.29l5.78-.73,3.86-.49"/><path class="cls-1" d="M51.9,3.1c1.16-.14,3.66-.25,6.03,1.2,.57,.35,1.05,.74,1.45,1.12"/><path class="cls-1" d="M52.46,7.6c1.28,.03,2.59,.08,3.94,.16,1.13,.06,2.22,.14,3.29,.24"/><path class="cls-1" d="M43.94,2.15c1.54-.39,3.5-.73,5.78-.73,1.21,0,2.32,.1,3.29,.24"/></g><g><path class="cls-1" d="M26.76,15.63c-1.27,.94-.72,4.07-.3,6.41,.16,.92,.24,1.37,.46,1.88,.22,.51,.42,.77,.32,.9-.26,.33-1.96-.89-2.27-.56-.18,.19,.12,.94,1.27,2.35,1.15,1.42,4.07,4.63,12.3,11.58,.52-1.09,1.41-2.61,2.94-3.99,2.08-1.88,3.41-1.77,3.81-3.03,.7-2.2-2.46-5.29-4.28-6.62-1.7-1.25-2.25-1.02-4.01-2.48-1.94-1.6-1.87-2.38-3.49-3.83-1.88-1.7-5.32-3.67-6.76-2.61Z"/><path class="cls-1" d="M26.79,24.8c-.4-.36-.86-.83-1.31-1.44-.79-1.07-1.21-1.6-1.27-2.35-.11-1.47,1.12-2.73,1.52-3.14,.19-.19,.36-.34,.48-.44"/><path class="cls-1" d="M28.54,26.72c1.38,1.51,3.12,3.19,5.28,4.83,1.56,1.19,3.07,2.17,4.45,2.96"/><path class="cls-1" d="M30.67,20.4c1.64,1.99,3.52,4.09,5.67,6.23,1.81,1.8,3.58,3.4,5.28,4.83"/><path class="cls-1" d="M39.05,37.3c-.04,1.08,.04,3.43,1.57,5.58,.42,.59,.88,1.06,1.31,1.44"/><path class="cls-1" d="M39.53,36.86c.58,2.58,1.81,6.26,4.58,9.85,.87,1.12,1.76,2.07,2.62,2.87"/><path class="cls-1" d="M47.2,49.15c.36-.04,.67-.01,.92,.04,1.81,.41,2.54,2.62,2.62,2.87"/><path class="cls-1" d="M40,36.43c1.13,1.89,2.27,3.78,3.4,5.66"/><path class="cls-1" d="M41.01,34.64c.9,1.81,2.14,3.93,3.84,6.14,1.5,1.95,3.01,3.54,4.36,4.79"/><path class="cls-1" d="M44.72,43.53c.38,.82,.92,1.8,1.7,2.83,.6,.78,1.2,1.41,1.74,1.92"/><path class="cls-1" d="M47.38,45.49c.91,.49,2.29,1.39,3.53,2.92,.84,1.04,1.37,2.05,1.7,2.83"/><path class="cls-1" d="M42.44,33.33c.97,1.19,2.13,2.92,2.97,5.18,.37,1,.62,1.94,.79,2.79"/><path class="cls-1" d="M44.8,32.07c1.95,.86,3.89,1.71,5.84,2.57"/><path class="cls-1" d="M45.75,31.19c.3-.15,.78-.35,1.39-.39,1.11-.08,1.95,.37,2.27,.56"/><path class="cls-1" d="M42.92,32.9c1.51,.59,3.91,1.75,6.23,3.96,2,1.9,3.19,3.87,3.88,5.23"/><path class="cls-1" d="M44.23,34.33l5.67,6.23,2.18,2.4"/><path class="cls-1" d="M47.15,40.43l3.93,4.31,2.62,2.87"/><path class="cls-1" d="M54.78,44c.78,.87,2.31,2.84,2.49,5.62,.04,.67,0,1.29-.09,1.83"/><path class="cls-1" d="M51.43,47.05c.71,1.06,1.42,2.16,2.14,3.31,.6,.96,1.16,1.9,1.7,2.83"/><path class="cls-1" d="M50.99,36.94c1.21,1.03,2.61,2.44,3.93,4.31,.7,.99,1.25,1.95,1.7,2.83"/></g></g></g></svg>