<?xml version="1.0" encoding="UTF-8"?><svg id="Calque_2" xmlns="http://www.w3.org/2000/svg" viewBox="0 0 79.06 72.5"><defs><style>.cls-1{fill:none;stroke:#000;stroke-miterlimit:10;stroke-width:.5px;}</style></defs><g id="Calque_4"><g><path class="cls-1" d="M6.42,40.24c-.13,.33-.28,.81-.35,1.41-.08,.65-.03,1.15,0,1.41,.25,2.46,.14,2.49,.35,3.87,.34,2.15,.72,4.62,2.11,7.39,1.24,2.48,2.71,4.06,3.7,5.11,1.38,1.46,3.11,3.29,5.99,4.58,1.51,.68,3.92,1.75,6.69,1.06,.69-.17,2.06-.53,3.17-1.76,.98-1.09,1.24-2.29,1.41-3.17,.49-2.5-.2-4.56-.7-5.99-.81-2.31-1.97-3.83-2.82-4.93-1.48-1.92-2.93-3.11-3.87-3.87-.44-.35-2.2-1.76-4.23-2.82-4.37-2.27-9-2.39-11.44-2.29Z"/><path class="cls-1" d="M27.37,49.22c.78,0,2.73,0,3.52,0,2.98,0,3.02,0,3.17,0,3.64,.07,6.79,1.63,7.04,1.76,3.3,1.68,5.05,4.16,6.34,5.99,2,2.84,2.62,5.12,2.82,5.99,.37,1.56,.69,3.02,0,4.58-.76,1.74-2.31,2.55-2.82,2.82-1.81,.95-3.53,.8-4.58,.7-3.56-.34-5.99-2.35-7.39-3.52-2.45-2.03-3.79-4.29-4.58-5.63-.65-1.12-1.11-2.1-1.41-2.82"/><path class="cls-1" d="M27.37,49.22h-1.41"/><path class="cls-1" d="M11.88,49.92c.12,.62,.85,4.11,4.23,6.34,3.32,2.19,6.76,1.54,7.39,1.41"/><path class="cls-1" d="M35.47,57.31c.11,.57,.82,3.85,3.87,5.63,1.54,.9,3.04,1.04,3.87,1.06"/><path class="cls-1" d="M18.22,42.53c.1-.95,.17-2.29,0-3.87-.37-3.44-1.66-5.89-2.46-7.39-.35-.65-1.49-2.7-3.52-4.93-2.04-2.23-3.12-3.41-4.93-3.87-.57-.15-1.33-.25-2.46-.7-1.1-.44-2.24-.9-2.46-1.76-.05-.2-.09-.54-.35-.7-.2-.13-.5-.13-.7,0-.31,.19-.32,.63-.35,1.06-.06,.71-.29,1.4-.35,2.11-.23,2.85-.31,2.59-.35,3.87-.03,.93-.03,2.86,.35,5.28,.37,2.33,.79,4.94,2.46,7.75,.98,1.64,2.06,2.8,2.82,3.52"/><path class="cls-1" d="M3.78,24.22c.71,1.21,1.42,2.5,2.11,3.87,1.12,2.22,2.05,4.34,2.82,6.34"/><path class="cls-1" d="M15.05,30.2c.65-.2,1.63-.42,2.82-.35,2.53,.14,4.26,1.46,5.99,2.82,2.16,1.7,4.56,3.58,5.63,7.04,.81,2.59,.49,4.83,.35,5.63-.31,1.73-.94,3.05-1.41,3.87"/><path class="cls-1" d="M21.74,41.47c.43,.25,1.16,.58,2.11,.7,1.29,.16,2.31-.16,2.82-.35"/><path class="cls-1" d="M33.01,11.19c-.88-1.6-.98-1.88-1.41-2.11-.51-.27-1.27-.35-1.76,0-.53,.38-.41,1-.7,2.11-.24,.91-.63,1.55-1.41,2.82-1,1.64-1.42,1.72-2.11,2.82-.91,1.44-1.12,2.75-1.41,4.58-.42,2.67-.16,4.75,0,5.99,.2,1.55,.45,3.27,1.41,5.28,.59,1.23,1.19,2.05,1.76,2.82,.55,.75,1.79,1.92,4.23,4.23,.67,.64,1.12,1.05,1.76,1.06,.96,.01,1.69-.87,2.11-1.41,2.18-2.8,3.43-4.39,4.23-7.39,1.5-5.64-.1-10.53-1.06-12.68-.51-1.15-1.64-3.69-3.17-4.93-.21-.17-.81-.62-1.41-1.41-.13-.17-.33-.44-1.06-1.76Z"/><path class="cls-1" d="M35.83,39c2.13,.9,4.85,2.4,7.39,4.93,1.41,1.4,3.4,3.38,4.58,6.69,1.17,3.29,.94,6.2,.7,7.75"/><path class="cls-1" d="M31.6,16.12c-.27,1.72-.47,3.87-.35,6.34,.13,2.66,.58,4.93,1.06,6.69"/><path class="cls-1" d="M31.95,46.05c.52-.38,2.2-1.49,4.58-1.41,2.76,.09,4.52,1.71,4.93,2.11"/><path class="cls-1" d="M25.26,17.17c.64-2.18,.5-3.95,.35-4.93-.51-3.29-2.4-5.47-3.17-6.34-1.45-1.63-1.76-1.17-3.52-3.17-1.18-1.33-2.04-2.67-2.82-2.46-.23,.06-.39,.28-.7,.7-.65,.89-.8,1.57-1.06,2.11-.45,.96-1,1.08-2.11,2.11,0,0-1.33,1.23-2.46,3.17-1.4,2.38-1.64,4.68-1.76,5.99-.23,2.43,.15,4.3,.35,5.28,.37,1.77,.93,3.2,1.41,4.23"/><path class="cls-1" d="M14.7,29.5c.47,.13,3.04,.79,5.63-.7,2.81-1.62,3.43-4.49,3.52-4.93"/><path class="cls-1" d="M16.11,7.67c.31,2.23,.52,4.97,.35,8.1-.15,2.85-.57,5.34-1.06,7.39"/><path class="cls-1" d="M37.59,36.54c.86-.9,2.13-2.08,3.87-3.17,.8-.5,2.44-1.52,4.58-2.11,4.1-1.15,7.68-.1,9.16,.35,4.33,1.33,7.11,4,8.45,5.28,.3,.29,.54,.53,.7,.7"/><path class="cls-1" d="M37.59,36.54c.3,.65,.75,1.51,1.41,2.46,.43,.62,1.8,2.51,4.23,4.23,2.42,1.71,4.79,2.46,6.34,2.82"/><path class="cls-1" d="M47.45,38.65c.2,.16,2.38,1.86,4.93,1.06,1.34-.42,2.14-1.33,2.46-1.76"/><path class="cls-1" d="M46.74,48.51c.75-.45,1.87-1.16,3.17-2.11,1.97-1.45,2.43-2.07,3.52-2.82,2-1.38,3.91-1.7,6.34-2.11,1.74-.3,4.55-.75,8.1,0,3.61,.76,6.23,2.39,7.75,3.52"/><path class="cls-1" d="M47.8,50.98c.97,.18,2.19,.49,3.52,1.06,1.31,.55,2.37,1.2,3.17,1.76"/><path class="cls-1" d="M64.35,54.85c1.25-.06,3-.29,4.93-1.06,2.03-.81,3.74-1.48,4.93-3.17,.89-1.26,1.07-2.51,2.46-3.17,.7-.33,1.37-.36,1.41-.7,.05-.42-.9-.94-1.76-1.41-.28-.15-.52-.27-.7-.35"/><path class="cls-1" d="M50.61,56.61c.62-.67,2.17-2.2,4.23-2.82,.8-.24,1.7-.35,1.76-.35,.51-.06,1.39-.12,2.46,0,.56,.06,1.11,.17,2.82,.7,.83,.26,2.17,.68,3.17,1.06,7.73,2.95,11.62,7.75,11.62,7.75,2.12,2.61,2.21,4.07,2.11,4.93-.19,1.62-1.24,2.66-1.41,2.82-.35,.34-1.27,1.1-4.23,1.41-1.59,.16-4.33,.42-7.75-.7-.8-.26-2.17-1-4.93-2.46-4.91-2.62-5.54-3.27-5.99-3.87-.51-.69-.46-.85-2.11-4.58-.73-1.64-1.35-2.98-1.76-3.87Z"/><path class="cls-1" d="M66.46,56.61c1.5,.84,3.38,2.09,5.28,3.87,2.15,2.02,3.61,4.05,4.58,5.63"/><path class="cls-1" d="M76.32,66.82c-1,1.27-1.23,2.58-.7,3.17,.11,.12,.31,.28,.7,.35"/><path class="cls-1" d="M64.35,37.6c1.17,1.29,2.35,2.58,3.52,3.87"/><path class="cls-1" d="M52.02,47.1c-.37,.46-.94,1.03-1.76,1.41-.93,.43-1.7,.4-1.76,.7-.04,.19,.2,.51,1.41,1.06"/><path class="cls-1" d="M57.66,48.86c1.4-.25,3.2-.45,5.28-.35,2.44,.11,4.48,.58,5.99,1.06"/></g></g></svg>