<?xml version="1.0" encoding="UTF-8"?><svg id="Calque_2" xmlns="http://www.w3.org/2000/svg" viewBox="0 0 79.05 83.81"><defs><style>.cls-1{fill:none;stroke:#000;stroke-miterlimit:10;stroke-width:.5px;}</style></defs><g id="Calque_5"><g><path class="cls-1" d="M5.53,30.08c-1.44,.76-3.86,2.04-4.9,4.54-.31,.75-.67,2.02,0,5.63,.72,3.89,1.97,6.87,2.91,8.9,2.42,5.22,3.69,7.96,6.72,10.53,1.34,1.14,3.53,2.95,6.9,3.63,4.04,.81,7.34-.51,9.26-1.27,2.14-.85,4.36-1.74,6.17-3.99,2.98-3.71,2.58-8.3,2.36-9.8-.57-3.88-2.66-6.26-5.63-9.62-4.35-4.93-8.82-7.23-10.89-8.17-4.95-2.23-7.81-1.91-8.53-1.82-2.12,.29-3.68,1.1-4.36,1.45Z"/><path class="cls-1" d="M15.7,29.36c-.19-.3-3.14,2.28-5.45,1.45-.36-.13-.92-.42-1.45-.18-.52,.23-.9,.91-.73,1.27,.11,.23,.37,.18,.54,.36,.46,.48-.38,1.85-.73,2.72-.93,2.37,.31,5.06,.91,6.36,1.07,2.33,2.74,3.71,2.36,4.18-.29,.36-1.38-.37-2,.18-.46,.41-.44,1.33-.18,1.45,.23,.12,.51-.5,1.27-.73,.78-.23,1.5,.12,1.63,.18,1.05,.5,1.35,1.71,1.63,2.36,1.07,2.5,4.5,3.43,7.26,4.18,2.03,.55,4.42,1.2,7.26,.36,.25-.07,5.46-1.67,5.99-5.27,.22-1.5-.41-3.06-.91-3.09-.65-.03-.53,2.55-2.36,3.99-1.09,.86-2.32,.89-4.54,.91-1.53,.01-4.02,0-7.08-1.09-3.37-1.21-5.46-3.05-6.72-4.18-3.09-2.77-3.43-4.61-3.45-5.45,0-.25-.02-1.11,.36-1.27,.33-.14,.79,.33,1.27,.73,0,0,.96,.8,2.91,1.63,2.21,.95,5.08,.4,5.27-.36,.08-.33-.32-.78-.73-.91-.62-.19-1.08,.42-1.82,.73-1.39,.58-3.24-.11-4.36-1.09-1.23-1.08-1.83-2.72-1.63-4.18,.1-.73,.47-1.91,1.09-2,.71-.1,1.12,1.34,2,1.27,.6-.05,1.19-.78,1.09-1.27-.11-.57-1.12-.69-1.09-1.09,.02-.23,.34-.33,.73-.54,1-.55,1.73-1.47,1.63-1.63Z"/><path class="cls-1" d="M6.17,51.42c.27-.6,.87-.98,1.45-1.09,1.14-.22,2.25,.61,2.18,.91-.08,.33-1.52-.04-1.82,.54-.34,.68,1.28,1.83,.91,2.54-.17,.31-.64,.38-.91,.36-1.14-.07-2.41-1.95-1.82-3.27Z"/><path class="cls-1" d="M4.71,41.43c-.31,.11-.41,1.23,.18,2,.5,.65,1.42,.96,1.63,.73,.38-.43-1.29-2.91-1.82-2.72Z"/><path class="cls-1" d="M17.42,57.23c-.17-.6,1.07-1.91,2.18-1.63,.6,.15,1.17,.76,1.09,1.27-.1,.66-1.23,.95-2,.91-.11,0-1.14-.07-1.27-.54Z"/><path class="cls-1" d="M22.51,61.41c-.47-.5,1.09-3.35,3.63-4.72,1.39-.75,3.1-1.06,3.27-.73,.09,.18-.31,.48-1.27,1.45-1.62,1.64-1.53,1.87-2.36,2.54-1.1,.9-2.89,1.85-3.27,1.45Z"/><path class="cls-1" d="M28.32,41.61c-.64-.69-.78-1.12-1.09-1.09-.37,.04-.68,.7-.73,1.27-.12,1.56,1.74,2.75,2,2.91,1.2,.74,2.89,1.09,3.27,.54,.22-.32-.2-.65-.36-2-.1-.84-.02-1.42-.18-1.45-.21-.05-.33,.93-.91,1.09-.65,.18-1.53-.77-2-1.27Z"/><path class="cls-1" d="M17.24,43.07c-.44,.26-.54,.96-.36,1.45,.27,.75,1.24,1.25,1.82,.91,.44-.26,.54-.96,.36-1.45-.27-.75-1.24-1.25-1.82-.91Z"/><path class="cls-1" d="M26.5,.4c-2.16,.49-3.5,1.97-3.99,2.54-1.11,1.27-1.51,2.46-2.18,4.54-.41,1.28-1.1,3.7-1.45,7.44-.21,2.22-.37,3.88-.18,5.99,.17,1.95,.65,7.37,4.72,11.98,1.07,1.21,2.88,3.21,5.99,4.36,1.09,.4,4.69,1.66,8.72,.18,4.95-1.82,6.88-6.45,7.44-7.81,1.24-2.98,1.16-5.53,1.09-7.99-.06-1.88-.39-6.3-2.91-11.26-1.76-3.48-3.38-6.66-6.9-8.35-1.57-.76-3.53-1.05-7.44-1.63-.93-.14-1.81-.25-2.91,0Z"/><path class="cls-1" d="M26.5,25.09c.12-.2,.71-.05,.91,0,.6,.15,1.33,.58,1.27,.91-.05,.24-.53,.4-.91,.36-.81-.07-1.43-1-1.27-1.27Z"/><path class="cls-1" d="M22.69,24c.01-.23,.59-.47,1.09-.36,.67,.15,1.05,.89,.91,1.09-.22,.32-2.02-.31-2-.73Z"/><path class="cls-1" d="M22.33,26.54c-.12,.1-.07,.35,0,.73,.1,.48,.19,.97,.54,1.09,.42,.14,1.05-.29,1.09-.73,.07-.68-1.32-1.35-1.63-1.09Z"/><path class="cls-1" d="M24.32,30.17c-.44,.17-.37,1.21-.36,1.27,.08,1.04,.94,2.11,1.63,2,.35-.06,.63-.41,.73-.73,.36-1.16-1.35-2.79-2-2.54Z"/><path class="cls-1" d="M27.23,9.29c-.04,.09-.61,1.53-.18,1.82,.23,.16,.73-.04,.91-.36,.23-.42,0-1.13-.73-1.45Z"/><path class="cls-1" d="M21.96,7.48c-1.03,3.68-1.1,4.65-.91,4.72,.19,.07,.68-.73,.91-1.27,.68-1.59,.15-3.07,0-3.45Z"/><path class="cls-1" d="M40.12,26.36c-.56,.41-.72,1-.54,1.27,.26,.39,1.31,.24,1.45-.18,.1-.3-.24-.83-.91-1.09Z"/><path class="cls-1" d="M39.58,32.35c-.15,.03-.27,.32-.18,.54,.13,.32,.63,.32,.73,.18,.12-.17-.3-.78-.54-.73Z"/><path class="cls-1" d="M37.4,34.71c-1.23,.43-1.42,.26-2.91,.73-.98,.31-2.79,.97-2.72,1.27,.05,.25,1.41,.23,2.54,0,.91-.18,1.03-.37,2.18-.73,1.91-.59,2.04-.23,3.09-.73,1.03-.49,1.67-1.22,2.36-2,.41-.47,1.24-1.48,1.09-1.63-.14-.14-.97,.6-2.72,1.63-1.05,.62-1.82,1.07-2.91,1.45Z"/><path class="cls-1" d="M43.03,33.81c1.15-1,2.97-2.36,5.45-3.45,2.28-1,5.84-2.56,10.17-1.63,.78,.17,6.38,1.46,9.08,6.72,2.21,4.31,1.06,8.52,.36,11.08-1.66,6.1-5.78,9.55-7.81,11.26-2.54,2.13-5.63,4.73-9.99,4.72-1,0-4.28,0-6.54-2.18-.6-.58-1.31-1.78-2.72-4.18-1.17-1.99-1.76-2.98-2-3.63-.26-.7-1.27-3.67-.36-7.08,.49-1.84,1.09-2.12,2.18-4.36,.79-1.61,1.72-4.01,2.18-7.26Z"/><path class="cls-1" d="M48.84,33.44c-.69,.11-1.07,.77-.91,1.27,.18,.56,.99,.77,1.27,.54,.27-.22,.16-.97-.36-1.82Z"/><path class="cls-1" d="M51.56,35.8s-.12,0-.35,.05c-.6,.14-.86,0-.92,.13-.09,.18,.28,.78,.73,.73,.46-.05,.67-.78,.54-.91Z"/><path class="cls-1" d="M60.28,44.52c.11-.17,1.15-1.66,1.63-1.45,.4,.17,.36,1.46-.18,2.36-.22,.38-.73,1.02-1.09,.91-.33-.1-.49-.84-.36-1.82Z"/><path class="cls-1" d="M50.83,57.23c.59-.83,1.45-1.01,1.82-.73,.33,.26,.38,.99,0,1.45-.23,.27-.65,.49-1.09,.36-.44-.13-.75-.58-.73-1.09Z"/><path class="cls-1" d="M48.29,61.59c.09-.18,.52-1.02,1.45-1.27,.53-.15,1.34-.13,1.45,.18,.16,.42-.9,1.54-2,1.45-.42-.03-.74-.23-.91-.36Z"/><path class="cls-1" d="M48.66,53.78c.31-.17,.81-.41,1.45-.54,.3-.06,.99-.2,1.09,0,.07,.14-.2,.4-.73,.91-.68,.65-1.03,.97-1.27,.91-.33-.09-.52-.63-.54-1.27Z"/><path class="cls-1" d="M52.47,29.27c0,.08,1.18-.13,2.72,.18,2.14,.43,3.76,1.62,4.9,2.72l1.63-.54c-.71-.75-1.9-1.79-3.63-2.36-2.85-.95-5.64-.13-5.63,0Z"/><path class="cls-1" d="M65.18,45.06c-.35-.08-1.07,.61-.91,1.27,.15,.59,.94,.93,1.27,.73,.37-.23,.12-1.13,0-1.45-.1-.27-.18-.51-.36-.54Z"/><path class="cls-1" d="M57.19,55.59c-.29,.23-.81,.73-.91,1.45-.01,.09-.11,.77,.18,.91,.25,.12,.7-.2,.91-.54,.45-.74-.13-1.73-.18-1.82Z"/><path class="cls-1" d="M53.01,41.07c-.16,.24,.34,1.02,1.09,1.27s1.61-.08,1.63-.36c.04-.5-2.45-1.33-2.72-.91Z"/><path class="cls-1" d="M46.11,38.71c.47,1.45,1.1,2.42,1.63,2.36,.45-.05,.87-.84,.73-1.45-.18-.74-1.22-1.32-2.36-.91Z"/><path class="cls-1" d="M50.83,47.97c.13,.65,.68,1.1,1.27,1.09,.59,0,1.15-.46,1.09-.73-.05-.21-.5-.41-2.36-.36Z"/><path class="cls-1" d="M37.58,37.62c-.83,.25-2.43,.86-3.81,2.36-.72,.78-1.17,1.57-1.45,2.18"/><path class="cls-1" d="M38.67,41.25c-.46-.23-1.86,1.14-1.63,1.63,.14,.3,.94,.42,1.45,0,.62-.5,.49-1.48,.18-1.63Z"/><path class="cls-1" d="M38.31,48.7c-.26-.06-1.33-.27-2,.36-.24,.22-.46,.59-.36,.73,.11,.15,.53-.09,1.27-.18,.46-.06,.84-.03,1.09,0"/><path class="cls-1" d="M38.49,50.15c-.21,.02-1.57,.19-1.82,.91-.02,.06-.08,.24,0,.36,.16,.24,.75,.14,1.09,0,.35-.14,.58-.37,.73-.54"/><path class="cls-1" d="M34.67,47.24c.54-.43,.84-.61,.91-.54,.08,.08-.16,.5-.73,1.27"/><path class="cls-1" d="M33.22,57.23c.83-.41,2.28-.99,4.18-1.09,1.75-.09,3.15,.26,3.99,.54"/><path class="cls-1" d="M21.06,63.58c-.88,1.11-2.1,2.94-2.91,5.45-.58,1.82-1.16,3.6-.73,5.63,.77,3.66,4.28,5.65,6.17,6.72,3.69,2.09,7.2,2.16,8.72,2.18,7.1,.1,12.11-3.52,15.8-6.17,3.83-2.77,5.14-4.88,5.81-6.54,.38-.93,1.09-2.75,.73-5.08-.26-1.69-.97-2.93-1.45-3.63"/><path class="cls-1" d="M21.24,64.31c.11,.07-.14,.4,0,.73,.14,.32,.59,.44,1.45,.54,1.52,.19,2.28,.28,2.54,0,.54-.58-.36-1.58,.18-2.36,.42-.61,1.12-.22,2.54-.73,1.73-.61,2.15-1.7,3.09-1.45,.47,.12,.94,.55,.91,.91-.06,.71-2.05,.76-2.18,1.63-.03,.21,.09,.21,.36,1.09,.23,.73,.34,1.1,.18,1.27-.23,.26-.71-.18-1.27,0-.43,.14-.69,.56-1.27,2.18-.48,1.31-.71,1.97-.73,2.18-.14,2.17,1.89,3.42,1.27,4.54-.15,.26-.42,.49-.73,.54-1.3,.23-2.81-2.72-3.09-3.27-1.05-2.12-.74-3.04-2-4.54-.27-.32-1.27-1.51-2-1.27-.75,.24-.76,1.84-.91,1.82-.13-.02-.29-1.34,.36-2.54,.43-.79,1.12-1.37,1.27-1.27Z"/><path class="cls-1" d="M33.04,65.04c-.57-.24-1.81,.88-1.63,1.45,.11,.35,.66,.21,1.27,.73,.65,.55,.99,1.53,.73,1.82-.31,.33-1.2-.5-2.54-.18-.26,.06-.75,.18-.91,.54-.1,.24,.03,.39,.18,1.27,.09,.52,.09,.71,.18,.73,.18,.04,.28-.7,.91-1.09,.07-.04,.61-.37,1.09-.18,.59,.23,.53,1.01,.91,1.09,.43,.09,.71-.9,1.63-1.82,.73-.73,1.51-1.05,2.91-1.63,1.66-.69,2.53-.74,2.54-1.09,.01-.36-.89-.88-1.82-.91-1.59-.05-2.21,1.37-3.63,1.09-.18-.04-.69-.14-1.09-.54-.53-.54-.37-1.12-.73-1.27Z"/><path class="cls-1" d="M40.67,68.85c-.28-.06-.91-.19-1.27,.18-.22,.23-.32,.62-.18,.91,.19,.39,.74,.35,1.63,.54,1.52,.34,2.03,.91,2.18,.73,.24-.29-.82-2.03-2.36-2.36Z"/><path class="cls-1" d="M40.85,62.49c-.03,.24-.04,.66,.18,1.09,.22,.43,.73,.98,1.27,.91,.2-.03,.47-.15,.54-.36,.06-.17-.05-.29-.18-.73-.15-.49-.09-.58-.18-.73-.14-.21-.53-.39-1.63-.18Z"/><path class="cls-1" d="M34.31,59.59c-.49,.1-1.12,.44-1.09,.73,.02,.13,.15,.14,.73,.54,.48,.33,.55,.44,.54,.54-.01,.13-.15,.14-.36,.36-.13,.13-.38,.4-.36,.73,.01,.22,.15,.49,.36,.54,.16,.04,.32-.05,.54-.18,.36-.22,.42-.39,.54-.36,.11,.02,.19,.18,.36,.91,.19,.81,.2,1.01,.36,1.09,.24,.11,.66-.1,.73-.36,.06-.25-.22-.38-.54-.91-.07-.12-.7-1.12-.36-1.63,.14-.21,.35-.2,.36-.36,.02-.23-.39-.28-.73-.73-.33-.43-.23-.76-.54-.91-.17-.08-.32-.05-.54,0Z"/><path class="cls-1" d="M25.05,76.11c-.68-.21-1.54-.24-1.63,0-.09,.24,.58,.69,.91,.91,1.55,1.04,2.34,.78,4.18,1.63,1.11,.52,1.58,.97,2,.73,.37-.21,.48-.82,.36-1.27-.23-.87-1.36-1.19-1.63-1.27-1.35-.39-1.91,.34-3.09-.18-.44-.2-.53-.38-1.09-.54Z"/><path class="cls-1" d="M39.58,74.3c-1.49-.16-2.9,.38-3.63,1.45-.13,.2-.96,1.42-.54,2.36,.15,.35,.45,.59,.36,.91-.07,.27-.4,.51-.73,.54-.61,.06-.82-.63-1.82-.91-.27-.07-.73-.2-.91,0-.3,.35,.63,1.19,.36,1.82-.34,.8-2.35,.56-2.36,.73,0,.16,1.75,.74,3.81,.36,.78-.14,3.11-.57,4.54-2.72,1.28-1.94,1-4,.91-4.54Z"/><path class="cls-1" d="M50.11,62.49c.87,.77,1.16,1.45,1.27,1.82,.08,.28,.09,.47,0,.54-.2,.16-.73-.33-.91-.18-.12,.11-.04,.49,.18,.73,.24,.26,.47,.15,.73,.36,.4,.34,.43,1.11,.18,1.27-.19,.13-.47-.16-.73,0-.12,.08-.22,.24-.18,.36,.08,.27,.74,.07,1.09,.36,.61,.51-.06,2.23-.18,2.54-.71,1.84-1.86,2.86-1.82,2.91,.05,.05,1.72-1.02,2.72-3.09,1.27-2.61,.67-5.14,.54-5.63-.24-.95-.62-1.69-.91-2.18"/><path class="cls-1" d="M47.57,74.84c-.45-.56-3.26,.34-4.54,2.36-.52,.82-.79,1.83-.54,2,.21,.15,.62-.48,1.63-.73,.84-.21,1.08,.1,1.63-.18,.44-.22,.66-.64,1.09-1.45,.61-1.17,.92-1.76,.73-2Z"/><path class="cls-1" d="M53.56,61.95c.37,.94,.95,2.28,1.82,3.81,1.17,2.07,1.79,3.17,2.91,3.99,1.65,1.23,2.5,.48,6.17,1.27,4.1,.88,4.73,2.18,7.63,2,.96-.06,2.54-.18,3.99-1.27,2.59-1.93,2.7-5.38,2.72-5.99,.14-4.16-2.79-7.12-4.36-8.72-3.18-3.22-6.86-4.42-8.9-4.9"/><path class="cls-1" d="M63.36,59.23c-.41-.02-1.01-.04-1.09,.18-.08,.23,.42,.67,.91,.91,1.31,.64,2.58-.13,2.91,.36,.27,.4-.47,1.08-.18,1.45,.26,.34,1.2,.27,1.45-.18,.28-.49-.36-1.23-.54-1.45-.98-1.16-2.54-1.23-3.45-1.27Z"/><path class="cls-1" d="M59.91,61.77c-.21,.04-.73,.15-.91,.54-.21,.47,.18,1.02,.36,1.27,.03,.04,.64,.87,1.09,.73,.27-.09,.25-.46,.54-.54,.3-.08,.48,.25,.73,.18,.31-.09,.54-.76,.36-1.27-.26-.77-1.38-1.07-2.18-.91Z"/><path class="cls-1" d="M55.56,61.22c-.09,.91,.14,1.38,.36,1.63,.33,.37,.64,.31,.91,.73,.34,.53,.03,.98,.36,1.27,.27,.24,.8,.24,1.09,0,.57-.47,.09-1.76,0-2-.45-1.2-1.44-1.87-2-2.18"/><path class="cls-1" d="M72.8,64.13c-.54-.14-1.32-.14-1.45,.18-.08,.19,.1,.43,.18,.54,.32,.44,.86,.52,1.09,.54,.57,.07,1.39-.05,1.45-.36,.06-.32-.67-.75-1.27-.91Z"/><path class="cls-1" d="M77.16,68.49c-.22-.38-.66-.45-1.27-.54-.69-.11-1.42-.23-1.82,.18-.37,.39-.06,.87-.54,1.45-.28,.34-.57,.4-.54,.54,.04,.21,.71,.39,1.27,.18,.73-.27,.71-.99,1.27-1.09,.63-.11,1.05,.73,1.45,.54,.32-.14,.44-.83,.18-1.27Z"/><path class="cls-1" d="M63.73,67.58c-.12,0-.46,0-.54,.18-.08,.18,.12,.45,.54,.91,.61,.67,.92,1,1.27,1.27,1.16,.88,1.62,.73,3.27,1.63,1.37,.75,1.8,1.26,2.54,1.09,.44-.1,.92-.42,.91-.73-.03-.48-1.26-.45-2.72-1.09-2.46-1.07-3.87-3.28-5.27-3.27Z"/><path class="cls-1" d="M72.99,57.23c-.03,.07-.16,.41,0,.73,.28,.56,1.19,.54,1.27,.36,.05-.11-.17-.39-1.27-1.09Z"/></g></g></svg>