<?xml version="1.0" encoding="UTF-8"?><svg id="Calque_2" xmlns="http://www.w3.org/2000/svg" viewBox="0 0 117.32 177.15"><defs><style>.cls-1{fill:none;stroke:#000;stroke-miterlimit:10;stroke-width:.78px;}</style></defs><g id="Calque_3"><g><path class="cls-1" d="M70.27,25.75c-.84,.93-2.65,3.01-3.12,6.24-.22,1.49-.74,5.09,1.56,7.02,2.4,2.03,6.54,1.11,8.58-.78,.34-.32,1.01-1.52,2.34-3.9,2.02-3.63,2.23-4.3,2.34-4.68,.48-1.67,1.07-3.72,0-5.46-1.33-2.17-4.27-2.33-4.68-2.34-3.4-.13-5.8,2.54-7.02,3.9Z"/><path class="cls-1" d="M66.76,42.53c-1.42,.54-2.25,1.43-3.12,2.34-.78,.82-2.52,2.65-3.12,5.46-.2,.93,.12,2.97,.78,7.02,.53,3.3,.75,4.14,1.56,4.68,1.32,.88,3.16,.25,3.9,0,2.1-.71,3.27-2.26,3.9-3.12,1.18-1.6,1.57-3.15,2.34-6.24,.77-3.07,.79-4.73,.78-5.46-.03-2-.04-3.03-.78-3.9-1.41-1.67-4.38-1.5-6.24-.78Z"/><path class="cls-1" d="M60.51,64.38c-2.11,.39-3.45,1.85-3.9,2.34-.68,.74-.58,.92-1.56,2.34-1.82,2.64-2.48,2.48-3.12,3.9-.97,2.15-.31,4.4,0,5.46,.42,1.44,.89,3.05,2.34,3.9,2.37,1.39,5.48-.35,6.24-.78,1.53-.85,2.33-1.88,3.9-3.9,1.78-2.29,2.73-3.51,3.12-5.46,.21-1.04,.68-3.42-.78-5.46-1.46-2.04-4.15-2.73-6.24-2.34Z"/><path class="cls-1" d="M48.03,85.46c-.32,.24-1.11,.87-2.34,1.56-.88,.49-1.17,.56-1.56,.78-1.58,.89-2.13,2.74-3.12,6.24-.53,1.88-.8,2.82-.78,3.9,.02,1.1,.05,3.17,1.56,4.68,1.52,1.53,3.61,1.56,3.9,1.56,2.55,0,4.3-1.84,7.02-4.68,1.69-1.76,2.99-3.15,3.9-5.46,.51-1.3,1.25-3.16,.78-5.46-.13-.65-.77-3.77-3.12-4.68-2.67-1.03-6.01,1.39-6.24,1.56Z"/><path class="cls-1" d="M37.88,104.97c-1.6,.96-2.34,2.34-2.34,2.34-.5,.92-.3,1.23-.78,2.34-.26,.6-.51,.95-2.34,3.12-1.88,2.23-2.12,2.46-2.34,3.12-.47,1.44-.11,2.75,0,3.12,.5,1.71,1.95,3.54,3.9,3.9,1.25,.23,2.39-.37,4.68-1.56,1.53-.8,3.02-1.58,4.68-3.12,.97-.9,2.77-2.62,3.9-5.46,.79-1.98,1.5-3.78,.78-5.46-1.37-3.2-7.14-4.14-10.15-2.34Z"/><path class="cls-1" d="M26.96,126.04c.56-.45,1.94-1.42,3.9-1.56,.45-.03,3.41-.24,4.68,1.56,1.34,1.9-.07,4.8-.78,6.24-1.71,3.5-4.6,5.27-6.24,6.24-3.11,1.85-7.78,3.51-8.58,2.34-.5-.73,.76-2.15,2.34-4.68,1.84-2.94,3.45-6.29,4.68-10.15Z"/><path class="cls-1" d="M87.83,55.8c-.9-.13-2.99-.42-4.68,.78-.63,.45-.98,.94-2.34,3.9-1.35,2.92-2.02,4.39-2.34,5.46-.76,2.57-1.24,4.2-.78,6.24,.2,.89,.77,3.44,3.12,4.68,2.52,1.34,5.15,.15,5.46,0,.89-.42,1.62-1.04,3.9-4.68,2.48-3.96,3.72-5.98,3.9-7.8,.11-1.07,.4-3.99-1.56-6.24-1.66-1.91-3.97-2.24-4.68-2.34Z"/><path class="cls-1" d="M80.02,78.43c-.54-.15-2.09-.56-3.9,0-1.99,.62-3.07,2.03-3.9,3.12-1.51,1.98-1.98,3.9-2.34,5.46-.61,2.64-1.07,4.62,0,6.24,.3,.45,1.24,1.08,3.12,2.34,2.11,1.42,2.65,1.55,3.12,1.56,.82,.02,1.66-.31,3.12-1.56,1.93-1.65,4.48-3.84,5.46-7.8,.42-1.67,.86-3.48,0-5.46-1.26-2.89-4.28-3.79-4.68-3.9Z"/><path class="cls-1" d="M71.44,94.82c-3.04-.02-5.58,3.45-6.24,6.24-.5,2.11,.24,3.13-.78,5.46-.73,1.66-1.42,1.87-1.56,3.12-.28,2.54,2.23,4.6,2.34,4.68,2.03,1.61,4.87,1.77,7.02,.78,2.36-1.08,3.3-3.28,3.9-4.68,.94-2.2,.89-4.07,.78-7.8-.1-3.43-.59-4.36-.78-4.68-.82-1.42-2.58-3.11-4.68-3.12Z"/><path class="cls-1" d="M65.2,115.89c-1.54-.32-2.85,.57-5.46,2.34-3.37,2.28-5.07,3.43-5.46,5.46-.37,1.89,.72,2.86,0,5.46-.38,1.37-.78,1.47-.78,2.34,0,2.04,2.23,4.18,4.68,4.68,1.94,.4,4.08-.21,5.46-1.56,1.72-1.67,.84-3.09,2.34-7.02,1.59-4.16,3.37-4.66,3.12-7.02-.22-2.08-1.87-4.26-3.9-4.68Z"/><path class="cls-1" d="M52.71,135.4c-2.49,.58-3.7,3.43-3.9,3.9-.54,1.26-.2,1.48-.78,3.9-.2,.85-.35,1.28-1.56,4.68-1.58,4.43-1.7,4.77-1.56,5.46,.39,1.88,2.15,3.38,3.9,3.9,2.72,.82,5.11-.8,6.24-1.56,3.26-2.21,4.27-5.63,4.68-7.02,.52-1.75,1.92-6.51-.78-10.15-1.14-1.53-3.65-3.73-6.24-3.12Z"/><path class="cls-1" d="M97.19,33.95c-2.33-.66-4.5,.67-4.68,.78-1.13,.71-1.16,1.31-3.12,3.9-2.16,2.85-2.46,2.57-3.12,3.9-1.31,2.62-.92,5.27-.78,6.24,.27,1.84,.69,4.7,3.12,6.24,2.13,1.35,4.46,.83,4.68,.78,2.49-.59,3.79-2.68,5.46-5.46,2.01-3.35,3.56-5.93,3.12-9.36-.05-.38-.83-5.93-4.68-7.02Z"/><path class="cls-1" d="M96.41,25.36c.02,.86,.12,3.86,2.34,6.24,.58,.62,2.49,2.67,4.68,2.34,2.39-.36,3.73-3.34,4.68-5.46,1.6-3.57,.65-4.59,2.34-7.02,1.57-2.25,3.31-2.71,3.12-3.9-.21-1.34-2.62-1.99-3.9-2.34-1.52-.41-4.17-1.13-7.02,0-4.2,1.66-6.32,6.3-6.24,10.15Z"/><path class="cls-1" d="M85.49,25.36c-.14,1.21-.38,3.12-.78,5.46-.75,4.37-1.42,6.56-2.34,10.93-1,4.71-.66,4.27-1.56,8.58-1.15,5.53-1.97,9.47-3.9,14.05-1.84,4.36-2.32,3.68-5.46,10.15-1.14,2.34-1.11,2.5-4.68,10.93-.19,.45,.03-.08-4.68,10.93-4.68,10.92-4.67,10.9-4.68,10.93-4.91,9.05-8.74,9.11-11.71,17.17-.92,2.49-.99,3.66-2.34,6.24-1.41,2.68-2.99,4.56-7.02,8.58-6.58,6.56-9.87,9.84-12.49,10.93-4.06,1.68-5.46,.74-9.36,3.12-1.59,.97-4.5,2.8-6.24,6.24-1.12,2.22-1.16,3.94-1.56,3.9-.57-.05-1.33-3.47,0-6.24,.48-1,.84-1.11,1.56-2.34,1.04-1.78,1.41-3.5,1.56-4.68"/><path class="cls-1" d="M85.49,25.36c.05-1.13,.08-2.75,0-4.68-.12-2.85-.19-4.39-.78-6.24-.9-2.84-1.71-2.25-2.34-4.68-.59-2.26-.02-3.29-.78-7.02-.1-.5-.48-2.37-.78-2.34-.32,.03-.04,2.11-.78,4.68-.3,1.04-.61,1.62-2.34,4.68-1.95,3.45-2.93,5.18-3.12,5.46-1.89,2.84-2.67,3.24-4.68,6.24-1.09,1.63-1.87,3.03-2.34,3.9"/><path class="cls-1" d="M66.76,24.58c.03,.78,.08,1.4,0,2.34-.21,2.49-1.02,4.26-1.56,5.46-2.65,5.92-1.85,5.29-3.9,9.36-2.37,4.71-2.71,4.1-3.9,7.02-1.82,4.45-.66,4.94-2.34,9.36-1.6,4.21-2.9,4.4-4.68,9.36-.61,1.71-.32,1.29-1.56,5.46-.87,2.93-1.74,5.83-3.12,9.36-.55,1.4-1.59,3.94-3.12,7.02-1.45,2.9-1.7,3.02-4.68,8.58-2.17,4.06-2.72,5.27-3.12,7.02-.53,2.31-.18,2.76-.78,4.68-.92,2.96-2.32,3.73-3.9,6.24-2.01,3.2-.84,3.72-3.12,10.15-.58,1.63-1.8,4.84-3.9,8.58-.84,1.51-2.29,4.05-4.68,7.02-1.61,1.99-3.41,3.67-7.02,7.02-1.61,1.49-4.5,4.12-8.58,6.24-.97,.51-2.14,1.05-2.34,.78-.31-.41,1.78-2.55,2.34-3.12,1.8-1.84,2.45-1.99,3.12-3.12,.74-1.25,.82-2.57,.78-3.9-.25-7.73-4.7-13.58-2.34-18.73,.6-1.31,.79-.72,2.34-3.12,2.71-4.21,3.43-8.05,3.9-10.15,.8-3.53,2.87-8.08,7.02-17.17,3.17-6.95,3.35-6.17,6.24-12.49,4.79-10.47,3.37-10.58,7.02-17.95,4.72-9.51,7.57-10.3,10.15-18.73,1.07-3.49,.87-4.31,2.34-8.58,2.09-6.08,4.51-10.29,6.24-13.27,2.72-4.68,4.08-7.01,6.24-8.58,.65-.47,.5-.28,6.24-3.9,2.87-1.81,3.89-2.48,4.68-3.9,.67-1.21,1.38-3.36,1.56-3.9,.53-1.63,.62-2.35,.78-2.34,.32,.03,.61,3.07,0,6.24-.45,2.34-.9,2.2-1.56,4.68-1.07,4.01-.9,8.09-.78,10.93Z"/><path class="cls-1" d="M92.51,25.36c1.06-4.53,.5-4.6,1.56-7.8,1.11-3.37,2.93-8.88,7.02-10.15,2.62-.81,3.55,.93,6.24,0,4.09-1.41,5.38-6.59,6.24-6.24,.22,.09,.31,.48,0,5.46-.15,2.46-.21,3.01,0,3.9,.49,2.04,1.76,3.14,2.34,3.9,2.64,3.43-.64,10.48-1.56,12.49-4.74,10.27-8.41,21.01-13.27,31.22-.58,1.23,.07-.11-8.58,20.29-11.56,27.28-17.41,41.03-20.29,46.82-5.28,10.6-7.17,13.15-10.15,21.07-1.89,5.02-4.61,9.72-6.24,14.83-1.19,3.71-2.18,7.72-5.46,9.36-1.18,.59-2.59,.84-3.9,2.34-1.62,1.85-1.57,3.89-2.34,3.9-.68,.01-1.49-1.6-1.56-3.12-.08-1.77,.89-2.31,.78-3.9-.1-1.41-.94-2.08-1.56-3.12-.9-1.52-.62-3.89,0-8.58,.49-3.7,.91-6.84,2.34-10.93,.47-1.35,.47-1.13,1.56-3.9,.25-.64,2.28-5.79,3.9-10.93,2.42-7.65,1.38-7.15,3.12-11.71,2.09-5.47,3.28-5.39,5.46-10.93,1.95-4.95,1.51-6.31,3.12-11.71,1.34-4.48,2.26-5.59,6.24-14.05,2.63-5.58,1.35-3.25,8.58-19.51,3.62-8.14,5.43-12.21,7.02-15.61,2.33-4.96,3.09-6.37,4.68-10.15,2.15-5.08,3.57-8.51,4.68-13.27Z"/><path class="cls-1" d="M90.95,39.41c.26-.35,1.03-1.27,2.34-1.56,1.26-.28,2.9,.04,3.12,.78,.23,.75-1.11,1.51-.78,2.34,.12,.31,.31,.24,.78,.78,.32,.37,.8,.94,.78,1.56-.03,.74-.74,.84-.78,1.56-.04,.7,.62,.74,.78,1.56,.17,.88-.5,1.27-.78,3.12-.11,.72-.02,.77,0,.78,.24,.09,1.06-1.42,1.56-2.34,.31-.56,.53-.97,.78-1.56,.28-.64,.65-1.51,.78-2.34,.34-2.12-1.11-2.69-.78-4.68,.21-1.3,1.01-2.17,.78-2.34-.19-.15-.66,.56-1.56,.78-1.24,.3-1.99-.65-3.12-.78-.88-.1-2.16,.26-3.9,2.34Z"/><path class="cls-1" d="M92.51,43.31c-.35,.14-.35,1.42,0,1.56,.23,.09,.78-.25,.78-.78s-.55-.87-.78-.78Z"/><path class="cls-1" d="M87.05,48.78c-.27,.27-.16,.71,0,.78,.25,.11,.89-.54,.78-.78-.07-.16-.51-.27-.78,0Z"/><path class="cls-1" d="M91.73,54.24c-.19,.14-.16,.55,0,.78,.37,.54,1.5,.28,1.56,0,.07-.32-1.18-1.07-1.56-.78Z"/><path class="cls-1" d="M94.07,53.46v-.78"/><path class="cls-1" d="M83.15,58.14c.02,.26,1.24-.02,2.34,.78,.61,.45,.94,1.04,1.56,3.12,.82,2.74,1.5,5.04,.78,5.46-.46,.27-1.25-.35-1.56,0-.18,.2-.05,.56,0,.78,.32,1.27-.46,2.58-.78,3.12-1.13,1.9-3.94,1.69-3.9,2.34,.02,.44,1.33,.8,2.34,.78,1.08-.02,1.9-.48,2.34-.78,1.11-.77,1.42-1.72,2.34-3.9,1.72-4.06,1.96-3.82,2.34-5.46,.43-1.85,.75-3.27,0-4.68-.91-1.71-2.76-2.24-3.12-2.34-2.36-.67-4.72,.41-4.68,.78Z"/><path class="cls-1" d="M83.15,65.16c.12,.03,.14,.48,.17,1.37,.04,1.07,.06,1.67-.17,1.75-.21,.07-.61-.35-.78-.78-.42-1.07,.5-2.41,.78-2.34Z"/><path class="cls-1" d="M79.24,73.75c.49-.22,1.78,1.07,1.56,1.56-.14,.32-1.03,.53-1.56,0s-.32-1.42,0-1.56Z"/><path class="cls-1" d="M90.17,68.29c-.56,0-1.39,1.69-.78,2.34,.36,.38,1.2,.38,1.56,0,.61-.65-.22-2.34-.78-2.34Z"/><path class="cls-1" d="M91.73,67.51v-.78"/><path class="cls-1" d="M69.88,89.36c.36,.13,1.33-1.05,1.56-2.34,.12-.66-.03-.94,0-1.56,.07-1.3,.83-2.24,1.56-3.12,.96-1.17,2.57-3.12,4.68-3.12,0,0,.28,0,3.12,.78h0s-2.21-1.46-3.9-1.56c-2.81-.17-5.09,3.33-5.46,3.9-1.97,3.02-2.13,6.82-1.56,7.02Z"/><path class="cls-1" d="M73,94.82c.21-1.08,1.01-1.68,1.56-1.56,.6,.13,1.1,1.13,.78,1.56-.23,.31-.89,.35-1.56,0"/><path class="cls-1" d="M76.9,94.04c.1,.05,.82,.37,1.56,0,.48-.24,.7-.63,.78-.78"/><path class="cls-1" d="M82.37,90.14c.07,.73-.26,1.36-.78,1.56-.32,.12-.62,.05-.78,0"/><path class="cls-1" d="M83.93,84.68c-.42,1.07-.68,1.59-.78,1.56-.07-.02-.07-.28,0-.78"/><path class="cls-1" d="M80.8,81.55l.78,.78h0l.78-.78"/><path class="cls-1" d="M79.24,67.51v1.56h0c.38,.57,.64,.83,.78,.78,.17-.06,.17-.58,0-1.56"/><path class="cls-1" d="M84.71,61.26h-.78"/><path class="cls-1" d="M69.1,101.06h0c-.21,.17-.49,.43-.78,.78-1.05,1.26-1.32,2.59-1.56,3.9-.21,1.12-.36,2.77,0,4.68,.22,1.16,.62,2.37,.78,2.34,.18-.03-.27-1.71,0-3.9,.13-1.05,.61-2.27,1.56-4.68,1.59-4.01,2.01-4.43,2.34-4.68,1.73-1.37,3.78-.83,3.9-1.56,.1-.59-1.15-1.52-2.34-1.56-1.59-.05-3.23,1.49-3.9,3.9"/><path class="cls-1" d="M69.1,109.65c1.09-.39,1.49-.07,1.56,0,.62,.54,.18,2.21-.78,3.12-.57,.54-1.22,.71-1.56,.78"/><path class="cls-1" d="M56.61,122.13s1.08-1.7,2.34-1.56c.35,.04,.46,.19,1.56,.78,1.04,.56,1.24,.58,1.56,.78,1.5,.91,2.44,3.59,1.56,5.46-.52,1.1-1.52,1.6-1.56,1.56-.07-.07,2.73-1.85,3.12-4.68,.06-.45,.23-2.17-.78-3.12-.27-.26-.71-.44-1.56-.78-1.22-.49-1.83-.74-2.34-.78-2.13-.18-3.86,2.39-3.9,2.34Z"/><path class="cls-1" d="M60.51,134.62h.78"/><path class="cls-1" d="M64.42,130.72c-.21,.25-.61,.78-.78,1.56-.15,.68-.07,1.25,0,1.56"/><path class="cls-1" d="M55.05,147.11c-.28-.17-.14-1.63,.78-2.34,.94-.73,2.11-.25,2.34-.78,.15-.36-.42-.53-.78-1.56-.34-.96-.27-2.04-.7-2.96-.04-.08-.08-.16-.08-.16s-.32-.63-.79-1.11c-.36-.37-1.22-1.06-2.33-1.23-1.72-.27-3.09,.84-3.12,.78-.03-.07,1.57-1.48,3.9-1.56,.73-.03,2.07-.07,3.12,.78,1.08,.87,1.24,2.18,1.56,4.68,.02,.17,.18,1.45,0,3.12-.1,.98-.24,2.21-.78,2.34-.48,.12-.77-.76-1.56-.78-.84-.03-1.31,.93-1.56,.78Z"/><path class="cls-1" d="M52.71,152.57c-.16,.19-.42,.47-.78,.78-.5,.43-.79,.55-.78,.78,0,.33,.62,.37,.78,.78,.1,.26,.03,.72-.78,1.56"/><path class="cls-1" d="M52.71,152.57c.25,.21,.78,.61,1.56,.78,.68,.15,1.25,.07,1.56,0"/><path class="cls-1" d="M57.39,149.45c-.17-.09-.44,.38-1.3,.65-.12,.04-.2,.05-.27,.13-.29,.37,.32,1.58,.78,1.56,.61-.02,1.11-2.16,.78-2.34Z"/><path class="cls-1" d="M49.59,147.11c-.17,0-.11,.78-.78,1.56-.43,.5-.83,.61-.78,.78,.07,.25,1.03,.43,1.56,0,.79-.64,.24-2.33,0-2.34Z"/><path class="cls-1" d="M99.53,30.83c.04-.72,2.46-1.5,3.12-.78,.58,.62-.33,2.18,0,2.34,.24,.12,.9-.56,.78-.78-.17-.32-1.73,.67-3.12,0-.12-.06-.8-.39-.78-.78Z"/><path class="cls-1" d="M105.78,29.27c.29-.34,.64-.86,.78-1.56,.1-.49,.03-.72,0-1.56-.06-1.8,.22-1.88,0-2.34-.51-1.06-2.03-.68-2.34-1.56-.27-.77,.57-2,1.56-2.34,.59-.21,.8,.06,1.56,0,1.81-.14,2.8-1.8,3.12-1.56,.26,.19-.21,1.38-.78,2.34-1.11,1.89-1.97,1.85-2.34,3.12-.36,1.25,.35,1.74,0,3.12-.28,1.1-1,1.87-1.56,2.34Z"/><path class="cls-1" d="M99.53,19.9c.44,.3,.85,.62,.78,.78-.07,.18-.76,.12-.78,0-.02-.1,.46-.32,2.34-.78"/><path class="cls-1" d="M99.53,22.24c.39-.06,1.26,1.87,.78,2.34-.18,.18-.56,.14-.78,0-.73-.46-.36-2.29,0-2.34Z"/><path class="cls-1" d="M77.68,26.14c0,.11,0,.29,0,.5,0,.21-.02,.24,0,.28,.06,.14,.39,.22,1.56,0"/><path class="cls-1" d="M79.24,28.49c.48,1.42,.28,2.04,0,2.34-.45,.48-1.19,.22-1.56,.78-.23,.35-.07,.65,0,1.56,.12,1.54-.21,2.25,0,2.34,.19,.09,.74-.41,2.34-3.12"/><path class="cls-1" d="M69.88,38.63c.32-.24,.84-.59,1.56-.78,.35-.09,1.33-.36,1.56,0,.19,.29-.14,.93-.78,1.56"/><path class="cls-1" d="M66.76,46.43c-.28-.04-.28-2.3,0-2.34,.24-.03,.59,1.6,.78,1.56,.12-.03,.12-.75,0-.78-.19-.04-.54,1.6-.78,1.56Z"/><path class="cls-1" d="M67.54,42.53c.39,.1,.99,.3,1.56,.78,.87,.73,1.05,1.58,1.56,1.56,.43-.02,.71-.62,.78-.78,.34-.72,.06-1.42,0-1.56"/><path class="cls-1" d="M65.2,59.7c1.44,.47,2.05,.29,2.34,0,.44-.44,.25-1.28,.78-1.56,.26-.14,.57-.07,.78,0"/><path class="cls-1" d="M56.61,67.51c.43,.22,.8,.49,.78,.78-.03,.41-.82,.61-.78,.78,.04,.16,.79,.19,1.56,0,.17-.04,2.26-.56,2.34-1.56,.04-.53-.52-.67-.78-1.56-.18-.6-.1-1.17,0-1.56"/><path class="cls-1" d="M62.85,65.95c-.17,.39,4.09,1.98,3.9,3.9-.06,.59-.47,.5-.78,1.56-.28,.94-.14,1.66-.65,2.85-.04,.1-.07,.17-.13,.27-.5,.97-1.33,1.42-1.56,1.56-1.9,1.13-2.41,4.26-4.68,4.68-1.28,.24-2.59-.49-3.12-.78-1.34-.74-1.96-1.77-2.34-1.56-.3,.16-.29,.96,0,1.56,.64,1.32,2.68,1.62,3.9,1.56,1.9-.09,3.19-1.12,4.68-2.34,1.35-1.1,3.63-2.96,4.68-6.24,.49-1.53,1.22-3.79,0-5.46-1.24-1.7-3.78-1.85-3.9-1.56Z"/><path class="cls-1" d="M48.81,86.24c-.61,.73-1.44,1.79-2.34,3.12-1.12,1.66-1.86,2.77-1.56,3.12,.29,.34,1.52-.11,2.34-.78,.67-.55,.98-1.15,1.56-2.34,1.03-2.1,.84-2.65,1.56-3.12,.93-.61,1.88-.12,2.34-.78,.31-.44,.17-1.08,0-1.56"/><path class="cls-1" d="M55.83,87.02c-.64,.33-.95,1.01-.78,1.56,.11,.35,.4,.65,.78,.78,.36,.12,.67,.04,.78,0"/><path class="cls-1" d="M48.03,97.94v.78"/><path class="cls-1" d="M42.56,98.72v.78"/><path class="cls-1" d="M52.71,95.6v.78"/><path class="cls-1" d="M73,105.75h.78"/><path class="cls-1" d="M31.64,119.79c.05-.08,1.11,1,2.34,.78,.29-.05,.31-.13,1.56-.78,.4-.21,1.04-.54,1.56-.78,1.08-.49,1.28-.38,2.34-.78,1.09-.41,2.78-1.05,3.12-2.34,.11-.41,.05-.77,0-.78-.15-.02,0,2.68-1.56,3.9-.83,.65-1.23,.18-3.12,.78-2.26,.73-2.59,1.7-3.9,1.56-1.44-.16-2.4-1.48-2.34-1.56Z"/><path class="cls-1" d="M44.91,105.75c-.22,.2,.05,1.14,.78,1.56,.62,.36,1.47,.27,1.56,0,.16-.48-1.97-1.89-2.34-1.56Z"/><path class="cls-1" d="M35.54,107.31c.11,.05,.86,.37,1.56,0,.73-.39,1.1-1.37,.78-2.34"/><path class="cls-1" d="M40.22,108.09h.78"/><path class="cls-1" d="M41.78,105.75l.78,.78"/><path class="cls-1" d="M34.76,111.99h.78"/><path class="cls-1" d="M26.96,130.72c.21,.48,1.54,.8,2.34,0s.48-2.13,0-2.34c-.74-.32-2.67,1.61-2.34,2.34Z"/><path class="cls-1" d="M32.42,126.04l.78,.78"/><path class="cls-1" d="M34.76,126.04c-.7,.69-.82,1.21-.78,1.56,.07,.64,.62,.7,.78,1.56,.05,.25,0,.27,0,1.56,0,.33,0,.6,0,.78"/><path class="cls-1" d="M61.29,19.9c-1.49,1.48-3.21,3.53-4.68,6.24-.63,1.17-2.53,4.87-3.12,10.15-.47,4.13,.37,4.74,0,7.8-.32,2.67-1.47,6.5-5.46,10.93"/><path class="cls-1" d="M40.22,56.58c-.24,2.49-.57,6.27-.78,10.93-.3,6.72-.05,8.24,.78,8.58,1.44,.59,4.14-2.54,5.46-4.68,2.23-3.59,2.42-7.3,2.34-9.36"/><path class="cls-1" d="M33.98,77.65c-7.69,6.74-8.94,11.6-8.58,14.83,.24,2.2,1.26,4.03,.78,7.02-.58,3.58-2.88,6.19-4.68,7.8"/><path class="cls-1" d="M9.01,126.04c1.14-.42,3.39-1.1,6.24-.78,3.07,.34,5.24,1.64,6.24,2.34"/></g></g></svg>