<?xml version="1.0" encoding="UTF-8"?><svg id="Calque_2" xmlns="http://www.w3.org/2000/svg" viewBox="0 0 161.19 72.02"><defs><style>.cls-1{fill:#1d1d1b;font-family:Plein-Black, Plein;font-size:30px;}.cls-2{letter-spacing:-.07em;}.cls-3{letter-spacing:-.05em;}.cls-4{letter-spacing:.02em;}</style></defs><g id="Calque_5"><g><g><path d="M124.17,39.35c.47,.6,1.16,1.55,1.83,2.8,.95,1.75,.99,2.46,1.83,3.72,.34,.52,1.23,1.83,2.76,2.8,1.67,1.06,2.33,.58,5.55,1.9,1.95,.8,2.48,1.29,2.77,1.88,.36,.73,.28,1.49-.02,2.78-.6,2.58-1.25,3.63-1.9,5.55-.93,2.76-1.22,5.49-.97,5.56,.12,.03,.34-.52,.94-1.85,1.38-3.04,2.08-4.57,2.83-5.54,.75-.97,1.9-2.43,3.73-2.75,.65-.12,1.21-.06,1.85,.01,1.69,.18,2.24,.7,3.7,.96,1.19,.21,2.12,.1,2.78,.02,2.88-.34,3.14-1.6,5.58-1.81,2.05-.18,3.4,.59,3.71,.03,.25-.44-.42-1.26-.91-1.86-1.55-1.89-3.45-2.71-3.69-2.81-3.83-1.62-7.56-.34-8.35-.06-.76,.26-2.8,.96-4.66,2.75-.97,.93-1.69,1.95-1.87,1.84-.2-.12,.58-1.34,.95-2.77,.76-2.93-.47-5.61-.88-6.5-1.54-3.36-4.32-4.95-5.52-5.61-5.26-2.9-10.71-1.42-12.05-1.02Z"/><circle cx="132.03" cy="32.54" r=".46"/><circle cx="147.7" cy="45.64" r=".46"/><circle cx="146.8" cy="41" r=".46"/><circle cx="157.87" cy="48.5" r=".46"/><circle cx="158.79" cy="49.44" r=".46"/><circle cx="152.21" cy="61.44" r=".46"/><circle cx="138.63" cy="63.87" r=".46"/><circle cx="141" cy="71.56" r=".46"/><circle cx="128.56" cy="63.91" r=".46"/><circle cx="121.63" cy="58.42" r=".46"/><circle cx="132.79" cy="54.8" r=".46"/><circle cx="130.01" cy="53.85" r=".46"/></g><text class="cls-1" transform="translate(.34 25.5) rotate(.44)"><tspan x="0" y="0">SE</tspan><tspan class="cls-4" x="33.96" y="0">M</tspan><tspan x="62.43" y="0">ENCES </tspan><tspan x="0" y="36">DE</tspan><tspan class="cls-4" x="39.42" y="36"> </tspan><tspan class="cls-2" x="44.82" y="36">P</tspan><tspan class="cls-3" x="61.68" y="36">A</tspan><tspan x="80.76" y="36">YS</tspan></text></g></g></svg>