<?xml version="1.0" encoding="UTF-8"?><svg id="Calque_2" xmlns="http://www.w3.org/2000/svg" viewBox="0 0 160.13 67.74"><defs><style>.cls-1{fill:#1d1d1b;}</style></defs><g id="Calque_5"><g><g><path d="M123.11,35.08c.47,.6,1.16,1.55,1.83,2.8,.95,1.75,.99,2.46,1.83,3.72,.34,.52,1.23,1.83,2.76,2.8,1.67,1.06,2.33,.58,5.55,1.9,1.95,.8,2.48,1.29,2.77,1.88,.36,.73,.28,1.49-.02,2.78-.6,2.58-1.25,3.63-1.9,5.55-.93,2.76-1.22,5.49-.97,5.56,.12,.03,.34-.52,.94-1.85,1.38-3.04,2.08-4.57,2.83-5.54,.75-.97,1.9-2.43,3.73-2.75,.65-.12,1.21-.06,1.85,.01,1.69,.18,2.24,.7,3.7,.96,1.19,.21,2.12,.1,2.78,.02,2.88-.34,3.14-1.6,5.58-1.81,2.05-.18,3.4,.59,3.71,.03,.25-.44-.42-1.26-.91-1.86-1.55-1.89-3.45-2.71-3.69-2.81-3.83-1.62-7.56-.34-8.35-.06-.76,.26-2.8,.96-4.66,2.75-.97,.93-1.69,1.95-1.87,1.84-.2-.12,.58-1.34,.95-2.77,.76-2.93-.47-5.61-.88-6.5-1.54-3.36-4.32-4.95-5.52-5.61-5.26-2.9-10.71-1.42-12.05-1.02Z"/><circle cx="130.98" cy="28.26" r=".46"/><circle cx="146.64" cy="41.37" r=".46"/><circle cx="145.75" cy="36.72" r=".46"/><circle cx="156.82" cy="44.23" r=".46"/><circle cx="157.74" cy="45.16" r=".46"/><circle cx="151.15" cy="57.17" r=".46"/><circle cx="137.57" cy="59.59" r=".46"/><circle cx="139.95" cy="67.28" r=".46"/><circle cx="127.5" cy="59.64" r=".46"/><circle cx="120.57" cy="54.15" r=".46"/><circle cx="131.73" cy="50.52" r=".46"/><circle cx="128.96" cy="49.57" r=".46"/></g><g><path class="cls-1" d="M.78,21.24l-.26-5.01c1.74,.22,3.06,.35,4.41,.36,2.7,.02,3.93-.42,3.94-1.38,0-.72-.44-1.17-3.7-2.52C1.64,11.19-.03,9.59,0,6.2,.03,2.21,3.23-.05,9.35,0c1.86,.02,3.12,.18,4.29,.33l.26,5.01c-1.98-.25-3.18-.35-4.65-.37-2.46-.02-3.24,.3-3.25,1.05,0,.84,.53,1.2,3.76,2.64,4.13,1.83,5.13,3.43,5.11,6.22-.03,4.44-3.32,6.72-9.59,6.68-1.5-.01-2.94-.11-4.5-.33Z"/><path class="cls-1" d="M31.89,21.48l-14.82-.11,.16-21,14.82,.11-.04,5.1-8.82-.07-.02,3,7.62,.06-.04,4.8-7.62-.06-.02,3,8.82,.07-.04,5.1Z"/><path class="cls-1" d="M33.6,21.49L37.1,.52l5.85,.04c1.7,4.93,3.05,8.93,4.28,13.47,1.32-4.52,2.8-8.5,4.57-13.4l5.85,.04,3.11,21.02-6.3-.05c-.42-4.2-.81-8.14-1.08-11.83-1.05,3.68-2.19,7.6-3.57,11.79l-5.52-.04c-1.29-4.06-2.49-8-3.51-11.76-.42,3.75-.9,7.67-1.47,11.72l-5.7-.04Z"/><path class="cls-1" d="M78.18,21.84l-14.82-.11,.16-21,14.82,.11-.04,5.1-8.82-.07-.02,3,7.62,.06-.04,4.8-7.62-.06-.02,3,8.82,.07-.04,5.1Z"/><path class="cls-1" d="M81.18,21.86l.16-21,5.1,.04,7.77,10.92,.08-10.86,5.4,.04-.16,21-5.1-.04-7.77-10.92-.08,10.86-5.4-.04Z"/><path class="cls-1" d="M101.87,11.61c.05-6.93,4.74-10.85,11.27-10.8,1.65,.01,3.09,.14,4.32,.33l.26,5.1c-1.56-.22-2.61-.32-3.66-.33-3.84-.03-6.01,1.57-6.04,5.53-.03,4.11,2.29,5.84,5.92,5.87,1.53,.01,2.58-.1,3.84-.27l-.34,5.1c-.93,.14-2.37,.28-4.05,.27-6.96-.05-11.58-3.87-11.53-10.8Z"/><path class="cls-1" d="M135.12,22.28l-14.82-.12,.16-21,14.82,.12-.04,5.1-8.82-.07-.02,3,7.62,.06-.04,4.8-7.62-.06-.02,3,8.82,.07-.04,5.1Z"/><path class="cls-1" d="M137.97,22.3l-.26-5.01c1.74,.22,3.06,.35,4.41,.36,2.7,.02,3.93-.42,3.94-1.38,0-.72-.44-1.17-3.7-2.52-3.53-1.5-5.2-3.1-5.17-6.49,.03-3.99,3.23-6.25,9.35-6.2,1.86,.01,3.12,.17,4.29,.33l.26,5.01c-1.98-.26-3.18-.35-4.65-.37-2.46-.02-3.24,.3-3.25,1.05,0,.84,.53,1.2,3.76,2.64,4.13,1.83,5.13,3.43,5.11,6.22-.03,4.44-3.32,6.72-9.59,6.68-1.5-.01-2.94-.11-4.5-.33Z"/><path class="cls-1" d="M.65,57.24l.16-21,7.05,.05c8.4,.06,12.28,3.21,12.22,10.35-.06,7.26-3.98,10.71-11.78,10.65l-7.65-.06Zm6.12-15.85l-.08,10.8,2.46,.02c2.88,.02,4.75-1.4,4.78-5.39,.03-3.87-2-5.38-4.91-5.41l-2.25-.02Z"/><path class="cls-1" d="M37.07,57.52l-14.82-.12,.16-21,14.82,.11-.04,5.1-8.82-.07-.02,3,7.62,.06-.04,4.8-7.62-.06-.02,3,8.82,.07-.04,5.1Z"/><path class="cls-1" d="M45.47,57.58l.16-21,6.75,.05c7.32,.06,9.91,2.33,9.87,7.31-.04,5.19-3.21,8.08-9.36,8.03h-1.38l-.04,5.66-6-.05Zm6.12-16.15l-.04,5.73h1.08c2.13,.02,3.58-.83,3.59-2.96,.01-1.83-.91-2.74-3.1-2.75h-1.53Z"/><path class="cls-1" d="M60.68,57.7l7.51-20.94,6,.05,7.22,21.06-6.48-.05c-.23-.81-.44-1.59-.67-2.4l-6.66-.05c-.25,.81-.49,1.59-.74,2.39l-6.18-.05Zm12.26-7.1c-.67-2.47-1.28-4.93-1.86-7.37-.65,2.43-1.33,4.88-2.07,7.33l3.93,.03Z"/><path class="cls-1" d="M86.36,57.9l.04-5.73-6.78-15.32,6.48,.05,3.5,8.61,3.64-8.55,6.18,.05-7.02,15.21-.04,5.73-6-.05Z"/><path class="cls-1" d="M100.46,58.01l-.26-5.01c1.74,.22,3.06,.35,4.41,.36,2.7,.02,3.93-.42,3.94-1.38,0-.72-.44-1.17-3.7-2.52-3.53-1.5-5.2-3.1-5.17-6.49,.03-3.99,3.23-6.24,9.35-6.2,1.86,.01,3.12,.17,4.29,.33l.26,5.01c-1.98-.26-3.18-.35-4.65-.37-2.46-.02-3.24,.31-3.25,1.06,0,.84,.53,1.2,3.76,2.64,4.12,1.83,5.13,3.43,5.11,6.22-.04,4.44-3.32,6.72-9.59,6.68-1.5-.01-2.94-.11-4.5-.33Z"/></g></g></g></svg>