<?xml version="1.0" encoding="UTF-8"?><svg id="Calque_2" xmlns="http://www.w3.org/2000/svg" viewBox="0 0 160.54 160.54"><defs><style>.cls-1{fill:#915f43;}.cls-2{fill:#998076;opacity:.45;}</style></defs><g id="Calque_1-2"><g><circle class="cls-2" cx="80.27" cy="80.27" r="80.27"/><g><g><g id="sKe8Ct"><g><path class="cls-1" d="M41.65,50.71l.33,.44,.15-.05,.08-1.12c.08,0,.24-.04,.41-.04,2.72,0,5.44,0,8.16,0,2.09,0,3.78,1.38,4.2,3.43,.36,1.71,.73,3.42,1.08,5.14,.06,.27,.17,.36,.43,.34,.13-.01,.26,0,.38,0,18.32,0,36.64,0,54.96,0,1.47,0,2.63,.54,3.4,1.82,.49,.82,.6,1.71,.4,2.64-1.49,7.05-2.98,14.11-4.47,21.16-.46,2.18-.92,4.37-1.38,6.55-.43,2.02-2.08,3.36-4.15,3.38-1.87,.01-3.73,0-5.6,0-1.99,0-3.99,0-5.98,0-.44,0-.88-.04-1.36-.15l.5-.3c-.07-.08-.19-.24-.22-.22-.17,.08-.42,.19-.45,.33-.08,.38-.32,.35-.6,.35-7.85,0-15.7,0-23.55,0-.17,0-.34-.02-.5-.03l.08-.12c-.18-.17-.35-.44-.55-.48-.19-.04-.42,.18-.64,.29l.05,.14,.26,.05c-1.11,.28-2.23,.08-3.4,.19,.1,.44,.19,.85,.27,1.26,.12,.57,.25,1.14,.35,1.71,.04,.24,.14,.35,.39,.32,.13-.01,.26,0,.38,0,13.23,0,26.47,0,39.7,0,1.24,0,2.19,.51,2.7,1.66,.49,1.11,.29,2.15-.53,3.05-.58,.64-1.35,.86-2.2,.86-4.52,0-9.03,0-13.55,0-9.25,0-18.49,0-27.74,0-2.27,0-3.9-1.33-4.36-3.55-1.18-5.62-2.36-11.25-3.55-16.87-1.72-8.17-3.45-16.34-5.18-24.51-.17-.81-.36-1.61-.5-2.42-.06-.34-.19-.44-.52-.44-2.76,.01-5.53,.01-8.29,0-1.47,0-2.6-.92-2.84-2.28-.3-1.76,1.02-3.31,2.81-3.28,.21,0,.42,.02,.62,.03v.57c-.02-.23-.17-.35-.32-.17-.12,.14-.15,.39-.12,.58,.01,.09,.26,.14,.49,.25l-.04-.5Zm38.57,11.45l.41,.21c0-.59,.03-1.14-.02-1.67-.01-.12-.32-.33-.44-.3-.21,.05-.55,.08-.52,.53l.67-.25c-.04,.54-.07,1.01-.1,1.48l-.33-.82c-.24,.26-.38,.51-.17,.82,.16,.23,.33,.14,.5,0Zm25.87,22.42l.21-.04c0-.49,.01-.99,0-1.48,0-.11-.08-.28-.17-.33-.25-.12-.2-.3-.16-.5,1.06-5.02,2.13-10.04,3.19-15.06,.19-.9,.37-1.8,.57-2.74H57.36c.02,.14,.03,.25,.05,.36,1.66,7.86,3.32,15.72,4.97,23.59,.08,.37,.2,.47,.57,.47,4.5-.01,9,0,13.5,0,9.22,0,18.43,0,27.65,0,.34,0,.5-.07,.56-.44,.22-1.19,.49-2.37,.75-3.55,.03-.15,.16-.27,.27-.46-.08-.24-.13-.54,.23-.8,.03,.22,.06,.4,.09,.57,.02,.14,.05,.28,.08,.42Zm-51.06-23.27h0c0-.11,0-.23,0-.34,.02-.3-.12-.53-.4-.55-.17-.01-.36,.14-.51,.25-.05,.04-.04,.17-.06,.26,.1-.02,.2-.04,.29-.07,.1-.03,.19-.07,.29-.11-.01,.12,0,.25-.05,.34-.05,.09-.16,.16-.26,.22-.3,.18-.33,.45-.21,.73,.04,.11,.22,.25,.3,.23,.29-.06,.6-.15,.62-.54,0-.14,0-.28,0-.43Zm51.33,.02h-.04c0-.12,0-.23,0-.35,.02-.29-.11-.54-.39-.56-.16-.01-.36,.14-.51,.25-.06,.04-.05,.17-.08,.26,.1-.03,.2-.06,.31-.09,.09-.03,.18-.06,.27-.09,0,.1,.04,.24,0,.31-.09,.12-.27,.18-.34,.31-.1,.19-.17,.42-.18,.64,0,.09,.24,.29,.26,.28,.19-.13,.55,.02,.59-.35,.02-.2,.08-.4,.12-.6Z"/><path class="cls-1" d="M92.73,112.18c0-3.07,2.47-5.57,5.52-5.57,3.1,0,5.58,2.46,5.59,5.54,0,3.08-2.48,5.57-5.57,5.56-3.08,0-5.54-2.47-5.54-5.54Z"/><path class="cls-1" d="M41.65,50.71l.04,.5c-.23-.11-.48-.16-.49-.25-.03-.19,0-.44,.12-.58,.15-.18,.3-.06,.32,.17v.17Z"/><path class="cls-1" d="M55.03,61.31c0,.14,0,.28,0,.43-.02,.39-.32,.48-.62,.54-.08,.02-.26-.12-.3-.23-.12-.28-.09-.55,.21-.73,.1-.06,.21-.12,.26-.22,.05-.1,.03-.23,.05-.34-.1,.04-.19,.08-.29,.11-.09,.03-.19,.04-.29,.07,.02-.09,0-.22,.06-.26,.16-.11,.35-.27,.51-.25,.29,.02,.42,.26,.4,.55,0,.11,0,.23,0,.34h0Zm-.31,.14l-.23-.07c-.04,.17-.1,.35-.12,.53,0,.02,.12,.06,.19,.1l.16-.56Z"/><path class="cls-1" d="M106.36,61.33c-.04,.2-.1,.4-.12,.6-.04,.37-.41,.22-.59,.35-.02,.01-.26-.19-.26-.28,.01-.22,.08-.44,.18-.64,.07-.13,.25-.19,.34-.31,.05-.07,0-.2,0-.31-.09,.03-.18,.06-.27,.09-.1,.03-.2,.06-.31,.09,.02-.09,.02-.22,.08-.26,.16-.11,.35-.26,.51-.25,.29,.03,.41,.27,.39,.56,0,.11,0,.23,0,.34h.04Zm-.35,.13l-.23-.07c-.04,.17-.1,.35-.12,.53,0,.02,.12,.06,.19,.1l.16-.56Z"/><path class="cls-1" d="M80.23,62.17l.1-1.48-.67,.25c-.03-.45,.31-.48,.52-.53,.12-.03,.43,.18,.44,.3,.05,.54,.02,1.08,.02,1.67l-.41-.21h0Z"/><path class="cls-1" d="M80.22,62.16c-.16,.14-.34,.24-.5,0-.21-.31-.08-.56,.17-.82,.12,.29,.23,.55,.34,.82h0Z"/><path class="cls-1" d="M54.72,61.45l-.16,.56c-.07-.03-.19-.07-.19-.1,.03-.18,.08-.35,.12-.53l.23,.07Z"/><path class="cls-1" d="M106.01,61.45l-.16,.56c-.07-.03-.19-.07-.19-.1,.03-.18,.08-.35,.12-.53l.23,.07Z"/></g></g><rect class="cls-1" x="41.03" y="49.94" width="2.36" height="1.34"/><rect class="cls-1" x="52.6" y="59.67" width="3.56" height="3.56"/><rect class="cls-1" x="78.25" y="60.03" width="3.92" height="3.56"/><rect class="cls-1" x="104.25" y="60.03" width="3.21" height="2.85"/><polygon class="cls-1" points="105.28 85.49 106.09 81.64 107.1 81.75 106.33 85.49 105.28 85.49"/><polygon class="cls-1" points="91.23 94.39 94.54 94.39 94.28 93.51 91.43 93.51 91.23 94.39"/><polygon class="cls-1" points="65.47 94.39 68.57 94.39 68.63 93.51 65.78 93.51 65.47 94.39"/></g><path class="cls-1" d="M63.1,112.18c0-3.07,2.47-5.57,5.52-5.57,3.1,0,5.58,2.46,5.59,5.54,0,3.08-2.48,5.57-5.57,5.56-3.08,0-5.54-2.47-5.54-5.54Z"/></g></g></g></svg>