<?xml version="1.0" encoding="UTF-8"?><svg id="Calque_2" xmlns="http://www.w3.org/2000/svg" viewBox="0 0 40.1 40.1"><defs><style>.cls-1{fill:#967056;}.cls-2{fill:#b39684;opacity:.45;}</style></defs><g id="Calque_5"><g><circle class="cls-2" cx="20.05" cy="20.05" r="20.05"/><g><g><g id="sKe8Ct"><g><path class="cls-1" d="M10.41,12.67l.08,.11h.04l.02-.29s.06-.01,.1-.01c.68,0,1.36,0,2.04,0,.52,0,.94,.34,1.05,.86,.09,.43,.18,.85,.27,1.28,.01,.07,.04,.09,.11,.08,.03,0,.06,0,.1,0,4.58,0,9.15,0,13.73,0,.37,0,.66,.14,.85,.46,.12,.2,.15,.43,.1,.66-.37,1.76-.75,3.52-1.12,5.29-.12,.55-.23,1.09-.35,1.64-.11,.5-.52,.84-1.04,.84-.47,0-.93,0-1.4,0-.5,0-1,0-1.49,0-.11,0-.22,0-.34-.04l.12-.07s-.05-.06-.05-.06c-.04,.02-.11,.05-.11,.08-.02,.09-.08,.09-.15,.09-1.96,0-3.92,0-5.88,0-.04,0-.08,0-.13,0l.02-.03s-.09-.11-.14-.12c-.05,0-.11,.05-.16,.07v.03h.08c-.28,.08-.56,.03-.85,.06,.02,.11,.05,.21,.07,.32,.03,.14,.06,.28,.09,.43,.01,.06,.04,.09,.1,.08,.03,0,.06,0,.1,0,3.31,0,6.61,0,9.92,0,.31,0,.55,.13,.67,.41,.12,.28,.07,.54-.13,.76-.15,.16-.34,.22-.55,.22-1.13,0-2.26,0-3.38,0-2.31,0-4.62,0-6.93,0-.57,0-.97-.33-1.09-.89-.29-1.4-.59-2.81-.89-4.21-.43-2.04-.86-4.08-1.29-6.12-.04-.2-.09-.4-.13-.61-.01-.08-.05-.11-.13-.11-.69,0-1.38,0-2.07,0-.37,0-.65-.23-.71-.57-.08-.44,.26-.83,.7-.82,.05,0,.1,0,.16,0v.14c0-.06-.04-.09-.08-.04-.03,.03-.04,.1-.03,.15,0,.02,.06,.03,.12,.06v-.12Zm9.62,2.86l.1,.05c0-.15,0-.28,0-.42,0-.03-.08-.08-.11-.07-.05,.01-.14,.02-.13,.13l.17-.06c0,.14-.02,.25-.03,.37l-.08-.2c-.06,.07-.09,.13-.04,.2,.04,.06,.08,.03,.12,0Zm6.46,5.6h.05c0-.13,0-.26,0-.38,0-.03-.02-.07-.04-.08-.06-.03-.05-.08-.04-.13,.27-1.25,.53-2.51,.8-3.76,.05-.23,.09-.45,.14-.69H14.33s0,.06,.01,.09c.41,1.96,.83,3.93,1.24,5.89,.02,.09,.05,.12,.14,.12,1.12,0,2.25,0,3.37,0,2.3,0,4.6,0,6.91,0,.09,0,.12-.02,.14-.11,.06-.3,.12-.59,.19-.89,0-.04,.04-.07,.07-.11-.02-.06-.03-.13,.06-.2,0,.06,.01,.1,.02,.14,0,.04,.01,.07,.02,.1Zm-12.75-5.81h0s0-.06,0-.09c0-.07-.03-.13-.1-.14-.04,0-.09,.04-.13,.06-.01,0-.01,.04-.02,.07,.02,0,.05,0,.07-.02,.02,0,.05-.02,.07-.03,0,.03,0,.06-.01,.09-.01,.02-.04,.04-.06,.05-.08,.04-.08,.11-.05,.18,.01,.03,.05,.06,.08,.06,.07-.01,.15-.04,.15-.13,0-.04,0-.07,0-.11Zm12.82,0h0s0-.06,0-.09c0-.07-.03-.13-.1-.14-.04,0-.09,.03-.13,.06-.01,0-.01,.04-.02,.06,.03,0,.05-.01,.08-.02,.02,0,.04-.01,.07-.02,0,.03,.01,.06,0,.08-.02,.03-.07,.05-.08,.08-.03,.05-.04,.11-.05,.16,0,.02,.06,.07,.06,.07,.05-.03,.14,0,.15-.09,0-.05,.02-.1,.03-.15Z"/><path class="cls-1" d="M23.16,28.02c0-.77,.62-1.39,1.38-1.39,.77,0,1.39,.62,1.4,1.39,0,.77-.62,1.39-1.39,1.39-.77,0-1.38-.62-1.38-1.38Z"/><path class="cls-1" d="M10.41,12.67v.12s-.11-.04-.11-.06c0-.05,0-.11,.03-.15,.04-.05,.07-.02,.08,.04v.04Z"/><path class="cls-1" d="M13.75,15.32s0,.07,0,.11c0,.1-.08,.12-.15,.13-.02,0-.06-.03-.08-.06-.03-.07-.02-.14,.05-.18,.02-.01,.05-.03,.06-.05,.01-.02,0-.06,.01-.09-.02,0-.05,.02-.07,.03-.02,0-.05,.01-.07,.02,0-.02,0-.06,.02-.07,.04-.03,.09-.07,.13-.06,.07,0,.1,.06,.1,.14,0,.03,0,.06,0,.09h0Zm-.08,.04l-.06-.02s-.02,.09-.03,.13c0,0,.03,.02,.05,.02l.04-.14Z"/><path class="cls-1" d="M26.57,15.32c-.01,.05-.02,.1-.03,.15-.01,.09-.1,.05-.15,.09,0,0-.07-.05-.06-.07,0-.05,.02-.11,.05-.16,.02-.03,.06-.05,.08-.08,.01-.02,0-.05,0-.08-.02,0-.04,.01-.07,.02-.03,0-.05,.01-.08,.02,0-.02,0-.05,.02-.06,.04-.03,.09-.07,.13-.06,.07,0,.1,.07,.1,.14,0,.03,0,.06,0,.09h0Zm-.09,.03l-.06-.02s-.02,.09-.03,.13c0,0,.03,.02,.05,.02l.04-.14Z"/><path class="cls-1" d="M20.04,15.53l.03-.37-.17,.06c0-.11,.08-.12,.13-.13,.03,0,.11,.04,.11,.07,.01,.13,0,.27,0,.42l-.1-.05h0Z"/><path class="cls-1" d="M20.04,15.53s-.08,.06-.12,0c-.05-.08-.02-.14,.04-.2l.08,.2h0Z"/><path class="cls-1" d="M13.67,15.35l-.04,.14s-.05-.02-.05-.02c0-.04,.02-.09,.03-.13l.06,.02Z"/><path class="cls-1" d="M26.48,15.35l-.04,.14s-.05-.02-.05-.02c0-.04,.02-.09,.03-.13l.06,.02Z"/></g></g><rect class="cls-1" x="10.25" y="12.47" width=".59" height=".34"/><rect class="cls-1" x="13.14" y="14.91" width=".89" height=".89"/><rect class="cls-1" x="19.55" y="14.99" width=".98" height=".89"/><rect class="cls-1" x="26.04" y="14.99" width=".8" height=".71"/><polygon class="cls-1" points="26.3 21.35 26.5 20.39 26.75 20.42 26.56 21.35 26.3 21.35"/><polygon class="cls-1" points="22.79 23.58 23.62 23.58 23.55 23.36 22.84 23.36 22.79 23.58"/><polygon class="cls-1" points="16.35 23.58 17.13 23.58 17.14 23.36 16.43 23.36 16.35 23.58"/></g><path class="cls-1" d="M15.76,28.02c0-.77,.62-1.39,1.38-1.39,.77,0,1.39,.62,1.4,1.39,0,.77-.62,1.39-1.39,1.39-.77,0-1.38-.62-1.38-1.38Z"/></g></g></g></svg>